<svg xmlns="http://www.w3.org/2000/svg" xmlns:xlink="http://www.w3.org/1999/xlink" version="1.1" id="Capa_1_copia" x="0" y="0" width="904.95" height="640.22" viewBox="0 0 904.95 640.22" enable-background="new 0 0 904.95 640.223" xml:space="preserve"><g id="Capa_4_1_"><rect x="-49.74" y="-3.68" fill="#F2ECB6" width="1028.71" height="696.18"/></g><g id="Capa_3_2_" opacity="0.4"><path opacity="0.8" fill="none" stroke="#BC9955" stroke-width="2" stroke-miterlimit="10" enable-background="new    " d="M828.34 95.3c-3.16-6.2 0.16-7.8-14.96-7.58 -15.11 0.22-716.88-1.22-725.58 0C79.11 88.94 78.92 99.32 76.75 108c-3.47 13.94 8.36 560.47 8.36 560.47L113.5 688.5l-1.55-168.22c72.85-0.62 599.27-5.13 687.68-5.93 -1.11 94.89-2.02 169.15-2.02 169.15l30.73-15.03C828.34 668.47 831.5 101.5 828.34 95.3zM118.5 116.5c14 1 677.92-6.44 677.92-6.44s6.08-3.29 7.08 4.08c0.32 2.4-0.19 63.55-1.02 144.95 -83.38-1.01-616.57 5.07-692.89 5.95L108.28 122.5C108.28 122.5 104.5 115.5 118.5 116.5zM111.58 480.08l-1.61-174.85c58.94-0.5 605.95-5.19 692.09-5.97 -0.6 55.87-1.29 117.58-1.96 174.9C714.25 473.23 198.13 479.08 111.58 480.08z"/></g><path opacity="0.4" fill="none" stroke="#BC9955" stroke-width="2" stroke-miterlimit="10" enable-background="new    " d="M218.26 141.41l157.45-3.5c0 0 2.51-1.28 2.9 5.45 0.42 7.13-0.29 95.39-0.29 95.39s5.2 23.29-53.5 23.92 -86.86 0-86.86 0 -31.85-3.48-34.46-27.62c-2.61-24.14 0-86.67 0-86.67S203.46 141.74 218.26 141.41z"/><path opacity="0.4" fill="none" stroke="#BC9955" stroke-width="2" stroke-miterlimit="10" enable-background="new    " d="M378.75 155.5c2.73-0.58 30.06-8.92 41.31 15.31s-12.99 41.33-16.28 47.52c-3.3 6.18-9.3 14.91-16.48 15.88 -7.17 0.97-8.55 0.78-8.55 0.78"/><path opacity="0.4" fill="none" stroke="#BC9955" stroke-width="2" stroke-miterlimit="10" enable-background="new    " d="M379.34 222.3c3.68-1.08 22.49-22.88 27.33-27.98 4.85-5.09 9.11-24.67-8.53-27.39 -17.64-2.71-19.4 8.92-19.4 8.92"/><path opacity="0.4" fill="none" stroke="#BC9955" stroke-width="2" stroke-miterlimit="10" enable-background="new    " d="M526.37 133.44h117.03c0 0 1.18 1.07 1.18 3.2s0 118.68 0 118.68 -53.35 6.85-116.46 2.83c0 0-1.68-116.25-2.14-118.38S524.13 133.44 526.37 133.44z"/><path opacity="0.4" fill="none" stroke="#BC9955" stroke-width="2" stroke-miterlimit="10" enable-background="new    " d="M644.58 150.35c7.99-0.22 28.1 3.33 28.4 40.6 0.3 37.28-28.4 42.3-28.4 42.3"/><path opacity="0.4" fill="none" stroke="#BC9955" stroke-width="2" stroke-miterlimit="10" enable-background="new    " d="M644.58 166.1c5.62 0.59 13.61 4.35 14.2 25.7 0.59 21.34-8.28 25.09-14.2 27.06"/><path opacity="0.4" fill="none" stroke="#BC9955" stroke-width="2" stroke-miterlimit="10" enable-background="new    " d="M151.88 352.94h161.03c0 0 1.18 1.07 1.18 3.2 0 2.13 0 118.69 0 118.69s-97.36 6.85-160.46 2.83c0 0-1.68-116.25-2.14-118.39S149.64 352.94 151.88 352.94z"/><path opacity="0.4" fill="none" stroke="#BC9955" stroke-width="2" stroke-miterlimit="10" enable-background="new    " d="M314.1 369.85c7.99-0.22 28.1 3.33 28.4 40.6 0.3 37.27-28.4 42.3-28.4 42.3"/><path opacity="0.4" fill="none" stroke="#BC9955" stroke-width="2" stroke-miterlimit="10" enable-background="new    " d="M314.1 385.6c5.62 0.59 13.61 4.35 14.2 25.7 0.59 21.34-8.28 25.09-14.2 27.06"/><path opacity="0.4" fill="none" stroke="#BC9955" stroke-width="2" stroke-miterlimit="10" enable-background="new    " d="M395.77 561.42h378.37c0 0 3.83 1.07 3.83 3.2 0 2.13 0 118.69 0 118.69s-182.34 9.22-386.37 5.2c0 0 2.34-35.2 0-63.03C389.22 597.2 388.5 561.42 395.77 561.42z"/><path opacity="0.4" fill="none" stroke="#BC9955" stroke-width="2" stroke-miterlimit="10" enable-background="new    " d="M603.85 619.47c0 6.63-5.37 12-12 12h-10.55c-6.63 0-12-5.37-12-12v-14.97c0-6.63 5.37-12 12-12h10.55c6.63 0 12 5.37 12 12V619.47z"/><path opacity="0.4" fill="none" stroke="#BC9955" stroke-width="2" stroke-miterlimit="10" enable-background="new    " d="M572.85 608c3.54 0 3.98-1.33 5.76 2.21 1.77 3.54-1.62 8.86 2.29 10.19s14.98 3.54 14.54-2.21c-0.44-5.76 1.33-10.23 4.87-10.43"/><path opacity="0.4" fill="none" stroke="#BC9955" stroke-width="2" stroke-miterlimit="10" enable-background="new    " d="M583.95 607.76c3.23-5.3 8.22-0.2 7.86 4.23 -0.36 4.43-4.76 7.26-7.86 4.39C580.85 613.51 582.21 610.61 583.95 607.76z"/><line opacity="0.4" fill="none" stroke="#BC9955" stroke-width="2" stroke-miterlimit="10" enable-background="new    " x1="389.94" y1="607.76" x2="569.3" y2="611.99"/><line opacity="0.4" fill="none" stroke="#BC9955" stroke-width="2" stroke-miterlimit="10" enable-background="new    " x1="604.1" y1="611.13" x2="777.96" y2="605.5"/><path opacity="0.4" fill="none" stroke="#BC9955" stroke-width="2" stroke-linejoin="round" stroke-miterlimit="10" enable-background="new    " d="M424.51 336.3l142.07-3.28c0 0 26.19 36.41 25.69 78.06s-21.54 62.33-21.54 62.33l-140.16 1.26c0 0-30.14-33.56-25.43-75.81C409.84 356.6 424.51 336.3 424.51 336.3z"/><path opacity="0.4" fill="none" stroke="#BC9955" stroke-width="2" stroke-miterlimit="10" enable-background="new    " d="M584.62 366c7.99-0.22 32.71 5.44 33.01 42.71 0.3 37.28-33.01 44.6-33.01 44.6"/><path opacity="0.4" fill="none" stroke="#BC9955" stroke-width="2" stroke-miterlimit="10" enable-background="new    " d="M589.23 383.86c5.62 0.59 13.61 4.35 14.2 25.69 0.59 21.34-8.28 25.09-14.2 27.06"/><path opacity="0.4" fill="none" stroke="#BC9955" stroke-width="2" stroke-linejoin="round" stroke-miterlimit="10" enable-background="new    " d="M656.64 333.63c0.35-4.62-2.79-13 5.59-13.35 8.38-0.35 84.49 0 84.49 0l36.01-0.15c0 0 3.49-0.54 3.84 3.3 0.35 3.84 0 7.33 0 7.33"/><path opacity="0.4" fill="none" stroke="#BC9955" stroke-width="2" stroke-linejoin="round" stroke-miterlimit="10" enable-background="new    " d="M653.84 333.63c2.8 0 132.37-2.17 134.47-2.52 2.1-0.35 2.44 0.15 2.44 2.52s-135.16 4.81-136.91 3.77C652.1 336.35 651.05 333.63 653.84 333.63z"/><polyline opacity="0.4" fill="none" stroke="#BC9955" stroke-width="2" stroke-linejoin="round" stroke-miterlimit="10" enable-background="new    " points=" 656.34 337.65 656.34 474.67 786.72 474.06 786.72 334.36 "/><g opacity="0.4"><path fill="#BC9955" d="M702.56 385.63h-9.22v-3.33h22.45v3.33h-9.27v27h-3.96V385.63H702.56z"/><path fill="#BC9955" d="M718.04 402.46c0.09 5.36 3.47 7.56 7.47 7.56 2.84 0 4.59-0.49 6.03-1.12l0.72 2.84c-1.39 0.63-3.82 1.4-7.29 1.4 -6.7 0-10.71-4.45-10.71-11.02 0-6.57 3.87-11.7 10.22-11.7 7.15 0 9 6.21 9 10.22 0 0.81-0.04 1.4-0.13 1.85h-15.3V402.46zM729.65 399.62c0.05-2.47-1.03-6.39-5.49-6.39 -4.05 0-5.76 3.65-6.07 6.39H729.65zM730.55 381.45l-5.49 6.44h-2.79l3.96-6.43H730.55z"/></g><path opacity="0.4" fill="none" stroke="#BC9955" stroke-width="2" stroke-miterlimit="10" enable-background="new    " d="M220.5 574.5c0 0 58.5 19 102-0.5"/><path opacity="0.4" fill="none" stroke="#BC9955" stroke-width="2" stroke-miterlimit="10" enable-background="new    " d="M322.5 574c0 0-10.5-23.5-49.5-23s-52.5 23.5-52.5 23.5 -11.34 4.39-17.93 20.37c-17.89-8.53-39.87-27.15-43.07-29.41C156 563 132.5 571 136.5 574c3.67 2.75 40.09 50.03 62.32 63.28C201.4 659.39 209 666 209 666s66.72 18.5 127.11 0C348.04 662.35 364 607.5 322.5 574z"/><path opacity="0.4" fill="none" stroke="#BC9955" stroke-miterlimit="10" enable-background="new    " d="M261.53 551.85c-0.02-0.25-0.03-0.51-0.03-0.77 0-5.71 4.81-10.33 10.75-10.33S283 545.38 283 551.09c0 0.3 0.03 0.01 0 0.3"/><path opacity="0.4" fill="none" stroke="#BC9955" stroke-width="2" stroke-miterlimit="10" enable-background="new    " d="M341.03 596.15c5.95-0.16 25.65 4.06 25.87 31.83 0.22 27.78-24.6 33.24-24.6 33.24"/><path opacity="0.4" fill="none" stroke="#BC9955" stroke-width="2" stroke-miterlimit="10" enable-background="new    " d="M345.74 609.47c4.19 0.44 10.14 3.24 10.58 19.15 0.44 15.9-5.03 18.7-9.43 20.17"/></svg>