<?xml version="1.0" encoding="utf-8"?>
<!-- Generator: Adobe Illustrator 15.0.0, SVG Export Plug-In . SVG Version: 6.00 Build 0)  -->
<!DOCTYPE svg PUBLIC "-//W3C//DTD SVG 1.1//EN" "http://www.w3.org/Graphics/SVG/1.1/DTD/svg11.dtd">
<svg version="1.1" xmlns="http://www.w3.org/2000/svg" xmlns:xlink="http://www.w3.org/1999/xlink" x="0px" y="0px"
	 width="904.95px" height="600px" viewBox="-39.836 0 904.95 600" enable-background="new -39.836 0 904.95 600"
	 xml:space="preserve">
<g id="Capa_4">
	<rect x="-49.737" y="-3.681" fill="#195B45" width="928.713" height="611.903"/>
</g>
<g id="Capa_3_1_">
	<path opacity="0.8" fill="none" stroke="#587863" stroke-width="2" stroke-miterlimit="10" d="M782.343,29.299
		c-3.157-6.201,0.157-7.799-14.957-7.577s-716.886-1.222-725.58,0S32.917,33.315,30.754,42
		c-3.471,13.941,8.357,560.471,8.357,560.471L67.5,622.5l-1.552-168.218c72.854-0.624,599.265-5.132,687.682-5.933
		c-1.11,94.885-2.021,169.15-2.021,169.15l30.734-15.029C782.343,602.471,785.5,35.5,782.343,29.299z M72.5,50.5
		c14,1,677.916-6.444,677.916-6.444s6.084-3.288,7.084,4.078c0.325,2.397-0.186,63.552-1.021,144.952
		c-83.379-1.006-616.57,5.065-692.886,5.945L62.277,56.5C62.277,56.5,58.5,49.5,72.5,50.5z M65.577,414.075l-1.613-174.848
		c58.936-0.504,605.947-5.188,692.093-5.97c-0.597,55.867-1.294,117.576-1.958,174.898
		C668.253,407.229,152.133,413.081,65.577,414.075z"/>
</g>
<g id="Capa_2">
	<path opacity="0.8" fill="none" stroke="#587863" stroke-width="2" stroke-miterlimit="10" d="M172.262,75.407l157.446-3.5
		c0,0,2.509-1.28,2.904,5.446c0.419,7.129-0.295,95.389-0.295,95.389s5.202,23.293-53.504,23.919s-86.863,0-86.863,0
		s-31.855-3.485-34.464-27.623s0-86.669,0-86.669S157.457,75.736,172.262,75.407z"/>
	<path opacity="0.8" fill="none" stroke="#587863" stroke-width="2" stroke-miterlimit="10" d="M332.745,89.501
		c2.73-0.582,30.063-8.917,41.307,15.314s-12.988,41.333-16.284,47.516s-9.305,14.906-16.478,15.875s-8.546,0.775-8.546,0.775"/>
	<path opacity="0.8" fill="none" stroke="#587863" stroke-width="2" stroke-miterlimit="10" d="M333.342,156.303
		c3.683-1.085,22.487-22.885,27.333-27.978s9.112-24.672-8.529-27.386s-19.402,8.917-19.402,8.917"/>
	<path opacity="0.8" fill="none" stroke="#587863" stroke-width="2" stroke-miterlimit="10" d="M480.372,67.443H597.4
		c0,0,1.184,1.073,1.184,3.199s0,118.684,0,118.684s-53.356,6.852-116.463,2.834c0,0-1.682-116.255-2.139-118.385
		S478.126,67.443,480.372,67.443z"/>
	<path opacity="0.8" fill="none" stroke="#587863" stroke-width="2" stroke-miterlimit="10" d="M598.584,84.345
		c7.987-0.221,28.104,3.329,28.4,40.604s-28.4,42.304-28.4,42.304"/>
	<path opacity="0.8" fill="none" stroke="#587863" stroke-width="2" stroke-miterlimit="10" d="M598.584,100.099
		c5.621,0.592,13.61,4.354,14.201,25.696s-8.285,25.092-14.201,27.063"/>
	<path opacity="0.8" fill="none" stroke="#587863" stroke-width="2" stroke-miterlimit="10" d="M105.884,286.944h161.028
		c0,0,1.184,1.073,1.184,3.199s0,118.684,0,118.684s-97.356,6.852-160.463,2.834c0,0-1.682-116.255-2.139-118.386
		S103.638,286.944,105.884,286.944z"/>
	<path opacity="0.8" fill="none" stroke="#587863" stroke-width="2" stroke-miterlimit="10" d="M268.096,303.847
		c7.987-0.222,28.104,3.328,28.401,40.603c0.295,37.275-28.401,42.304-28.401,42.304"/>
	<path opacity="0.8" fill="none" stroke="#587863" stroke-width="2" stroke-miterlimit="10" d="M268.096,319.6
		c5.621,0.592,13.61,4.354,14.201,25.695c0.59,21.342-8.285,25.092-14.201,27.063"/>
	<path opacity="0.8" fill="none" stroke="#587863" stroke-width="2" stroke-miterlimit="10" d="M349.765,495.417h378.37
		c0,0,3.826,1.074,3.826,3.199c0,2.127,0,118.685,0,118.685s-182.336,9.217-386.369,5.199c0,0,2.337-35.202,0-63.034
		C343.218,531.2,342.503,495.417,349.765,495.417z"/>
	<path opacity="0.8" fill="none" stroke="#587863" stroke-width="2" stroke-miterlimit="10" d="M557.852,553.473
		c0,6.627-5.373,12-12,12h-10.546c-6.628,0-12-5.373-12-12v-14.974c0-6.627,5.372-12,12-12h10.546c6.627,0,12,5.373,12,12V553.473z"
		/>
	<path opacity="0.8" fill="none" stroke="#587863" stroke-width="2" stroke-miterlimit="10" d="M526.85,542
		c3.543,0,3.985-1.33,5.757,2.214s-1.621,8.857,2.29,10.187s14.982,3.544,14.54-2.214s1.329-10.231,4.872-10.431"/>
	<path opacity="0.8" fill="none" stroke="#587863" stroke-width="2" stroke-miterlimit="10" d="M537.952,541.756
		c3.229-5.297,8.223-0.198,7.86,4.23s-4.761,7.258-7.86,4.391S536.211,544.612,537.952,541.756z"/>
	
		<line opacity="0.8" fill="none" stroke="#587863" stroke-width="2" stroke-miterlimit="10" x1="343.944" y1="541.756" x2="523.306" y2="545.986"/>
	
		<line opacity="0.8" fill="none" stroke="#587863" stroke-width="2" stroke-miterlimit="10" x1="558.101" y1="545.127" x2="731.961" y2="539.496"/>
	<path opacity="0.8" fill="none" stroke="#587863" stroke-width="2" stroke-linejoin="round" stroke-miterlimit="10" d="
		M378.506,270.298l142.065-3.283c0,0,26.188,36.411,25.685,78.065c-0.502,41.654-21.536,62.33-21.536,62.33l-140.162,1.257
		c0,0-30.137-33.558-25.428-75.815S378.506,270.298,378.506,270.298z"/>
	<path opacity="0.8" fill="none" stroke="#587863" stroke-width="2" stroke-miterlimit="10" d="M538.619,300
		c7.987-0.222,32.712,5.436,33.009,42.71c0.295,37.275-33.009,44.604-33.009,44.604"/>
	<path opacity="0.8" fill="none" stroke="#587863" stroke-width="2" stroke-miterlimit="10" d="M543.228,317.86
		c5.621,0.592,13.61,4.354,14.201,25.695c0.59,21.342-8.285,25.092-14.201,27.063"/>
	<path opacity="0.8" fill="none" stroke="#587863" stroke-width="2" stroke-linejoin="round" stroke-miterlimit="10" d="
		M610.637,267.628c0.35-4.616-2.793-12.999,5.589-13.348s84.487,0,84.487,0l36.007-0.155c0,0,3.492-0.543,3.842,3.298
		s0,7.334,0,7.334"/>
	<path opacity="0.8" fill="none" stroke="#587863" stroke-width="2" stroke-linejoin="round" stroke-miterlimit="10" d="
		M607.843,267.628c2.794,0,132.369-2.171,134.465-2.521s2.445,0.151,2.445,2.521s-135.164,4.814-136.91,3.766
		S605.049,267.628,607.843,267.628z"/>
	<polyline opacity="0.8" fill="none" stroke="#587863" stroke-width="2" stroke-linejoin="round" stroke-miterlimit="10" points="
		610.341,271.644 610.341,408.667 740.717,408.056 740.717,268.361 	"/>
	<g opacity="0.8">
		<path fill="#587863" d="M656.559,319.63h-9.225v-3.33h22.454v3.33h-9.27v26.999h-3.96V319.63z"/>
		<path fill="#587863" d="M672.038,336.459c0.09,5.355,3.465,7.56,7.469,7.56c2.835,0,4.59-0.494,6.03-1.124l0.72,2.834
			c-1.395,0.631-3.824,1.396-7.289,1.396c-6.705,0-10.71-4.455-10.71-11.024c0-6.57,3.87-11.7,10.215-11.7
			c7.154,0,8.999,6.21,8.999,10.215c0,0.811-0.045,1.396-0.135,1.845H672.038z M683.647,333.624c0.045-2.475-1.035-6.39-5.49-6.39
			c-4.05,0-5.76,3.646-6.074,6.39H683.647z M684.547,315.445l-5.489,6.435h-2.79l3.96-6.435H684.547z"/>
	</g>
	<path opacity="0.8" fill="none" stroke="#587863" stroke-width="2" stroke-miterlimit="10" d="M174.5,508.5c0,0,58.5,19,102-0.5"/>
	<path opacity="0.8" fill="none" stroke="#587863" stroke-width="2" stroke-miterlimit="10" d="M276.5,508c0,0-10.5-23.5-49.5-23
		s-52.5,23.5-52.5,23.5s-11.345,4.385-17.926,20.373c-17.885-8.533-39.875-27.155-43.074-29.408C110,497,86.5,505,90.5,508
		c3.667,2.75,40.09,50.031,62.323,63.283C155.395,593.385,163,600,163,600s66.725,18.5,127.112,0
		C302.042,596.346,318,541.5,276.5,508z"/>
	<path opacity="0.8" fill="none" stroke="#587863" stroke-miterlimit="10" d="M215.529,485.852
		c-0.019-0.253-0.029-0.508-0.029-0.766c0-5.706,4.813-10.331,10.75-10.331S237,479.38,237,485.086c0,0.303,0.026,0.007,0,0.303"/>
	<path opacity="0.8" fill="none" stroke="#587863" stroke-width="2" stroke-miterlimit="10" d="M295.032,530.15
		c5.952-0.165,25.649,4.056,25.871,31.833c0.22,27.777-24.598,33.238-24.598,33.238"/>
	<path opacity="0.8" fill="none" stroke="#587863" stroke-width="2" stroke-miterlimit="10" d="M299.739,543.465
		c4.189,0.441,10.143,3.244,10.583,19.148c0.439,15.904-5.026,18.698-9.435,20.167"/>
</g>
</svg>
