<?xml version="1.0" encoding="utf-8"?>
<!-- Generator: Adobe Illustrator 15.0.0, SVG Export Plug-In . SVG Version: 6.00 Build 0)  -->
<!DOCTYPE svg PUBLIC "-//W3C//DTD SVG 1.1//EN" "http://www.w3.org/Graphics/SVG/1.1/DTD/svg11.dtd">
<svg version="1.1" xmlns="http://www.w3.org/2000/svg" xmlns:xlink="http://www.w3.org/1999/xlink" x="0px" y="0px" width="800px"
	 height="600px" viewBox="0 0 800 600" style="enable-background:new 0 0 800 600;" xml:space="preserve">
<style type="text/css">
<![CDATA[
	.st0{fill:#3A4C3A;stroke:#000000;stroke-miterlimit:10;}
	.st1{fill:#93D6E5;}
	.st2{opacity:0.2;}
	.st3{fill:#A1E5C7;}
]]>
</style>
<g id="Capa_1">
	<rect x="-19.5" y="-4.5" class="st0" width="828" height="618"/>
</g>
<g id="Capa_3">
	<g class="st2">
		<g>
			<path class="st1" d="M792.833,601.851c6.679-24.165,4.368-50.537,2.583-75.212c-2.158-29.833-4.273-59.649-5.876-89.521
				c-3.539-65.922-5.712-131.756-6.178-197.771c-0.293-41.567-0.621-83.143-2.668-124.668c-0.923-18.713-2.795-37.363-3.05-56.099
				c-0.203-14.916-0.508-30.929-8.61-44.001c-0.594-0.957-2.107-0.079-1.512,0.883c7.13,11.503,7.961,25.305,8.29,38.492
				c0.342,13.686,1.105,27.217,1.999,40.88c2.154,32.967,2.961,66.008,3.393,99.037c0.862,66.025,1.229,131.914,4.325,197.887
				c1.785,38.032,3.64,76.087,6.53,114.055c1.238,16.266,2.654,32.521,3.109,48.833c0.435,15.576,0.153,31.628-4.023,46.74
				C790.845,602.476,792.533,602.938,792.833,601.851L792.833,601.851z"/>
		</g>
	</g>
	<g class="st2">
		<g>
			<path class="st1" d="M767.247,14.146c-15.481,0.76-30.854,2.791-46.291,4.1c-16.059,1.362-32.152,1.039-48.251,1.077
				c-32.694,0.078-65.334,1.069-98.012,1.991c-65.718,1.853-131.492,2.654-197.232,1.743c-52.6-0.729-105.188-2.328-157.796-2.325
				c-26.231,0.001-52.463,0.448-78.672,1.568c-13.113,0.56-26.218,1.329-39.309,2.285c-12.807,0.935-25.728,2.964-38.561,2.964
				c-1.128,0-1.128,1.75,0,1.75c15.421,0,31.019-2.47,46.422-3.519c16.363-1.114,32.749-1.863,49.141-2.392
				c32.783-1.059,65.593-1.053,98.388-0.68c65.753,0.747,131.464,2.74,197.229,2.385c52.697-0.285,105.356-1.617,158.028-3.196
				c25.98-0.779,51.978-0.837,77.968-0.845c25.836-0.008,51.197-3.892,76.946-5.155C768.37,15.841,768.376,14.091,767.247,14.146
				L767.247,14.146z"/>
		</g>
	</g>
	<g class="st2">
		<g>
			<path class="st1" d="M57.969,28.579c-10.35-0.063-20.637-1.035-30.928-2.062c-0.353-0.035-0.787,0.291-0.844,0.643
				c-4.963,30.681,4.738,61.322,6.252,91.905c1.636,33.028,4.464,65.992,5.107,99.065c0.636,32.704-1.116,65.496-1.956,98.187
				c-0.843,32.811-1.478,65.629-1.339,98.451c0.158,37.286,1.438,74.61,4.443,111.78c1.514,18.716,3.83,37.597,2.566,56.393
				c-1.208,17.977-5.517,35.625-4.795,53.73c0.045,1.125,1.795,1.129,1.75,0c-0.621-15.577,2.337-30.923,4.103-46.335
				c1.833-16.006,0.765-32.037-0.542-48.042c-2.665-32.642-4.68-65.28-5.398-98.029c-1.437-65.504,1.183-131.007,2.776-196.482
				c1.03-42.346-2.652-84.489-4.863-126.737c-1.058-20.213-4.888-39.921-6.965-60.019c-1.084-10.495-1.228-21.071,0.247-31.533
				c0.295-2.095,13.094,0.049,14.922,0.191c5.147,0.401,10.302,0.613,15.464,0.645C59.098,30.336,59.097,28.586,57.969,28.579
				L57.969,28.579z"/>
		</g>
	</g>
	<g class="st2">
		<g>
			<path class="st1" d="M743.304,50.26c-55.451,15.703-114.784,5.857-171.211,2.315c-64.368-4.041-128.819-4.627-193.298-4.399
				c-96.247,0.341-191.571,17.402-287.836,17.517c-1.128,0.001-1.128,1.751,0,1.75c65.015-0.077,129.63-7.76,194.349-12.982
				c64.773-5.227,129.619-5.118,194.555-3.943c46.05,0.833,91.887,3.747,137.798,7.208c41.793,3.151,85.299,5.777,126.108-5.779
				C744.853,51.64,744.392,49.952,743.304,50.26L743.304,50.26z"/>
		</g>
	</g>
	<g class="st2">
		<g>
			<path class="st1" d="M737.538,52.933c-12.995,60.729-1.447,121.56,7.282,181.935c9.07,62.731,4.751,126.559,7.781,189.68
				c2.027,42.216,7.033,84.25,9.752,126.424c1.185,18.381,2.232,36.703,1.716,55.126c-0.188,6.704-0.317,13.424,0.176,20.118
				c0.295,3.996,0.646,8.954,3.414,12.105c0.747,0.849,1.979-0.394,1.238-1.238c-2.647-3.012-2.711-8.281-2.987-12.029
				c-0.403-5.471-0.279-10.984-0.156-16.463c0.29-12.827,0.213-25.564-0.464-38.389c-1.708-32.333-4.531-64.535-7.394-96.781
				c-2.847-32.075-4.43-64.133-4.89-96.328c-0.448-31.455-0.288-62.925-1.956-94.349c-2.01-37.9-9.513-74.89-14.012-112.498
				c-4.64-38.785-6.033-78.435,2.187-116.847C739.461,52.297,737.774,51.829,737.538,52.933L737.538,52.933z"/>
		</g>
	</g>
	<g class="st2">
		<g>
			<path class="st1" d="M88.022,66.567c0.07,131.846,14.031,263.156,17.005,394.909c0.833,36.929,1.4,74.104-0.845,110.992
				c-1.028,16.892-2.758,33.705-2.758,50.648c0,6.933,0,13.866,0,20.799c0,1.129,1.75,1.129,1.75,0c0-0.354,0-0.707,0-1.061
				c0-1.129-1.75-1.129-1.75,0c0,0.354,0,0.707,0,1.061c0,1.129,1.75,1.129,1.75,0c0-19.412,0.299-38.678,1.769-58.056
				c2.443-32.229,2.556-64.505,2.272-96.812c-0.577-65.759-4.466-131.434-8.385-197.06c-4.483-75.071-9.018-150.188-9.058-225.421
				C89.771,65.439,88.021,65.439,88.022,66.567L88.022,66.567z"/>
		</g>
	</g>
	<g class="st2">
		<g>
			<path class="st1" d="M745.365,226.548c-14.137,3.089-28.689-3.18-42.779-4.295c-15.571-1.232-31.331-1.118-46.927-0.538
				c-32.307,1.201-64.521,3.212-96.787,5.164c-65.346,3.952-131.229,7.015-196.704,5.724c-45.341-0.894-90.594-3.91-135.957-4.03
				c-21.997-0.059-43.989-0.735-65.985-0.284c-10.171,0.208-20.3,0.714-30.454,1.308c-10.924,0.638-21.958,0.637-32.395-3.047
				c-1.067-0.376-1.521,1.314-0.465,1.688c13.447,4.748,27.75,3.438,41.712,2.558c15.486-0.977,31.071-0.989,46.583-0.892
				c32.769,0.205,65.551,0.386,98.3,1.601c32.725,1.214,65.435,2.968,98.189,3.083c32.79,0.116,65.633-1.055,98.399-2.217
				c46.377-1.645,92.616-5.194,138.957-7.402c22.336-1.064,44.682-2.146,67.046-1.706c11.19,0.219,22.086,1.081,33.065,3.295
				c8.778,1.771,17.763,3.625,26.667,1.68C746.933,227.995,746.465,226.308,745.365,226.548L745.365,226.548z"/>
		</g>
	</g>
	<g class="st2">
		<g>
			<path class="st1" d="M750.521,275.002c-26.688,6.951-55.601,1.006-82.779,0.999c-31.829-0.009-63.3-1.298-95.024-3.716
				c-65.271-4.975-130.936-4.911-196.358-4.467c-93.064,0.631-185.959,7.255-279.019,8.184c-1.128,0.011-1.129,1.761,0,1.75
				c60.123-0.6,120.166-3.524,180.239-5.787c63.067-2.376,126.149-2.932,189.255-2.156c25.444,0.313,50.885,1.005,76.297,2.334
				c25.011,1.309,49.916,4.063,74.946,4.967c23.646,0.854,47.353-0.105,70.975,1.163c20.485,1.1,41.8,3.66,61.933-1.584
				C752.077,276.405,751.613,274.717,750.521,275.002L750.521,275.002z"/>
		</g>
	</g>
	<g class="st2">
		<g>
			<path class="st1" d="M760.031,472.909c-16.669,0.679-33.05-2.315-49.473-4.729c-15.432-2.269-30.993-2.947-46.572-3.237
				c-16.306-0.304-32.615-0.146-48.916-0.723c-16.326-0.578-32.623-1.526-48.961-1.884c-32.795-0.717-65.604-0.361-98.401-0.052
				c-32.897,0.312-65.798,0.239-98.693,0.751c-33.136,0.515-66.269,1.304-99.411,1.304c-21.226,0-42.434-1.103-63.643-0.188
				c-17.083,0.737-34.161,1.588-51.253,2.124c-14.167,0.443-28.797,1.378-42.915-0.334c-0.676-0.082-4.278-0.328-4.527-1.229
				c-0.104-0.375-0.454-0.643-0.844-0.643c-0.153,0-0.305,0-0.458,0c-1.128,0-1.128,1.75,0,1.75c0.153,0,0.305,0,0.458,0
				c1.128,0,1.128-1.75,0-1.75c-0.153,0-0.305,0-0.458,0c-1.128,0-1.128,1.75,0,1.75c0.565,0-0.894-0.817,0.023,0.109
				c0.29,0.293,0.626,0.5,0.998,0.676c1.332,0.629,2.881,0.831,4.325,1.021c5.743,0.76,11.588,0.79,17.371,0.827
				c17.399,0.113,34.81-0.677,52.188-1.43c13.406-0.581,26.833-1.493,40.253-1.64c15.476-0.17,31.007,0.672,46.494,0.702
				c16.569,0.033,33.138-0.163,49.706-0.417c65.875-1.012,131.75-1.781,197.634-1.981c32.768-0.1,65.428,0.788,98.158,2.204
				c32.983,1.428,66.075-0.568,98.852,4.25c15.963,2.346,31.862,5.177,48.066,4.517C761.155,474.613,761.16,472.863,760.031,472.909
				L760.031,472.909z"/>
		</g>
	</g>
	<g class="st2">
		<g>
			<path class="st1" d="M748.458,495.62c-25.69,8.992-54.457,4.146-81.075,4.089c-32.355-0.069-64.594-3.56-96.935-4.178
				c-32.696-0.626-65.55,1.479-98.22,2.648c-32.801,1.175-65.604,2.328-98.418,3.012c-46.474,0.968-92.99,0.733-139.47,0.327
				c-22.352-0.195-44.749-1.203-67.097-0.902c-20.667,0.278-40.999,1.573-61.501-1.972c-1.103-0.19-1.576,1.495-0.465,1.688
				c27.805,4.808,56.236,1.696,84.297,2.289c32.545,0.688,65.098,0.843,97.649,0.889c65.662,0.092,131.195-1.659,196.811-4.003
				c23.549-0.841,47.109-1.819,70.67-2.25c24.083-0.439,48.145,1.346,72.171,2.727c21.514,1.236,43.028,1.284,64.553,2.087
				c19.077,0.712,39.198,1.642,57.495-4.763C749.98,496.938,749.525,495.246,748.458,495.62L748.458,495.62z"/>
		</g>
	</g>
	<g class="st2">
		<g>
			<path class="st3" d="M186.671,131.181c2.746,13.322,3.489,27.136,3.529,40.715c0.003,1.128,1.753,1.129,1.75,0
				c-0.041-13.738-0.813-27.7-3.592-41.18C188.131,129.611,186.444,130.08,186.671,131.181L186.671,131.181z"/>
		</g>
	</g>
	<g class="st2">
		<g>
			<path class="st3" d="M200.868,131.854c-9.753,1.042-19.34,4.106-29.143,1.812c-1.098-0.257-1.563,1.43-0.465,1.688
				c10.007,2.343,19.649-0.686,29.608-1.749C201.978,133.485,201.989,131.734,200.868,131.854L200.868,131.854z"/>
		</g>
	</g>
	<g class="st2">
		<g>
			<path class="st3" d="M199.745,155.827c4.808,0.811,9.369-0.843,12.423-4.676c0.366-0.459,0.325-1.031-0.177-1.374
				c-2.834-1.941-7.635-4.792-10.762-1.819c-2.303,2.189-1.875,6.274-1.206,9.038c0.686,2.833,2.213,6.286,5.111,7.428
				c3.826,1.508,6.245-3.897,7.258-6.538c0.405-1.055-1.288-1.507-1.688-0.465c-0.661,1.723-2.494,6.501-5.203,5.273
				c-2.19-0.992-3.242-4.033-3.792-6.164c-0.556-2.157-0.956-5.36,0.632-7.206c2.211-2.569,6.828,0.636,8.765,1.962
				c-0.059-0.458-0.118-0.916-0.177-1.374c-2.643,3.316-6.502,4.937-10.721,4.226C199.106,153.954,198.634,155.64,199.745,155.827
				L199.745,155.827z"/>
		</g>
	</g>
	<g class="st2">
		<g>
			<path class="st3" d="M206.162,143.643c1.093-3.167,2.783-6.1,5.116-8.515c0.784-0.812-0.452-2.05-1.237-1.237
				c-2.546,2.636-4.374,5.833-5.566,9.288C204.105,144.248,205.796,144.703,206.162,143.643L206.162,143.643z"/>
		</g>
	</g>
	<g class="st2">
		<g>
			<path class="st3" d="M289.733,72.753c0.08,50.439,6.249,100.529,12.371,150.516c0.135,1.105,1.887,1.119,1.75,0
				c-6.122-49.986-12.291-100.077-12.371-150.516C291.481,71.625,289.731,71.625,289.733,72.753L289.733,72.753z"/>
		</g>
	</g>
	<g class="st2">
		<g>
			<path class="st3" d="M288.336,75.805c-26.06-5.152-52.57,0.323-78.837-1.137c-10.047-0.558-20.068-1.461-30.141-1.348
				c-7.856,0.088-16.69,0.595-23.58,4.779c-6.06,3.68-8.042,11.743-9.18,18.213c-1.761,10.014-1.443,20.401-0.983,30.512
				c1.103,24.212,2.879,48.411,5.243,72.526c1.079,11,1.904,22.018,1.955,33.076c0.002,0.5,0.397,0.844,0.875,0.875
				c25.042,1.61,50.12-1.128,75.066-3.06c26.639-2.064,53.117-6.567,79.823-7.622c0.361-0.014,0.776-0.253,0.844-0.643
				c1.904-11.001-0.702-22.577-2.67-33.401c-0.202-1.109-1.888-0.638-1.688,0.465c1.193,6.561,2.348,13.121,2.955,19.768
				c0.274,3.002,0.323,6.012,0.178,9.021c-0.229,4.751-7.804,3.447-11.306,3.703c-15.953,1.166-31.792,3.549-47.691,5.241
				c-15.095,1.606-30.293,2.557-45.431,3.698c-14.96,1.127-29.971,1.934-44.975,1.361c-1.055-0.04-4.23,0.537-4.239-1.373
				c-0.009-1.96-0.07-3.919-0.129-5.877c-0.118-3.898-0.367-7.792-0.64-11.681c-0.589-8.398-1.495-16.774-2.336-25.149
				c-1.277-12.708-1.796-25.396-2.596-38.128c-1.235-19.672-5.054-41.956,1.478-61.043c3.408-9.958,12.354-12.289,21.931-13.174
				c10.502-0.971,21.168-0.037,31.658,0.659c27.889,1.851,56.359-4.029,83.951,1.426C288.974,77.71,289.443,76.024,288.336,75.805
				L288.336,75.805z"/>
		</g>
	</g>
	<g class="st2">
		<g>
			<path class="st3" d="M544.749,160.126c0.443-0.672-0.85-0.227-1.682-0.201c-1.755,0.054-3.511,0.049-5.266,0.048
				c-5.598-0.005-11.195-0.111-16.792-0.223c-13.864-0.276-27.728-0.68-41.585-1.2c-39.514-1.483-78.857-7.193-118.456-6.074
				c-0.366,0.01-0.77,0.257-0.844,0.643c-2.109,11.063-0.311,22.383,1.672,33.331c2.667,14.733,6.184,29.281,7.575,44.221
				c0.034,0.367,0.239,0.767,0.643,0.844c29.184,5.541,58.839-1.735,88.214-0.867c27.64,0.817,57.431,6.456,84.075-3.826
				c15.116-5.833,14.409-20.248,13.016-34.082c-0.891-8.854-0.03-18.179-1.812-26.894c-1.425-6.975-6.821-9.058-13.374-8.14
				c-1.404,0.196-2.779,0.605-4.141,0.987c-1.085,0.304-0.624,1.993,0.465,1.688c4.779-1.339,10.896-2.631,14.03,2.296
				c2.376,3.737,2.068,9.212,2.139,13.456c0.157,9.533,1.613,18.95,1.736,28.47c0.099,7.657-1.801,14.441-8.614,18.625
				c-10.086,6.194-24.813,7.156-36.197,7.695c-15.842,0.75-31.714-1.117-47.521-1.874c-15.14-0.724-30.125,0.532-45.206,1.706
				c-7.261,0.565-14.527,0.999-21.811,1.088c-3.125,0.039-23.726,0.609-24.062-3.001c-1.346-14.451-4.814-28.616-7.467-42.856
				c-1.159-6.219-2.089-12.477-2.47-18.794c-0.172-2.854-0.114-5.71,0.082-8.56c0.099-1.431-0.387-4.397,1.777-4.458
				c1.908-0.054,3.817-0.075,5.726-0.096c14.781-0.166,29.563,0.669,44.303,1.703c20.128,1.411,40.222,3.413,60.385,4.276
				c15.569,0.667,31.15,1.099,46.73,1.425c6.345,0.133,12.692,0.249,19.04,0.243c1.375-0.001,6.24,0.745,7.203-0.714
				C546.884,160.064,545.368,159.188,544.749,160.126L544.749,160.126z"/>
		</g>
	</g>
	<g class="st2">
		<g>
			<path class="st3" d="M475.558,73.969c-0.063,28.266-3.03,56.425-3.093,84.691c-0.003,1.128,1.747,1.128,1.75,0
				c0.063-28.266,3.03-56.425,3.093-84.691C477.311,72.841,475.561,72.841,475.558,73.969L475.558,73.969z"/>
		</g>
	</g>
	<g class="st2">
		<g>
			<path class="st3" d="M479.525,74.125c-8.591,0-17.182,0-25.772,0c-0.491,0-0.856,0.398-0.875,0.875
				c-0.968,24.658,2.015,49.631-3.062,73.994c-0.229,1.101,1.457,1.569,1.688,0.465c3.256-15.629,3.243-31.602,3.042-47.496
				c-0.106-8.409-0.249-16.815,0.014-25.223c0.053-1.699,22.44-0.865,24.966-0.865C480.654,75.875,480.654,74.125,479.525,74.125
				L479.525,74.125z"/>
		</g>
	</g>
	<g class="st2">
		<g>
			<path class="st3" d="M448.754,150.258c0.001,2.035,0.255,3.75,1.15,5.596c0.493,1.016,2.002,0.128,1.512-0.883
				c-0.758-1.562-0.911-3.001-0.912-4.713C450.503,149.129,448.753,149.129,448.754,150.258L448.754,150.258z"/>
		</g>
	</g>
	<g class="st2">
		<g>
			<path class="st3" d="M455.814,82.373c-13.113,1.062-14.205,20.812-14.947,30.486c-0.68,8.858-0.606,17.767-0.578,26.645
				c0.022,6.902,0.493,14.163-0.782,20.986c-0.206,1.103,1.48,1.573,1.688,0.465c2.453-13.125,0.592-27.324,1.028-40.612
				c0.308-9.361-0.068-35.114,13.592-36.22C456.932,84.032,456.94,82.281,455.814,82.373L455.814,82.373z"/>
		</g>
	</g>
	<g class="st2">
		<g>
			<path class="st3" d="M443.443,84.435c-12.285-1.626-14.246,19.256-15.193,27.183c-1.821,15.236-1.18,30.56-1.146,45.857
				c0.003,1.128,1.753,1.128,1.75,0c-0.028-12.89-0.424-25.737,0.474-38.614c0.53-7.61,1.438-34.354,14.115-32.676
				C444.56,86.333,444.545,84.581,443.443,84.435L443.443,84.435z"/>
		</g>
	</g>
	<g class="st2">
		<g>
			<path class="st3" d="M433.134,84.435c-11.107-0.276-13.186,20.185-14.143,27.598c-1.91,14.787-2.925,31.015-0.104,45.768
				c0.212,1.108,1.898,0.638,1.688-0.465c-2.4-12.553-1.669-26.162-0.557-38.806c0.64-7.277,1.715-14.604,3.922-21.584
				c1.316-4.162,3.866-10.893,9.193-10.76C434.263,86.213,434.26,84.462,433.134,84.435L433.134,84.435z"/>
		</g>
	</g>
	<g class="st2">
		<g>
			<path class="st3" d="M427.747,84.466c-29.65,4.771-22.672,40.975-24.354,62.699c-0.087,1.126,1.663,1.118,1.75,0
				c1.619-20.909-5.479-56.417,23.069-61.012C429.324,85.975,428.851,84.288,427.747,84.466L427.747,84.466z"/>
		</g>
	</g>
	<g class="st2">
		<g>
			<path class="st3" d="M412.702,83.015c-0.408,2.911-5.996,3.699-8.223,4.617c-2.287,0.943-4.288,2.328-5.749,4.317
				c-3.74,5.092-5.53,11.62-6.836,17.696c-2.771,12.893-2.741,26.48-1.903,39.582c0.072,1.121,1.822,1.127,1.75,0
				c-0.861-13.469-0.717-27.217,2.129-40.457c1.438-6.694,3.798-15.302,10.089-18.961c3.05-1.774,9.812-1.92,10.431-6.33
				C414.545,82.377,412.858,81.901,412.702,83.015L412.702,83.015z"/>
		</g>
	</g>
	<g class="st2">
		<g>
			<path class="st3" d="M403.678,85.585c-33.44-21.376-23.066,57.121-22.965,71.137c0.008,1.128,1.758,1.129,1.75,0
				c-0.105-14.573-2.284-28.987-1.756-43.619c0.288-7.975,0.864-16.858,4.688-24.042c3.985-7.488,11.27-5.885,17.401-1.966
				C403.749,87.706,404.625,86.19,403.678,85.585L403.678,85.585z"/>
		</g>
	</g>
	<g class="st2">
		<g>
			<path class="st3" d="M476.433,91.339c4.748,0.23,6.2,8.027,7.009,11.555c1.726,7.528,2.202,15.366,2.602,23.057
				c0.636,12.25-0.258,24.687,0.855,36.894c0.102,1.114,1.853,1.124,1.75,0c-1.305-14.305-0.209-28.836-1.243-43.189
				c-0.524-7.267-1.262-14.734-3.485-21.706c-1.136-3.559-3.198-8.153-7.487-8.361C475.304,89.535,475.31,91.285,476.433,91.339
				L476.433,91.339z"/>
		</g>
	</g>
	<g class="st2">
		<g>
			<path class="st3" d="M484.062,91.083c21.761,18.524,8.742,49.023,14.208,73.273c0.248,1.101,1.936,0.634,1.688-0.465
				c-5.568-24.702,7.583-55.113-14.657-74.046C484.445,89.119,483.201,90.351,484.062,91.083L484.062,91.083z"/>
		</g>
	</g>
	<g class="st2">
		<g>
			<path class="st3" d="M489.423,97.269c13.554-13.782,18.045,13.859,19.399,22.729c2.159,14.143,2.808,28.613,2.818,42.91
				c0.001,1.128,1.751,1.128,1.75,0c-0.013-16.517-0.828-33.306-3.938-49.552c-1.271-6.645-2.918-15.02-8.005-19.94
				c-4.385-4.24-9.745-0.961-13.263,2.615C487.394,96.836,488.63,98.074,489.423,97.269L489.423,97.269z"/>
		</g>
	</g>
	<g class="st2">
		<g>
			<path class="st3" d="M499.346,97.494c25.283-10.542,19.552,52.88,19.511,65.29c-0.004,1.129,1.746,1.128,1.75,0
				c0.043-13.006,6.151-78.602-21.726-66.978C497.854,96.234,498.305,97.928,499.346,97.494L499.346,97.494z"/>
		</g>
	</g>
	<g class="st2">
		<g>
			<path class="st3" d="M505.023,104.308c2.266-3.536,5.043-6.208,8.732-8.225c1.984-1.085,4.138-2.23,5.522-0.072
				c0.9,1.403,1.665,2.892,2.415,4.379c3.262,6.47,5.091,13.653,6.43,20.737c2.627,13.903,2.85,28.872,0.043,42.765
				c-0.223,1.102,1.464,1.571,1.688,0.465c2.407-11.915,2.424-24.245,1.063-36.289c-1.372-12.143-4.482-24.747-11.459-34.952
				c-0.235-0.344-0.579-0.487-0.988-0.402c-6.467,1.34-11.428,5.203-14.957,10.711C502.901,104.378,504.416,105.254,505.023,104.308
				L505.023,104.308z"/>
		</g>
	</g>
	<g class="st2">
		<g>
			<path class="st3" d="M287.866,348.672c-11.097-0.584-22.194-1.158-33.299-1.565c-10.513-0.386-21.107-0.018-31.596-0.771
				c-14.22-1.022-31.833-5.62-44.825,2.456c-0.515,0.32-0.623,1.22,0,1.512c21.678,10.164,47.294,7.704,70.384,5.339
				c12.592-1.29,25.146-2.968,37.781-3.81c2.733-0.183,5.47-0.29,8.208-0.354c3.087-0.072,1.749,6.165,1.746,8.488
				c-0.01,8.222-0.068,16.443-0.222,24.663c-0.297,15.83-1.093,31.654-2.866,47.392c-1.143,10.147-3.428,19.941-12.453,25.92
				c-8.084,5.355-18.904,6.177-28.269,7.004c-11.334,1.001-22.62,1.805-34.001,1.104c-13.505-0.831-29.613-3.935-38.844-14.769
				c-8.387-9.845-9.749-25.318-10.749-37.615c-1.044-12.825-0.766-25.705-1.48-38.545c-0.735-13.228-3.819-31.416,8.557-40.281
				c0.909-0.651,0.037-2.17-0.883-1.512c-8.349,5.98-10.029,15.311-10.055,25.025c-0.025,9.751,0.84,19.493,1.072,29.241
				c0.464,19.527-0.422,41.803,8.799,59.646c9.569,18.516,35.233,20.832,53.612,20.866c10.939,0.021,22.052-0.932,32.891-2.38
				c7.899-1.056,16.024-2.909,22.454-7.861c11.117-8.562,11.122-24.471,12.222-37.119c2.029-23.321,1.97-46.779,1.97-70.169
				c0-0.476-0.398-0.877-0.875-0.875c-19.44,0.097-38.741,3.408-58.074,5.09c-19.841,1.727-41.563,2.663-60.041-6.001
				c0,0.504,0,1.008,0,1.512c13.26-8.243,31.948-2.927,46.493-2.049c9.642,0.582,19.384,0.267,29.045,0.603
				c11.105,0.386,22.203,0.981,33.299,1.565C288.994,350.481,288.988,348.73,287.866,348.672L287.866,348.672z"/>
		</g>
	</g>
	<g class="st2">
		<g>
			<path class="st3" d="M299.206,374.133c13.216,0.799,17.183,14.058,15.453,25.359c-1.854,12.114-10.579,23.617-23.701,23.406
				c-1.129-0.019-1.127,1.731,0,1.75c14.424,0.231,23.505-12.387,25.521-25.563c1.883-12.303-3.425-25.866-17.274-26.703
				C298.078,372.314,298.085,374.065,299.206,374.133L299.206,374.133z"/>
		</g>
	</g>
	<g class="st2">
		<g>
			<path class="st3" d="M293.61,383.292c8.635,5.122,22.767,27.887,5.364,30.359c-1.114,0.158-0.638,1.845,0.465,1.688
				c19.304-2.743,4.884-27.728-4.946-33.559C293.52,381.203,292.64,382.717,293.61,383.292L293.61,383.292z"/>
		</g>
	</g>
	<g class="st2">
		<g>
			<path class="st3" d="M499.438,343.291c-23.755-7.201-49.557-4.33-74.004-7.094c-15.322-1.732-40.111-6.342-50.695,8.526
				c-0.29,0.406-0.054,0.949,0.314,1.197c6.893,4.651,15.477,5.471,23.58,5.654c10.552,0.239,21.09-1.164,31.589-2.005
				c27.03-2.165,54.254,2.638,81.354,1.625c0.452-0.017,0.907-0.386,0.875-0.875c-0.329-5.082-3.43-5.996-7.65-7.973
				c-1.016-0.476-1.904,1.033-0.883,1.512c1.911,0.895,4.048,1.531,5.687,2.906c3.896,3.268-3.412,2.841-3.869,2.851
				c-1.936,0.04-3.871,0.038-5.806,0.037c-7.015-0.003-14.028-0.309-21.033-0.654c-13.845-0.686-27.739-1.889-41.612-1.584
				c-9.643,0.211-19.247,1.625-28.873,2.184c-10.122,0.588-21.519,0.886-30.699-4.056c-2.93-1.577,7.017-6.514,8.595-7.079
				c4.309-1.545,8.988-1.965,13.527-2.164c9.269-0.405,18.56,0.861,27.75,1.889c23.62,2.642,48.422-0.173,71.389,6.79
				C500.057,345.307,500.516,343.617,499.438,343.291L499.438,343.291z"/>
		</g>
	</g>
	<g class="st2">
		<g>
			<path class="st3" d="M377.744,341.84c-6.171,23.884-11.903,49.229-6.896,73.865c4.417,21.732,19.343,35.697,39.425,43.595
				c19.085,7.504,41.319,9.358,60.421,1.153c19.353-8.313,30.943-26.699,35.649-46.583c2.849-12.036,4.132-24.991,5.068-37.31
				c0.689-9.064,2.42-23.57-4.37-30.983c-0.765-0.833-1.998,0.407-1.238,1.238c5.927,6.469,4.459,19.19,4.025,27.191
				c-0.508,9.376-2.195,18.554-3.251,27.859c-2.615,23.06-12.905,44.953-34.302,55.917c-20.774,10.646-46.956,6.804-67.414-2.686
				c-9.901-4.593-19.09-11.379-24.937-20.72c-7.219-11.53-9.244-25.571-9.229-38.93c0.02-17.999,4.257-35.815,8.735-53.144
				C379.714,341.211,378.026,340.748,377.744,341.84L377.744,341.84z"/>
		</g>
	</g>
	<g class="st2">
		<g>
			<path class="st3" d="M505.804,404.34c-1.006,0.789-2.633,2.178-1.142,3.323c1.496,1.15,5.6-0.552,7.039-0.967
				c7.757-2.236,16.476-4.808,20.379-12.322c5.129-9.873,3.151-22.241-5.112-29.694c-8.81-7.946-20.884-5.144-29.412,1.516
				c-0.889,0.694,0.359,1.924,1.238,1.238c8.104-6.328,18.484-8.358,26.937-1.517c7.497,6.069,8.824,16.563,5.85,25.226
				c-2.492,7.254-7.735,9.313-14.404,11.859c-2.67,1.019-5.396,1.904-8.164,2.614c-1.002,0.257-2.023,0.472-3.058,0.533
				c-0.526-0.14-0.581,0.043-0.163,0.549c0.215-0.431,0.891-0.838,1.251-1.12C507.929,404.882,506.682,403.652,505.804,404.34
				L505.804,404.34z"/>
		</g>
	</g>
	<g class="st2">
		<g>
			<path class="st3" d="M504.802,370.663c9.483-7.295,16.942,0.865,17.538,10.866c0.786,13.166-9.859,20.354-22.103,19.462
				c-1.127-0.082-1.118,1.669,0,1.75c14.021,1.021,25.046-7.952,23.754-22.544c-0.975-11.019-10.24-18.608-20.072-11.046
				C503.037,369.829,503.907,371.351,504.802,370.663L504.802,370.663z"/>
		</g>
	</g>
	<g class="st2">
		<g>
			<path class="st3" d="M690.727,344.321c-12.89,5.34-26.956,6.668-40.774,7.189c-12.856,0.486-26.107,0.703-38.951-0.156
				c-10.809-0.724-21.48-3.108-32.26-4.197c-8.705-0.88-19.796-1.873-27.399,3.438c-0.797,0.557-0.326,1.853,0.674,1.6
				c22.771-5.751,46.411-7.867,69.847-8.207c23.343-0.338,47.255,1.168,69.895,7.177c1.092,0.29,1.555-1.398,0.465-1.688
				c-22.314-5.923-45.763-7.391-68.765-7.255c-24.079,0.142-48.519,2.379-71.906,8.285c0.225,0.533,0.449,1.066,0.674,1.6
				c8.357-5.837,21.035-3.863,30.51-2.767c10.342,1.197,20.646,3.566,31.073,3.907c13.085,0.428,26.315,0.46,39.394-0.119
				c12.866-0.569,26.012-2.156,37.99-7.119C692.219,345.583,691.769,343.89,690.727,344.321L690.727,344.321z"/>
		</g>
	</g>
	<g class="st2">
		<g>
			<path class="st3" d="M546.188,345.921c30.235,22.482,12.895,64.864,25.533,95.13c5.999,14.366,19.936,21.693,34.809,23.64
				c17.598,2.303,37.274,2.043,54.151-3.952c8.912-3.166,15.546-8.762,16.606-18.557c0.771-7.116-1.192-14.582-2.287-21.565
				c-1.436-9.164-0.299-18.389,2.24-27.266c2.106-7.364,5.791-13.403,10.555-19.269c3.744-4.61,7.481-9.253,10.282-14.516
				c2.054-3.859,3.287-8.187,2.277-12.521c-1.224-5.252-6.675-8.118-11.226-9.94c-1.049-0.42-1.499,1.273-0.465,1.688
				c5.463,2.188,10.414,5.543,10.344,11.979c-0.054,4.9-3.222,9.642-5.876,13.536c-5.218,7.659-11.977,13.878-15.474,22.639
				c-4.328,10.84-6.033,22.57-4.346,34.135c1.541,10.559,5.799,24.059-3.197,32.443c-6.405,5.97-16.516,7.844-24.846,9.138
				c-9.852,1.53-19.964,1.694-29.902,1.124c-17.547-1.008-35.015-6.57-42.305-24.027c-6.679-15.995-4.636-34.753-5.951-51.665
				c-1.31-16.832-5.932-33.193-20.041-43.685C546.164,343.735,545.293,345.256,546.188,345.921L546.188,345.921z"/>
		</g>
	</g>
	<g class="st2">
		<g>
			<path class="st3" d="M667.659,409.702c5.861,5.91,13.497,8.772,21.123,4.354c7.305-4.232,11.758-12.872,14.197-20.64
				c1.851-5.894,3.563-14.981-0.799-20.26c-5.544-6.711-15.64-0.478-20.941,3.211c-0.919,0.64-0.046,2.157,0.883,1.512
				c4.625-3.218,14.601-9.798,19.145-3.01c3.461,5.171,1.534,13.277-0.167,18.693c-2.186,6.961-6.192,14.113-12.264,18.381
				c-6.96,4.894-14.402,2.104-19.938-3.48C668.102,407.662,666.864,408.899,667.659,409.702L667.659,409.702z"/>
		</g>
	</g>
	<g class="st2">
		<g>
			<path class="st3" d="M678.588,379.03c11.16,0.753,12.249,10.167,8.147,18.774c-3.706,7.78-11.499,15.294-20.519,15.558
				c-1.126,0.033-1.129,1.783,0,1.75c10.815-0.316,19.419-9.677,23.215-19.131c3.842-9.569-0.262-17.987-10.844-18.701
				C677.461,377.204,677.468,378.955,678.588,379.03L678.588,379.03z"/>
		</g>
	</g>
</g>
</svg>
