<svg xmlns="http://www.w3.org/2000/svg" width="904.95" height="640.223" viewBox="0 0 904.95 640.223"><path fill="#195B45" d="M-49.737-3.68H978.975V692.5H-49.737z"/><path opacity=".8" fill="none" stroke="#587863" stroke-width="2" stroke-miterlimit="10" enable-background="new" d="M828.342 95.3c-3.156-6.202.158-7.8-14.957-7.578-15.113.222-716.885-1.222-725.58 0-8.693 1.222-8.888 11.593-11.05 20.278-3.472 13.94 8.356 560.47 8.356 560.47l28.39 20.03-1.552-168.218c72.854-.624 599.265-5.132 687.68-5.934-1.108 94.886-2.02 169.15-2.02 169.15l30.733-15.03c.002.003 3.16-566.968.002-573.17zM118.5 116.5c14 1 677.917-6.444 677.917-6.444s6.084-3.288 7.084 4.078c.325 2.397-.185 63.552-1.02 144.952-83.38-1.006-616.57 5.065-692.886 5.945l-1.317-142.53s-3.777-7 10.223-6zm-6.923 363.575l-1.613-174.85c58.936-.503 605.947-5.187 692.093-5.97-.598 55.868-1.295 117.577-1.96 174.9-85.845-.926-601.964 4.926-688.52 5.92z"/><g><path opacity=".8" fill="none" stroke="#587863" stroke-width="2" stroke-miterlimit="10" enable-background="new" d="M218.262 141.407l157.446-3.5s2.51-1.28 2.904 5.446c.42 7.13-.295 95.39-.295 95.39s5.202 23.292-53.504 23.918-86.863 0-86.863 0-31.855-3.484-34.464-27.622c-2.61-24.138 0-86.67 0-86.67s-.03-6.632 14.776-6.96zM378.745 155.5c2.73-.58 30.063-8.916 41.307 15.315 11.244 24.23-12.988 41.333-16.284 47.516s-9.305 14.907-16.478 15.876c-7.173.97-8.546.775-8.546.775M379.342 222.303c3.683-1.085 22.487-22.885 27.333-27.978s9.112-24.672-8.53-27.386-19.4 8.916-19.4 8.916"/><path opacity=".8" fill="none" stroke="#587863" stroke-width="2" stroke-miterlimit="10" enable-background="new" d="M526.372 133.443h117.03s1.183 1.073 1.183 3.2v118.683s-53.355 6.852-116.463 2.834c0 0-1.682-116.255-2.14-118.385s-1.857-6.332.39-6.332zM644.584 150.345c7.986-.22 28.104 3.33 28.4 40.604.295 37.274-28.4 42.303-28.4 42.303M644.584 166.1c5.62.59 13.61 4.353 14.2 25.695.59 21.342-8.284 25.092-14.2 27.063"/><path opacity=".8" fill="none" stroke="#587863" stroke-width="2" stroke-miterlimit="10" enable-background="new" d="M151.884 352.943h161.028s1.184 1.074 1.184 3.2v118.684s-97.356 6.852-160.463 2.834c0 0-1.682-116.254-2.14-118.385s-1.855-6.332.39-6.332zM314.096 369.848c7.987-.223 28.104 3.327 28.4 40.603.296 37.275-28.4 42.305-28.4 42.305M314.096 385.6c5.62.593 13.61 4.354 14.2 25.695.59 21.342-8.284 25.092-14.2 27.063"/><path opacity=".8" fill="none" stroke="#587863" stroke-width="2" stroke-miterlimit="10" enable-background="new" d="M395.765 561.417h378.37s3.826 1.074 3.826 3.2V683.3s-182.335 9.218-386.37 5.2c0 0 2.338-35.202 0-63.034-2.372-28.266-3.087-64.05 4.175-64.05zM603.852 619.473c0 6.627-5.373 12-12 12h-10.547c-6.627 0-12-5.373-12-12V604.5c0-6.628 5.373-12 12-12h10.547c6.627 0 12 5.372 12 12v14.973zM572.85 608c3.543 0 3.984-1.33 5.758 2.214 1.77 3.544-1.62 8.857 2.29 10.188s14.98 3.544 14.538-2.214c-.44-5.76 1.33-10.23 4.873-10.432"/><path opacity=".8" fill="none" stroke="#587863" stroke-width="2" stroke-miterlimit="10" enable-background="new" d="M583.952 607.756c3.23-5.297 8.223-.198 7.86 4.23-.362 4.428-4.76 7.258-7.86 4.39-3.098-2.866-1.74-5.764 0-8.62zM389.944 607.756l179.36 4.23M604.1 611.127l173.86-5.63"/><path opacity=".8" fill="none" stroke="#587863" stroke-width="2" stroke-linejoin="round" stroke-miterlimit="10" enable-background="new" d="M424.506 336.298l142.065-3.282s26.19 36.41 25.687 78.064-21.537 62.33-21.537 62.33l-140.16 1.257s-30.138-33.558-25.43-75.815c4.71-42.256 19.376-62.554 19.376-62.554z"/><path opacity=".8" fill="none" stroke="#587863" stroke-width="2" stroke-miterlimit="10" enable-background="new" d="M584.62 366c7.986-.223 32.71 5.436 33.008 42.71.295 37.275-33.008 44.604-33.008 44.604M589.23 383.86c5.618.592 13.608 4.354 14.198 25.694.592 21.343-8.283 25.093-14.2 27.063"/><path opacity=".8" fill="none" stroke="#587863" stroke-width="2" stroke-linejoin="round" stroke-miterlimit="10" enable-background="new" d="M656.637 333.628c.35-4.616-2.793-13 5.588-13.35 8.383-.347 84.488 0 84.488 0l36.006-.153s3.49-.543 3.843 3.298c.35 3.84 0 7.334 0 7.334"/><path opacity=".8" fill="none" stroke="#587863" stroke-width="2" stroke-linejoin="round" stroke-miterlimit="10" enable-background="new" d="M653.842 333.628c2.795 0 132.37-2.17 134.465-2.52 2.098-.352 2.445.15 2.445 2.52s-135.164 4.813-136.91 3.767c-1.746-1.05-2.793-3.767 0-3.767zM656.34 337.645v137.022l130.377-.61V334.36"/><g opacity=".8" fill="#587863"><path d="M702.56 385.63h-9.226v-3.33h22.453v3.33h-9.27v27h-3.96v-27h.002zM718.038 402.46c.09 5.354 3.465 7.56 7.47 7.56 2.835 0 4.59-.494 6.03-1.125l.72 2.835c-1.396.63-3.825 1.396-7.29 1.396-6.705 0-10.71-4.455-10.71-11.024s3.87-11.7 10.216-11.7c7.154 0 8.998 6.21 8.998 10.216 0 .81-.045 1.396-.135 1.845h-15.3v-.004zm11.61-2.836c.044-2.475-1.036-6.39-5.49-6.39-4.05 0-5.76 3.646-6.075 6.39h11.564zm.9-18.18l-5.49 6.436h-2.79l3.96-6.435h4.32z"/></g><path opacity=".8" fill="none" stroke="#587863" stroke-width="2" stroke-miterlimit="10" enable-background="new" d="M220.5 574.5s58.5 19 102-.5"/><path opacity=".8" fill="none" stroke="#587863" stroke-width="2" stroke-miterlimit="10" enable-background="new" d="M322.5 574S312 550.5 273 551s-52.5 23.5-52.5 23.5-11.345 4.385-17.926 20.373c-17.885-8.533-39.875-27.155-43.074-29.408-3.5-2.465-27 5.535-23 8.535 3.667 2.75 40.09 50.03 62.323 63.283C201.395 659.385 209 666 209 666s66.725 18.5 127.112 0c11.93-3.654 27.888-58.5-13.612-92z"/><path opacity=".8" fill="none" stroke="#587863" stroke-miterlimit="10" enable-background="new" d="M261.53 551.852c-.02-.253-.03-.508-.03-.766 0-5.706 4.813-10.33 10.75-10.33S283 545.38 283 551.085c0 .303.026.007 0 .303"/><path opacity=".8" fill="none" stroke="#587863" stroke-width="2" stroke-miterlimit="10" enable-background="new" d="M341.032 596.15c5.952-.165 25.65 4.056 25.87 31.833.22 27.776-24.597 33.237-24.597 33.237M345.74 609.465c4.188.44 10.142 3.244 10.582 19.148.44 15.903-5.026 18.697-9.435 20.167"/></g></svg>