<svg xmlns="http://www.w3.org/2000/svg" xmlns:xlink="http://www.w3.org/1999/xlink" version="1.1" x="0px" y="0px" width="904.95px" height="640.223px" viewBox="0 0 904.95 640.223" enable-background="new 0 0 904.95 640.223" xml:space="preserve"><g><g><rect x="929" y="401" fill="#DEE1B6" width="57" height="43.1"/><rect x="929" y="445.1" fill="#E1B866" width="57" height="30.5"/><rect x="933" y="387.1" fill="#73C8A9" width="62.8" height="15.2"/><rect x="983.8" y="401" fill="#BD5532" width="46.1" height="30.5"/><rect x="984.7" y="432.2" fill="#373B44" width="44.4" height="25.9"/></g><g><g><rect x="-7" y="-3.7" fill="#74AF98" width="920" height="650.3"/></g></g></g><g><path fill="#459975" d="M0 322.417c6.575-2.688 5.516-5.804 12.924-2.306s16.579 4.2 16.6 4.203s0.353-2.469 2.117-7.407 s6.35-6.349 8.113-6.702s0.705-6.349 9.524-5.997s16.227 0 18.7 2.469s9.524 6 10.9 7.576s0-9.692 3.175-11.809 s1.763-4.939 6.349-4.233s11.288 2.5 12.7 4.586s4.586 1.1 5.997-3.175s1.411-13.051 5.997-14.462 c0 0 2.822-6.349 9.524-2.469s1.411 0.7 1.4 0.706s3.175-0.706 6.7 5.291c0 0 1.764-1.059 3.9 1.8 c0 0-1.411-11.33 3.527-9.016c0 0-3.527-8.269 3.175-8.269c0 0 3.88-4.233 8.818-2.469s8.466 4.2 7.4 9.2 s-1.74 12 0.2 12.346s7.572-1.411 10.394-5.997s6.702-15.676 11.641-15.951s5.292-0.981 6.3 6.074s3.175 12 0 15.5 s-2.823 9.5 5.6 8.819s12.346-3.528 13.052-10.23s9.171-5.644 11.993-2.469s-2.822-10.23 5.292-14.11s21.87-4.585 27.5 0.4 s12.699 13.1 12.7 13.051s-2.117-15.521 5.997-20.459s15.521-2.117 19.8 4.585s10.229 3.9 10.935-1.058 s4.585-10.935 6.702-9.524s13.757 11.6 13.8 11.641s5.644 4.6 9.2 0.353s2.822-7.055 15.168-5.291 s15.168 10.6 15.2 10.582s1.764-10.582 18.343-9.524s29.63 4.2 33.9 8.113s41.977-9.876 76.193-3.174 s60.32 9.5 60.3 9.524s2.117-1.764 11.641-5.997s14.463-6.35 19.754-3.175s5.291 3.2 5.3 3.175s0.353-4.585 10.582-1.764 s10.229 5.3 10.2 5.291s-1.41-4.586 7.408-5.644s15.521 6.3 15.5 6.35s-0.705-14.463 5.997-14.815s15.168 3.9 15.2 3.9 s-3.528-9.524 3.88-11.641s14.815 8.8 14.8 8.819s1.06-11.641 15.874-6.35s5.292-7.408 28.2 4.938s10.229 29.6 10.2 29.6 s8.465-11.641 15.873-8.466s15.168 13.8 15.2 13.757s6.701-10.582 19.048-14.462s10.936 4.8 10.9 4.8 s4.938-7.624 9.877-6.919s4.938 0.7 4.9 0.705s-2.821-5.996 4.938-5.644s11.993 9.2 12 9.171s1.411-8.114 9.524-5.292 s11.641 10.2 11.6 10.23s4.586-7.327 25.397-2.252s20.812 12.5 20.8 12.482s7.124-13.052 14.815-16.579 s7.691-3.527 7.691-3.527s9.632 3.3 8 7.625v356.762l-920-1.523V329.606L0 322.417z"/></g><g><path fill="#5F8E28" d="M0 475.611c23.954-19.106 109.06-41.216 190.975-53.033s396.469-29.344 640.426-21.546 c41.489 1.3 81.6 15.2 81.6 15.247v230.332h-920V484.164L0 475.611z"/></g><g><path fill="#C4B576" stroke="#4F5C6D" stroke-miterlimit="10" d="M782.859 384.99c-2.489-16.594-14.105-53.517-65.962-69.488 s-222.775-33.396-331.051-28.832s-195.81 44.804-212.404 57.664c0 0-2.074 0.83-8.711 11.2 c-6.478 10.121-44.931 75.2 58.9 111.443l-17.693 179.633h31.114c0 0 15.375-133.572 19.724-169.629 c19.095 5.2 39.1 9.8 59.7 13.794l-9.343 155.835h24.891l16.142-150.303c91.003 14.2 193.1 16.5 292.4 4 c5.204-0.656 10.199-1.401 15.035-2.212l13.69 148.505h26.965l-7.114-156.045c6.678-1.943 12.899-4.052 18.678-6.306 l23.699 162.351h33.188c0 0-17.208-113.719-27.692-177.016C785.097 438.7 784.6 396.5 782.9 384.99z"/></g><g><path fill="#DEE1B6" stroke="#4F5C6D" stroke-miterlimit="10" d="M306.528 336.522c-24.623 0-59.505 10.26-64.123 14.6 c0 0-2.918 2.308-2.821 4.873c0.065 1.7 0.3 5.6 1 10.323c-5.85 0.373-12.63 2.662-13.095 9.2 c-0.513 7.2 5.9 17.2 17.7 16.672c1.336-0.059 2.527-0.127 3.601-0.201c2.303 3.7 5.2 6.7 8.7 8.4 c26.446 12.6 64.6 0 69.252-3.334s17.698-26.418 17.954-40.269S331.151 336.5 306.5 336.522z M239.582 384.2 c-2.563-3.078-6.158-8.207 0-10.003c0.891-0.26 1.664-0.507 2.352-0.741c0.845 3.8 2 7.9 3.5 11.7 C243.027 385.5 240.7 385.5 239.6 384.229z"/><path fill="#DEE1B6" stroke="#4F5C6D" stroke-miterlimit="10" d="M719.731 345.5c-14.106-4.36-67.97-5.387-75.921-4.104 c0 0-11.542-0.77-12.055 4.874s-1.283 10.259-1.283 10.259c-5.644 0.513-14.106 9.747-10.259 19.493s19.749 6.4 19.7 6.4 c4.36 14.1 18.7 17.2 52.8 20.263s36.935-26.931 37.447-35.396S733.837 349.9 719.7 345.5z M637.655 376 c-0.256 2.308-5.899 0.514-8.721-2.821s1.538-8.464 2.821-8.977l2.564-1.026C634.32 363.2 637.9 373.7 637.7 376.021z"/><path fill="#AF5B23" stroke="#4F5C6D" stroke-miterlimit="10" d="M571.993 262.397c-1.282-10.003 1.796-45.398-54.376-68.482 s-90.284-11.286-116.702 4.873s-23.854 79.255-22.058 91.567c0 0 0.8 2.1 0.5 3.078s-4.36 22.058-8.208 20.3 s-40.525-25.393-43.09-26.675s-6.669-1.283-11.542 1.795s-4.617 6.4 0 10.516s38.986 30 43.6 34.6 s11.029 5.6 12.8 24.109c4.588 47.2 24.1 64.1 82.1 73.1c57.967 9 90.541-10.516 100.031-28.25 s17.185-62.548 18.21-73.063S573.275 272.4 572 262.397z M561.221 284.2c-1.025 3.591-6.156 0.513-14.107-7.182 s-50.271-21.545-51.811-21.545s-4.36-3.591-5.13-5.386s-10.772-2.052-16.672-2.821s-4.104 6.925-10.516 6.9 c-35.041 0-66.431 23.084-75.152 30.009c0 0-1.795-18.211-1.282-36.165s16.159-48.477 51.298-55.402s69.765 3.3 99.5 20.8 S562.247 280.6 561.2 284.2z"/></g><g><path fill="#DDE5E8" d="M3.781 274.013c6.748-0.128 21.208-5.065 21.208-5.065s22.02 5.5 33.3 5.06s52.536-0.308 47.774-32.833 c-1.985-13.562-9.72-11.787-12.746-12.935s-16.577-5.724-14.946-6.116s20.814-6.79 18.446-16.686s-5.223-15.333-10.076-18.495 s-24.188-10.21-28.195-11.662s-9.659-4.02-9.659-4.02s8.058-8.631 4.614-12.504S37.686 144.3 0 144.1 c-12.607-0.068-7.025 0-7.025 0v138.437L3.781 274.013z"/><path fill="#DDE5E8" d="M286.312 320.399c0 0-1.039 4.231-0.866 4.482s5.021-10.831 5.021-10.831 c3.518-10.27 5.771-28.899 7.129-33.115s8.686-22.947 7.839-29.705s0.076-15.924-30.29-47.486s-16.166-15.967-16.166-15.967 s7.964-4.879 10.863-5.167s36.616-6.436 35.66-31.568s10.139-25.605 10.805-23.686s28.899 17.7 42.7 15.8 s31.005-6.252 31.138-14.287s0-9.686 0-9.686s5.768 12.9 18.8 13.448s52.811 5.4 49.309-52.974 c-1.938-32.291-82.381-37.418-95.138-30.035s-21.701 12.682-21.701 12.682s-2.625-17.304-43.395-26.725 c0 0-23.07-4.446-32.092-3.587s-35.718 6.148-47.021 13.412l-1.693 1.356c0 0-1.348-6.325-10.762-6.617 s-20.442-2.199-50.615 14.562s-21.73 15.332-21.73 15.332s-4.35 4.19-5.297 5.454s-13.584 18.354-8.696 29.8 s4.586 15.8 15.7 15.294s1.928-0.964 1.928-0.964s2.073 6.1 25.5 8.676c17.352 1.9 2.8 11.8 5.2 15.8 s14.077 14.3 15.8 14.664s-1.706-0.412-1.706-0.412s1.455 9.2 5.4 15.251s32.234 31.8 42.8 37.6 s21.208 8.2 23.6 14.46s22.061 20.5 24.5 21.592s13.826 25 13.4 29.883s-2.053 40.014-6.036 42.951L286.312 320.399z "/><path fill="#DDE5E8" d="M700.742 340.738c-2.436-0.259-12.539-0.441-12.831-14.104s4.922-26.721 10.862-32.341 s17.09-27.762 17.662-39.18s0.922-24.767-9.87-38.232s-24.173-25.045-23.467-29.604s0.252-12.771 17.394-10.661 s32.085 4.1 37.3 3.985s17.231-1.587 20.837-4.325c0 0 8.3 1.8 10.6 1.932s7.851-0.148 7.851-0.148 s-2.287 9.2 0 13.558s5.919 14.1 28.6 11.796s41.214-14.197 42.057-42.735s-13.408-41.538-25.849-52.273 s-47.409-13.21-73.288-5.519c-20.949 6.226-25.794 17.363-25.794 17.363s2.867 5.4 3.1 6.805s-1.341 2.767-2.681 0.8 s-1.032-6.224-1.032-6.224s-18.739-19.447-34.72-16.89c-5.504 0.881-6.576 5.382-6.576 5.382s-3.478-2.479-6.783-2.713 s-19.269 6.546-12.629 18.555c0 0 0.6 0.6 0 0.848s-23.049 9.828-28.26 15.003s-10.863 10.145-7.054 19.5 c0 0 7.9 21 10.6 22.533s30.231 23.2 31.6 25.288s15.258 17 17 29.809s4.657 22.8 1.3 41.6 s-11.479 29.367-14.392 31.382s-2.104 23.9 14.9 27.445S700.742 340.7 700.7 340.738z"/><path fill="#DDE5E8" d="M598.226-3.681c0.225 8.515-1.968 15.9 8.6 19.35c0 0-17.48 1.887-20.812 6.6 s-9.701 18.9 2.7 27.063s26.982 6.7 45.7 4.992c11.92-1.116 12.219-3.59 12.219-3.59s9.826 9.4 16.3 12 s34.526 13.6 62.4 6.453c13.683-3.486 15.746-7.873 15.746-7.873s10.462 9.1 16.6 10.918s21.546 8.9 47.88-7.081 s18.272-61.71 12.898-68.869L647.49-3.675L598.226-3.681z"/></g><g><path fill="none" stroke="#4F5C6D" stroke-miterlimit="10" d="M303.307 265.322c0.47-0.184 0.962-0.329 1.481-0.427 c4.263-0.804 5.8 0.4 8.6 3.439c2.858 3.1 4.7 4.6 8.6 2.367c5.113-2.869 10.899-7.191 17.57-5.454 c6.475 1.7 5.3 10 12.6 10.718c3.594 0.3 9.3 0.9 12.609-0.277c2.384-0.843 4.15-2.863 6.528-3.897 c0.393 0 0.5 0.3 0.4 0.7"/><path fill="none" stroke="#4F5C6D" stroke-miterlimit="10" d="M-2.095 324.881c4.524-4.952 10.983-7.67 17.579-7.26 c4.849 0.3 8.6 4.1 12.9 5.674c2.145-7.59 5.733-11.579 13.775-12.611c0.099-8.305 11.301-7.963 17.349-6.915 c8.2 1.4 14.4 8.4 21.6 10.363c0.388-6.661-2.025-13.938 7.709-15.256c5.723-0.775 11.7 3.1 15.3 6.9 c3.741-2.217 2.38-6.044 2.982-9.686c0.632-3.82 2.03-5.742 5.053-8.025c3.193-2.412 6.917-3.81 11.071-2.971 c4.708 0.9 6.4 5 9.2 8.46c2.292-1.944 2.95-5.472 2.788-8.184c-0.15-2.515-2.27-6.125 2.82-5.313 c-1.292-1.664-0.452-3.724 1.711-3.812c-1.001-3.889 5.76-5.268 8.741-4.528c3.582 0.9 4 3 5.4 6.1 c1.49 3.4 1.5 5.3 0.7 9.182c-0.534 2.625-1.693 6.3 1.7 8.313c3.523 2.1 4.859-1.476 6.506-3.726 c2.15-2.938 5.275-5.042 7.185-8.036c2.885-4.524 3.794-14.136 12.21-11.493c11.154 3.5 2 14.6 0.5 21 c-1.305 5.5 0.7 13.8 7.9 10.699c9.688-4.078 15.942-26.579 26.759-11.706c1.968-1.665-1.547-5.961 0.013-8.865 c1.55-2.885 5.774-4.332 8.788-5.414c7.426-2.666 14.921-4.83 21.5 0.382c3.506 2.8 4.3 9 7.7 11.1 c3 1.9 6.378-0.58 7.452-3.278c2.951-7.415-1.429-16.445 9.257-19.189c4.063-1.044 7.708-0.415 10.7 2.7 c2.282 2.4 2.8 5 6.5 5.331c1.167 0.1 2.197-0.073 3.141-0.472"/><path fill="none" stroke="#4F5C6D" stroke-miterlimit="10" d="M386.548 270.235c3.811-0.84 10.849-3.079 13.4 1.5"/><path fill="none" stroke="#4F5C6D" stroke-miterlimit="10" d="M551.635 280.935c1.544-2.1 7.038-6.27 9.554-4.204"/><path fill="none" stroke="#4F5C6D" stroke-miterlimit="10" d="M712.513 268.192c3.366 2.3 6.3 4.5 8.7 8.2 c3.077 4.8 0.7 10.2 2.9 14.76c5.222-1.255 8.868-4.609 14.444-2.915c4.256 1.3 9.3 5.5 10.7 9.9"/><path fill="none" stroke="#4F5C6D" stroke-miterlimit="10" d="M574.564 274.438c4.15 0 6.016-0.26 7.6 3.7 c4.007-5.327 8.283-3.331 13.383-1.757c4.138 1.3 10.072-3.307 10 4.452c2.546-3.646-0.999-9.223 5.209-9.37 c1.277 3.2 6.5 2.9 7 6.753c4.153-0.044 3.995-5.788 9.449-4.844c-0.785 1.471-1.563 3.527-0.619 5.2 c2.032-2.125 3.495-4.152 3.706-7.222c0.18-2.62-1.322-4.436 1.548-5.33c3.721-1.159 10.5 2.7 13.7 4.2 c0.155-2.477 1.847-4.979 2.751-7.203c0.696-1.711-0.574-1.937 1.139-3.169c0.916-0.659 3.065-0.324 4.117-0.194 c4.745 0.6 12 3.1 11.6 8.675c2.803-3.738 4.435-7.754 8.61-10.373c6.704-4.204 6.4 0 11.2 4.2 c1.098-1.449 2.513-2.306 4.125-2.715"/><path fill="none" stroke="#4F5C6D" stroke-miterlimit="10" d="M913.529 289.342c-7.36-5.137-12.797-4.775-20.234 0.1 c-4.835 3.16-6.562 9.95-11.103 12.563c-8.8-7.149-18.861-11.8-29.807-13.41c-6.868-1.011-10.588 1.503-16.834 3.1 c-2.237 0.556-1.53 1.346-3.716-0.764c-1.204-1.164-1.373-3.344-2.464-4.501c-2.199-2.332-4.917-2.73-7.94-2.76 c-3.813-0.038-6.452 0.831-9.172 3.484c-4.763-6.363-14.577-11.967-16.106-0.486c-4.008-0.643-12.637-2.851-12.238 5 c-3.089-0.938-2.983-5.039-6.813-5.684c-3.505-0.59-7.353 1.751-10.317 3.334c-3.032 1.62-5.106 4.369-8.036 6.1 c-2.48 1.485-6.813 1.812-6.486 5.8"/><path fill="none" stroke="#4F5C6D" stroke-miterlimit="10" d="M159.934 428.442c-24.478 8.267-51.303 4.178-74.996 15.3 c-20.625 9.688-43.77 12.358-64.199 22.165c-3.619 1.736-7.507 3.229-10.961 4.956c-4.243 2.122-9.347 6.1-13.784 7.3"/><path fill="none" stroke="#4F5C6D" stroke-miterlimit="10" d="M781.685 399.398c10.276-0.047 20.181-1.257 30.478-0.765 c9.208 0.4 17.3 1.9 26.4 3.346c21.748 3.4 42.7 7.8 64 13.767c1.78 0.5 3.5 0.9 5.3 1.5 c1.438 0.5 4.1 0.9 3.1 1.6"/><path fill="none" stroke="#4F5C6D" stroke-miterlimit="10" d="M723.981 355.07c-11.633 4.641-19.604 8.414-31.67 8 c-6.145-0.188-12.322-0.348-18.41-1.302c-8.898-1.394-19.785-2.887-27.878-7.125"/><path fill="none" stroke="#4F5C6D" stroke-miterlimit="10" d="M330.752 350.867c-8.777 5.029-15.29 9.539-25.068 10.7 c-5.713 0.686-11.274 0.757-17.026 0.751c-12.489-0.013-24.919-0.586-37.393-0.763"/><path fill="none" stroke="#4F5C6D" stroke-miterlimit="10" d="M767.642 401.944c-4.021 13.682-5.57 15.737-15.35 23.5 c-4.132 3.278-7.785 7.596-12.134 10.517c-9.01 6.051-20.028 9.971-29.834 14.65c-35.578 16.979-78.2 19.076-116.471 26 c-34.609 6.275-72.609 3.123-107.545 1.318c-31.328-1.618-62.878 0.197-94.132-2.166c-48.179-3.644-97.075-2.913-143.855-15.85 c-12.264-3.392-24.063-6.791-35.508-12.636c-14.878-7.599-22.708-18.218-33.839-30.016"/><path fill="none" stroke="#4F5C6D" stroke-miterlimit="10" d="M732.309 474.61c-20.004 14.704-47.515 20.06-72 20.7"/><path fill="none" stroke="#4F5C6D" stroke-miterlimit="10" d="M229.642 469.944c21.699 7 47.3 13.9 69.8 16 c8.384 0.8 16.6 2.4 24.8 3.317c7.91 0.9 16.6 4.2 24.7 3.3"/><path fill="none" stroke="#4F5C6D" stroke-miterlimit="10" d="M550.309 303.277c-49.427 21.799-108.298 13.113-158-3.333"/><path fill="none" stroke="#4F5C6D" stroke-miterlimit="10" d="M324.309 289.944c-5.831 2.953-10.393 6.641-16 2.7"/><path fill="none" stroke="#4F5C6D" stroke-miterlimit="10" d="M283.643 327.277c8.479-21.501 14.54-43.16 4-64.667 c-8.866-18.089-18.034-29.97-35.968-40.148c-9.598-5.447-18.821-8.646-28.017-15.204c-8.503-6.064-17.09-12.049-24.534-19.48 c-7.771-7.758-15.122-17.054-14.847-28.664c0.19-8.036 8.392-19.479 16.699-21.17"/><path fill="none" stroke="#4F5C6D" stroke-miterlimit="10" d="M272.309 167.944c-4.605-0.002-19.759-1.469-22.061 3.5 c-1.653 3.6 6.3 13.1 8.7 16.352c6.447 8.7 14.5 16.6 22.6 23.604c16.083 13.9 28.6 30.6 22.1 52.7 c-1.918 6.537-5.284 12.39-6.636 19.14c-2.204 11.006-1.704 21.168-7.401 31.3"/><path fill="none" stroke="#4F5C6D" stroke-miterlimit="10" d="M287.643 132.611c7.936 8.9 20.9 16.2 15.6 28.1 c-3.775 8.311-10.699 12.759-18.223 16.765c-8.181 4.355-21.846 6.484-27.944 13.922c-12.543 15.301-4.792 45.4 14.6 49.9"/><path fill="none" stroke="#4F5C6D" stroke-miterlimit="10" d="M316.976 129.277c19.659 8.8 32.1 16.9 52.4 12.7 c5.069-1.055 12.514-2.833 16.665-6.196c5.165-4.185 4.235-8.843 4.212-14.979c4.858 13.5 29.8 14 40.7 11 c14.748-4.043 22.404-11.096 25.767-25.819c4.084-17.889 4.465-36.458-13.289-46.394c-20.425-11.431-51.575-15.693-75.139-11.414 c-11.616 2.11-17.19 9.714-26.905 14.103c-6.762-17.802-34.793-25.183-51.157-28.417c-16.005-3.164-31.942-2.677-47.583 2.2 c-7.375 2.29-19.678 5.427-25.462 10.693c-2.68-9.3-23.259-7.288-30.394-5.468c-12.665 3.229-24.717 10.741-36.575 16.1 c-6.228 2.789-14.84 6.039-18.621 11.833c0.803 0.2 1.7 0.6 2.5 0.862c-10.471 8.751-14.461 21.82-13.994 35.3 c0.765 22.1 28.2 14.7 43.3 12.055c9.927-1.727 40.218-7.887 32.521-25.371c-7.016-15.936-33.997-5.174-43.293 0.7 c-10.161 6.388-28.493 20.28-13.11 31.361c6.995 5 21.9 0.2 26 5.823c1.365 1.8 0.6 8.2 1.3 10.5 c2.667 8.5 8.9 14.2 17.3 16.91c13.034 4.2 42.274-0.391 47.386-16.016"/><path fill="none" stroke="#4F5C6D" stroke-miterlimit="10" d="M661.641 126.611c-8.204 4.515-42.381 15.589-36.107 33.2 c3.403 9.6 16.3 14.1 25.3 15.485c10.942 1.7 21.7 1 32.14-2.476c2.155-0.719 15.992-4.574 16.001-8.222 c0.015-6.404-16.726-6.202-18.818 0.033c-3.849 11.5 21.3 11.9 27.4 12.646c14.997 1.9 38.8 7.4 52.595-1.968 c8.273-5.578 0.344-13.496-7.128-10.075c-12.688 5.8 15.4 16.2 24 12.221c-0.231 7.583-1.657 15.3 4.3 20.9 c7.414 6.9 21.2 5.7 30.3 4.288c21.911-3.31 35.339-18.255 36-40.641c0.966-32.686-18.167-58.282-51.407-62.693 c-21.064-2.795-50.845-0.073-68.021 13.949c-4.245 3.466-11.263 13.619-1.97 15.98c-2.838-12.034-22.244-22.163-33.324-24.736 c-11.947-2.774-19.678 15.829-6.017 14.717c0.197-6.592-9.223-12.524-15.272-11.958"/><path fill="none" stroke="#4F5C6D" stroke-miterlimit="10" d="M635.641 182.611c22.583 18.4 45.1 30 50.7 60.7 c3.625 19.9 2.4 53.843-14.076 68.7"/><path fill="none" stroke="#4F5C6D" stroke-miterlimit="10" d="M682.308 187.277c14.75 19.8 36.9 35.9 34.6 63.3 c-0.92 11.342-4.955 23.314-10.502 33.231c-3.815 6.822-9.724 11.9-13.562 18.631c-6.597 11.573-10.242 40.5 10.7 38.1"/><path fill="none" stroke="#4F5C6D" stroke-miterlimit="10" d="M824.308 17.277c-0.816 20.064-0.381 32.243-15.382 45.3 c-6.715 5.835-15.008 10.327-23.787 12.042c-15.042 2.937-33.521-1.553-44.011-13.248c0.42-0.051 1.019-0.088 1.142-0.504 c-10.5 10.099-31.811 11.375-45.263 10.388c-14.742-1.081-41.403-6.958-49.549-21.233c-3.316 3.46-9.629 3.891-14.364 4.5 c-13.584 1.671-32.402 2.946-44.347-5.153c-6.721-4.558-9.272-13.292-6.442-21.293c3.724-10.527 15.214-10.202 24.162-12.684 c1.109-0.148 1.1 0.051-0.159 0.6"/><path fill="none" stroke="#4F5C6D" stroke-miterlimit="10" d="M35.642 272.611c19.439 2.1 68.8 6.1 70.648-26.162 c1.073-18.319-16.438-17.612-27.959-24.325c13.816-2.868 24.585-15.157 14.666-28.742c-10.756-14.729-29.675-14.436-44.149-22.121 c24.587-23.82-43.229-26.775-51.872-27.318"/></g></svg>