<?xml version="1.0" encoding="utf-8"?>
<!-- Generator: Adobe Illustrator 15.0.0, SVG Export Plug-In . SVG Version: 6.00 Build 0)  -->
<!DOCTYPE svg PUBLIC "-//W3C//DTD SVG 1.1//EN" "http://www.w3.org/Graphics/SVG/1.1/DTD/svg11.dtd">
<svg version="1.1" id="Capa_1" xmlns="http://www.w3.org/2000/svg" xmlns:xlink="http://www.w3.org/1999/xlink" x="0px" y="0px"
	 width="904.95px" height="640.223px" viewBox="0 0 904.95 640.223" enable-background="new 0 0 904.95 640.223"
	 xml:space="preserve">
<g id="Capa_4">
	<rect x="-49.737" y="-3.681" fill="#195B45" width="1028.712" height="696.181"/>
</g>
<g id="Capa_3_1_">
	<path opacity="0.8" fill="none" stroke="#587863" stroke-width="2" stroke-miterlimit="10" enable-background="new    " d="
		M828.342,95.299c-3.156-6.201,0.158-7.799-14.957-7.577c-15.113,0.222-716.885-1.222-725.579,0
		C79.112,88.944,78.917,99.315,76.754,108c-3.471,13.941,8.357,560.471,8.357,560.471L113.5,688.5l-1.552-168.218
		c72.854-0.624,599.265-5.132,687.681-5.934c-1.109,94.886-2.02,169.15-2.02,169.15l30.732-15.029
		C828.342,668.471,831.5,101.5,828.342,95.299z M118.5,116.5c14,1,677.917-6.444,677.917-6.444s6.084-3.288,7.084,4.078
		c0.324,2.397-0.186,63.552-1.021,144.952c-83.379-1.006-616.57,5.065-692.886,5.945L108.277,122.5
		C108.277,122.5,104.5,115.5,118.5,116.5z M111.577,480.075l-1.613-174.849c58.936-0.504,605.947-5.188,692.093-5.97
		c-0.598,55.867-1.295,117.576-1.959,174.898C714.252,473.229,198.133,479.081,111.577,480.075z"/>
</g>
<g id="Capa_2">
	<path opacity="0.8" fill="none" stroke="#587863" stroke-width="2" stroke-miterlimit="10" enable-background="new    " d="
		M218.262,141.407l157.446-3.5c0,0,2.509-1.28,2.904,5.446c0.419,7.129-0.295,95.389-0.295,95.389s5.202,23.293-53.504,23.919
		s-86.863,0-86.863,0s-31.855-3.485-34.464-27.623c-2.609-24.138,0-86.669,0-86.669S203.457,141.736,218.262,141.407z"/>
	<path opacity="0.8" fill="none" stroke="#587863" stroke-width="2" stroke-miterlimit="10" enable-background="new    " d="
		M378.745,155.501c2.73-0.582,30.063-8.917,41.307,15.314c11.244,24.231-12.988,41.333-16.284,47.516s-9.305,14.906-16.478,15.875
		c-7.173,0.969-8.546,0.775-8.546,0.775"/>
	<path opacity="0.8" fill="none" stroke="#587863" stroke-width="2" stroke-miterlimit="10" enable-background="new    " d="
		M379.342,222.303c3.683-1.085,22.487-22.885,27.333-27.978c4.846-5.093,9.112-24.672-8.529-27.386s-19.402,8.917-19.402,8.917"/>
	<path opacity="0.8" fill="none" stroke="#587863" stroke-width="2" stroke-miterlimit="10" enable-background="new    " d="
		M526.372,133.443h117.029c0,0,1.184,1.073,1.184,3.199s0,118.684,0,118.684s-53.355,6.852-116.463,2.834
		c0,0-1.682-116.255-2.139-118.385S524.125,133.443,526.372,133.443z"/>
	<path opacity="0.8" fill="none" stroke="#587863" stroke-width="2" stroke-miterlimit="10" enable-background="new    " d="
		M644.584,150.345c7.986-0.221,28.104,3.329,28.4,40.604c0.295,37.275-28.4,42.304-28.4,42.304"/>
	<path opacity="0.8" fill="none" stroke="#587863" stroke-width="2" stroke-miterlimit="10" enable-background="new    " d="
		M644.584,166.099c5.621,0.592,13.609,4.354,14.201,25.696c0.59,21.342-8.285,25.092-14.201,27.063"/>
	<path opacity="0.8" fill="none" stroke="#587863" stroke-width="2" stroke-miterlimit="10" enable-background="new    " d="
		M151.884,352.943h161.028c0,0,1.184,1.074,1.184,3.199c0,2.127,0,118.685,0,118.685s-97.356,6.852-160.463,2.834
		c0,0-1.682-116.255-2.139-118.386S149.638,352.943,151.884,352.943z"/>
	<path opacity="0.8" fill="none" stroke="#587863" stroke-width="2" stroke-miterlimit="10" enable-background="new    " d="
		M314.096,369.848c7.987-0.223,28.104,3.327,28.401,40.603c0.295,37.274-28.401,42.304-28.401,42.304"/>
	<path opacity="0.8" fill="none" stroke="#587863" stroke-width="2" stroke-miterlimit="10" enable-background="new    " d="
		M314.096,385.6c5.621,0.593,13.61,4.354,14.201,25.695c0.59,21.342-8.285,25.092-14.201,27.063"/>
	<path opacity="0.8" fill="none" stroke="#587863" stroke-width="2" stroke-miterlimit="10" enable-background="new    " d="
		M395.765,561.417h378.37c0,0,3.826,1.074,3.826,3.199c0,2.127,0,118.685,0,118.685s-182.336,9.217-386.37,5.199
		c0,0,2.337-35.202,0-63.034C389.218,597.2,388.503,561.417,395.765,561.417z"/>
	<path opacity="0.8" fill="none" stroke="#587863" stroke-width="2" stroke-miterlimit="10" enable-background="new    " d="
		M603.852,619.473c0,6.627-5.373,12-12,12h-10.547c-6.627,0-12-5.373-12-12v-14.974c0-6.627,5.373-12,12-12h10.547
		c6.627,0,12,5.373,12,12V619.473z"/>
	<path opacity="0.8" fill="none" stroke="#587863" stroke-width="2" stroke-miterlimit="10" enable-background="new    " d="
		M572.85,608c3.543,0,3.984-1.33,5.758,2.214c1.771,3.544-1.621,8.857,2.289,10.188s14.982,3.544,14.539-2.214
		c-0.441-5.759,1.33-10.231,4.873-10.432"/>
	<path opacity="0.8" fill="none" stroke="#587863" stroke-width="2" stroke-miterlimit="10" enable-background="new    " d="
		M583.952,607.756c3.229-5.297,8.223-0.198,7.861,4.23c-0.363,4.428-4.762,7.258-7.861,4.391
		C580.854,613.51,582.211,610.612,583.952,607.756z"/>
	
		<line opacity="0.8" fill="none" stroke="#587863" stroke-width="2" stroke-miterlimit="10" enable-background="new    " x1="389.944" y1="607.756" x2="569.305" y2="611.986"/>
	
		<line opacity="0.8" fill="none" stroke="#587863" stroke-width="2" stroke-miterlimit="10" enable-background="new    " x1="604.1" y1="611.127" x2="777.961" y2="605.496"/>
	
		<path opacity="0.8" fill="none" stroke="#587863" stroke-width="2" stroke-linejoin="round" stroke-miterlimit="10" enable-background="new    " d="
		M424.506,336.298l142.065-3.282c0,0,26.188,36.41,25.686,78.064s-21.537,62.33-21.537,62.33l-140.161,1.257
		c0,0-30.137-33.558-25.428-75.815C409.839,356.596,424.506,336.298,424.506,336.298z"/>
	<path opacity="0.8" fill="none" stroke="#587863" stroke-width="2" stroke-miterlimit="10" enable-background="new    " d="
		M584.62,366c7.986-0.223,32.711,5.436,33.008,42.71c0.295,37.275-33.008,44.604-33.008,44.604"/>
	<path opacity="0.8" fill="none" stroke="#587863" stroke-width="2" stroke-miterlimit="10" enable-background="new    " d="
		M589.229,383.86c5.619,0.592,13.609,4.354,14.199,25.694c0.592,21.343-8.283,25.093-14.199,27.063"/>
	
		<path opacity="0.8" fill="none" stroke="#587863" stroke-width="2" stroke-linejoin="round" stroke-miterlimit="10" enable-background="new    " d="
		M656.637,333.628c0.35-4.616-2.793-12.999,5.588-13.349c8.383-0.348,84.488,0,84.488,0l36.006-0.154c0,0,3.492-0.543,3.844,3.298
		c0.35,3.841,0,7.334,0,7.334"/>
	
		<path opacity="0.8" fill="none" stroke="#587863" stroke-width="2" stroke-linejoin="round" stroke-miterlimit="10" enable-background="new    " d="
		M653.842,333.628c2.795,0,132.369-2.171,134.465-2.521c2.098-0.351,2.445,0.15,2.445,2.521s-135.164,4.813-136.91,3.767
		C652.096,336.346,651.049,333.628,653.842,333.628z"/>
	
		<polyline opacity="0.8" fill="none" stroke="#587863" stroke-width="2" stroke-linejoin="round" stroke-miterlimit="10" enable-background="new    " points="
		656.34,337.645 656.34,474.667 786.717,474.056 786.717,334.361 	"/>
	<g opacity="0.8">
		<path fill="#587863" d="M702.559,385.63h-9.225v-3.33h22.453v3.33h-9.27v26.999h-3.961V385.63H702.559z"/>
		<path fill="#587863" d="M718.038,402.459c0.09,5.355,3.465,7.56,7.469,7.56c2.836,0,4.59-0.493,6.031-1.124l0.719,2.835
			c-1.395,0.631-3.824,1.396-7.289,1.396c-6.705,0-10.709-4.455-10.709-11.024s3.869-11.699,10.215-11.699
			c7.154,0,8.998,6.21,8.998,10.215c0,0.811-0.045,1.396-0.135,1.845h-15.299V402.459z M729.647,399.624
			c0.045-2.475-1.035-6.39-5.49-6.39c-4.049,0-5.76,3.646-6.074,6.39H729.647z M730.547,381.445l-5.49,6.435h-2.789l3.961-6.435
			H730.547z"/>
	</g>
	<path opacity="0.8" fill="none" stroke="#587863" stroke-width="2" stroke-miterlimit="10" enable-background="new    " d="
		M220.5,574.5c0,0,58.5,19,102-0.5"/>
	<path opacity="0.8" fill="none" stroke="#587863" stroke-width="2" stroke-miterlimit="10" enable-background="new    " d="
		M322.5,574c0,0-10.5-23.5-49.5-23s-52.5,23.5-52.5,23.5s-11.345,4.385-17.926,20.373c-17.885-8.533-39.875-27.155-43.074-29.408
		C156,563,132.5,571,136.5,574c3.667,2.75,40.09,50.031,62.323,63.283C201.395,659.385,209,666,209,666s66.725,18.5,127.112,0
		C348.042,662.346,364,607.5,322.5,574z"/>
	<path opacity="0.8" fill="none" stroke="#587863" stroke-miterlimit="10" enable-background="new    " d="M261.529,551.852
		c-0.019-0.253-0.029-0.508-0.029-0.766c0-5.706,4.813-10.331,10.75-10.331S283,545.38,283,551.086c0,0.303,0.026,0.007,0,0.303"/>
	<path opacity="0.8" fill="none" stroke="#587863" stroke-width="2" stroke-miterlimit="10" enable-background="new    " d="
		M341.032,596.15c5.952-0.165,25.649,4.056,25.871,31.833c0.22,27.776-24.598,33.237-24.598,33.237"/>
	<path opacity="0.8" fill="none" stroke="#587863" stroke-width="2" stroke-miterlimit="10" enable-background="new    " d="
		M345.739,609.465c4.189,0.441,10.143,3.244,10.583,19.148c0.439,15.903-5.026,18.697-9.435,20.167"/>
</g>
</svg>
