<?xml version="1.0" encoding="utf-8"?>
<!-- Generator: Adobe Illustrator 15.0.0, SVG Export Plug-In . SVG Version: 6.00 Build 0)  -->
<!DOCTYPE svg PUBLIC "-//W3C//DTD SVG 1.1//EN" "http://www.w3.org/Graphics/SVG/1.1/DTD/svg11.dtd">
<svg version="1.1" id="Capa_1" xmlns="http://www.w3.org/2000/svg" xmlns:xlink="http://www.w3.org/1999/xlink" x="0px" y="0px"
	 width="389.576px" height="129.075px" viewBox="0 0 389.576 129.075" enable-background="new 0 0 389.576 129.075"
	 xml:space="preserve">
<g>
	<path fill="#DFF4ED" d="M56.434,94.044c0.699-1.926,0.244-4.348-1.394-5.539c-0.865-3.297-1.805-6.564-2.907-9.77
		c-2.685-7.803-8.042-23.176-18.836-21.993c-11.979,1.313-17.055,16.054-20.291,25.745c-4.649,13.916-6.443,28.523-9.571,42.803
		c-1.16,5.293,6.916,7.768,8.081,2.449c2.233-10.188,3.832-20.729,6.217-30.888c0.095-0.403,0.184-0.493,0.295-1.491
		c10.236,0.278,20.469,0.558,30.703,0.836c3.389,12.097,6.072,22.994,7.184,25.84c1.973,5.054,9.348,1.049,7.393-3.957
		C60.281,110.326,58.43,102.215,56.434,94.044z M20.179,86.417c2.214-7.943,5.589-17.21,12.045-21.212
		c4.378-2.713,9.384,8.789,13.715,21.911C37.353,86.884,28.765,86.652,20.179,86.417z"/>
	<path fill="#DFF4ED" d="M97.561,85.984c-6.721-1.979-13.633,1.596-16.925,7.428c-0.496,0.879-0.896,1.793-1.229,2.734
		c-0.2-1.705-0.338-3.429-0.348-5.182c-0.028-5.439-8.469-5.734-8.441-0.291c0.056,10.766,3.183,20.947,8.418,30.304
		c2,3.576,7.887,2.356,7.918-1.892c0.05-6.672-2.93-31.896,11.029-23.799c7.837,4.547,10.075,18.328,11.386,26.432
		c0.872,5.38,9.077,3.378,8.213-1.964C115.592,107.455,111.173,89.99,97.561,85.984z"/>
	<path fill="#DFF4ED" d="M128.866,94.083c-0.784-5.393-8.99-3.381-8.212,1.963c0.971,6.678,2.479,13.482,5.68,19.48
		c2.561,4.801,9.962,0.732,7.396-4.074C130.891,106.131,129.727,100.001,128.866,94.083z"/>
	<path fill="#DFF4ED" d="M124.071,83.873c5.451,0.148,5.728-8.29,0.291-8.438C118.91,75.286,118.634,83.725,124.071,83.873z"/>
	<path fill="#DFF4ED" d="M184.172,87.461c-4.569,0.846-7.579,3.377-9.548,6.788c-2.399-4.979-6.101-8.641-12.037-9.115
		c-8.061-0.648-12.403,2.623-14.672,7.59c-0.218-0.98-0.433-1.965-0.649-2.951c-1.167-5.322-9.377-3.351-8.212,1.963
		c1.84,8.396,3.742,16.562,7.473,24.342c1.735,3.621,8.244,2.308,7.919-1.894c-0.271-3.491-0.53-6.965-0.565-10.468
		c-0.074-7.239,6.616-15.598,12.443-6.635c4.678,7.197,4.274,18.103,5.545,26.336c0.722,4.682,8.717,3.906,8.327-0.836
		c-0.541-6.557-3.287-28.627,7.891-26.532c7.471,1.399,9.335,24.14,13.012,30.171c2.819,4.631,10.237,0.589,7.396-4.074
		C202.31,112,202.69,84.035,184.172,87.461z"/>
	<path fill="#DFF4ED" d="M252.175,110.805c-6.511,1.923-11.331-2.756-12.247-8.465c0.569-2.209,0.82-4.552,0.665-6.983
		c-0.167-2.604-2.207-4.193-4.261-4.281c-0.187-0.176-0.378-0.349-0.608-0.502c-6.521-4.367-17.647-6.303-23.916-0.231
		c-5.936,5.747-7.033,15.122-1.595,21.537c4.343,5.118,12.856,5.319,18.61,3.065c2.246-0.881,4.152-2.119,5.771-3.592
		c4.022,6.246,11.313,10.092,19.546,7.668C259.341,117.486,257.403,109.265,252.175,110.805z M231.346,100.947
		c-1.864,5.117-6.714,8.305-13.063,6.357c-4.039-1.238-3.584-6.197-2.12-9.203c2.679-5.507,11.5-2.773,15.144-0.332
		c0.063,0.041,0.122,0.061,0.184,0.098C231.36,98.898,231.31,99.925,231.346,100.947z"/>
	<path fill="#DFF4ED" d="M277.827,93.422c-5.449-0.147-10.897-0.296-16.346-0.444c-5.451-0.146-5.744,8.848-0.307,8.995
		c5.449,0.147,10.896,0.298,16.346,0.444C282.971,102.566,283.263,93.572,277.827,93.422z"/>
	<path fill="#DFF4ED" d="M327.262,110.107c-3.958,4.674-6.161,7.069-8.396,0.36c-2.168-6.509-2.594-13.66-3.032-20.449
		c-0.332-5.135,0.298-11.561,0.254-17.563c3.451,0.094,6.899,0.188,10.351,0.281c5.451,0.147,5.744-8.848,0.308-8.995
		c-3.831-0.104-7.66-0.209-11.489-0.313c-0.295-1.009-0.654-2.6-1.146-3.784c-2.01-4.839-8.908-1.491-7.557,3.548
		c-5.77-0.157-11.537-0.314-17.307-0.471c-5.451-0.148-5.744,8.847-0.307,8.994c6.043,0.165,12.088,0.329,18.131,0.493
		c-0.063,3-0.157,5.801-0.109,7.536c0.251,9.136,0.746,18.318,2.379,27.324c2.615,14.432,12.686,22.221,23.762,9.146
		C336.581,112.107,330.788,105.947,327.262,110.107z"/>
	<path fill="#DFF4ED" d="M380.274,103.179c-9.881,6.93-26.207,10.208-29.314-5.473c-0.072-0.368-0.061-0.721-0.075-1.08
		c0.651,0.677,1.563,1.145,2.776,1.188c8.373,0.297,17.131,1.201,24.402-3.767c2.447-1.671,2.731-4.289,1.013-6.617
		c-5.157-6.981-12.978-10.096-21.496-8.508c-7.488,1.396-14.313,8.146-14.984,15.849c-0.819,9.445,5.357,18.311,13.923,21.821
		c8.979,3.681,20.451-0.839,27.832-6.017C388.753,107.49,384.737,100.049,380.274,103.179z M358.368,87.445
		c3.813-1.306,7.303-0.461,10.236,1.537c-4.418,1.086-9.186,0.633-13.822,0.43C355.899,88.556,357.134,87.865,358.368,87.445z"/>
	<path fill="#DFF4ED" d="M359.44,36.42c3.722,3.99,11.988,19.167,2.873,22.534c-5.041,1.861-3.138,10.097,1.963,8.214
		c9.871-3.647,11.375-12.333,9.283-21.879c-1.222-5.563-4.498-10.366-8.019-14.71c-6.315-7.797-15.351-10.468-6.437-21.432
		c3.385-4.165-2.403-10.327-5.84-6.103c-5.522,6.795-10.148,14.108-4.615,22.306C351.499,29.569,355.987,32.715,359.44,36.42z"/>
</g>
</svg>
