<?xml version="1.0" encoding="utf-8"?>
<!-- Generator: Adobe Illustrator 15.0.0, SVG Export Plug-In . SVG Version: 6.00 Build 0)  -->
<!DOCTYPE svg PUBLIC "-//W3C//DTD SVG 1.1//EN" "http://www.w3.org/Graphics/SVG/1.1/DTD/svg11.dtd">
<svg version="1.1" id="Capa_2" xmlns="http://www.w3.org/2000/svg" xmlns:xlink="http://www.w3.org/1999/xlink" x="0px" y="0px"
	 width="389.576px" height="129.075px" viewBox="0 0 389.576 129.075" enable-background="new 0 0 389.576 129.075"
	 xml:space="preserve">
<path fill="#C3EADB" d="M26.239,126.906c-2.504-0.297-4.799-1.086-6.885-2.369c-2.087-1.281-3.875-3.054-5.365-5.319
	c-1.193-1.907-2.087-3.963-2.682-6.169c-0.597-2.205-0.925-4.44-0.984-6.706c-0.059-6.02,1.042-11.877,3.309-17.569
	c2.265-5.691,5.483-10.685,9.656-14.976c1.431-1.432,3.009-2.846,4.738-4.248c1.729-1.399,3.577-2.622,5.544-3.666
	c1.967-1.042,3.993-1.846,6.08-2.414c2.085-0.566,4.171-0.79,6.258-0.671c1.131,0.061,2.294,0.269,3.487,0.626
	c1.191,0.357,2.324,0.835,3.397,1.431c1.073,0.596,2.07,1.296,2.995,2.101c0.924,0.805,1.654,1.714,2.191,2.728
	c1.371,2.682,1.997,5.543,1.878,8.584c-0.121,3.039-0.895,5.871-2.325,8.493c-0.715,1.252-1.61,2.593-2.683,4.023
	c-1.072,1.431-2.205,2.563-3.397,3.397c-0.478,0.299-0.999,0.567-1.565,0.805c-0.567,0.239-1.059,0.357-1.475,0.357
	c-0.418,0-0.702-0.163-0.849-0.491c-0.15-0.327-0.016-0.908,0.401-1.743c0.358-0.716,0.774-1.4,1.252-2.057
	c0.477-0.656,0.952-1.297,1.43-1.922c0.477-0.627,0.924-1.267,1.341-1.923c0.416-0.655,0.715-1.399,0.894-2.235
	c0.357-1.311,0.492-2.668,0.402-4.068c-0.089-1.399-0.373-2.727-0.85-3.979c-0.478-1.252-1.148-2.398-2.011-3.442
	c-0.865-1.042-1.922-1.862-3.175-2.459c-1.372-0.655-2.787-1.087-4.246-1.296c-1.462-0.209-2.906-0.209-4.337,0
	c-1.43,0.209-2.847,0.596-4.247,1.162c-1.401,0.567-2.697,1.267-3.889,2.102c-2.266,1.55-4.233,3.457-5.901,5.722
	c-1.67,2.266-3.026,4.709-4.068,7.331c-1.043,2.624-1.743,5.336-2.101,8.137c-0.357,2.803-0.328,5.544,0.089,8.226
	c0.237,1.491,0.685,2.996,1.341,4.516c0.656,1.521,1.49,2.876,2.504,4.068c1.549,1.848,3.233,3.1,5.052,3.755
	c1.817,0.656,3.695,0.91,5.633,0.76c1.936-0.147,3.889-0.626,5.856-1.431c1.967-0.805,3.874-1.788,5.722-2.95
	c1.847-1.162,3.59-2.414,5.23-3.755c1.64-1.342,3.085-2.607,4.337-3.8c1.907-1.848,3.769-3.666,5.588-5.455
	c1.818-1.788,3.59-3.665,5.32-5.632c0.238-0.298,0.566-0.655,0.984-1.073c0.416-0.416,0.833-0.863,1.251-1.342
	c0.417-0.477,0.79-0.953,1.118-1.43c0.327-0.477,0.551-0.895,0.671-1.252c0.179-0.596,0.074-0.895-0.313-0.895
	c-0.389,0-0.88-0.029-1.476-0.089c-1.251-0.06-2.026-0.163-2.324-0.313c-0.299-0.148-0.447-0.491-0.447-1.027
	c-0.12-1.311,0.327-2.16,1.341-2.549c1.013-0.387,3.188-0.551,6.527-0.491c0.595,0.06,1.073-0.09,1.431-0.448
	c2.682-2.74,5.289-5.588,7.823-8.538c2.533-2.95,5.066-5.901,7.6-8.852c2.533-2.951,5.111-5.841,7.734-8.673
	c2.622-2.83,5.394-5.528,8.315-8.092c1.847-1.549,3.814-3.04,5.901-4.47c2.085-1.431,4.261-2.562,6.527-3.397
	c0.953-0.358,1.981-0.7,3.084-1.029c1.103-0.327,2.22-0.565,3.353-0.715c1.131-0.147,2.249-0.163,3.353-0.044
	c1.102,0.12,2.159,0.418,3.174,0.895c1.907,0.954,3.024,2.34,3.353,4.157c0.328,1.819,0.253,3.681-0.223,5.588
	c-0.894,3.218-2.222,6.2-3.979,8.941c-1.759,2.743-3.502,5.514-5.23,8.315c-1.967,3.219-3.995,6.379-6.08,9.478
	c-2.087,3.1-4.173,6.229-6.259,9.388c-2.087,3.16-4.128,6.289-6.125,9.389c-1.998,3.1-3.95,6.258-5.856,9.477
	c-1.49,2.385-3.01,4.771-4.56,7.153c-1.551,2.385-2.861,4.888-3.934,7.51c-0.358,0.836-0.671,1.775-0.939,2.817
	c-0.268,1.043-0.73,1.922-1.385,2.638c-0.537,0.536-1.163,0.88-1.878,1.027c-0.715,0.149-1.475,0.21-2.28,0.18
	s-1.609-0.104-2.414-0.224c-0.805-0.119-1.536-0.148-2.191-0.09c-0.596,0.06-1.238-0.014-1.922-0.223
	c-0.686-0.209-1.149-0.611-1.386-1.207c-0.299-0.596-0.343-1.267-0.134-2.013c0.208-0.745,0.402-1.444,0.581-2.101
	c0.774-2.026,1.713-3.979,2.817-5.856c1.102-1.878,2.249-3.74,3.442-5.588c1.489-2.266,2.995-4.529,4.515-6.796
	c1.52-2.265,3.054-4.529,4.605-6.795c0.237-0.416,0.55-0.863,0.938-1.341c0.387-0.477,0.76-0.983,1.118-1.521
	c0.357-0.537,0.625-1.072,0.805-1.609s0.237-1.073,0.179-1.609c-0.121-0.416-0.329-0.729-0.627-0.938
	c-0.298-0.208-0.656-0.372-1.072-0.491c-0.417-0.119-0.85-0.193-1.297-0.225c-0.446-0.029-0.82-0.045-1.117-0.045
	c-1.252-0.118-2.504-0.162-3.755-0.134c-1.251,0.03-2.504,0.016-3.755-0.045c-1.312-0.118-2.638-0.118-3.979,0
	c-1.341,0.121-2.609,0.419-3.8,0.895c-1.014,0.417-1.893,1.133-2.638,2.146c-0.747,1.014-1.417,1.938-2.012,2.772
	c-0.835,1.192-1.609,2.34-2.325,3.442c-0.715,1.104-1.52,2.221-2.415,3.353c-1.788,2.266-3.621,4.456-5.499,6.571
	c-1.877,2.117-3.831,4.188-5.856,6.214c-1.073,1.133-2.176,2.222-3.308,3.264c-1.133,1.044-2.295,2.072-3.487,3.085
	c-1.67,1.431-3.384,2.758-5.141,3.979c-1.759,1.223-3.607,2.266-5.544,3.13c-1.938,0.864-3.934,1.506-5.99,1.922
	C30.664,127.056,28.503,127.146,26.239,126.906z M89.273,81.575c1.371,0.061,2.577,0.076,3.622,0.045
	c1.042-0.029,1.712-0.103,2.011-0.224h0.179c0.715,0.121,1.476,0.179,2.28,0.179s1.564-0.118,2.28-0.357
	c0.834-0.297,1.4-0.76,1.699-1.385c0.298-0.627,0.685-1.297,1.162-2.013c0.358-0.655,0.76-1.265,1.207-1.833
	c0.448-0.564,0.85-1.176,1.208-1.832c0.833-1.371,1.684-2.713,2.548-4.023c0.864-1.311,1.744-2.623,2.638-3.935
	c1.728-2.504,3.398-5.037,5.007-7.6c1.609-2.562,3.188-5.125,4.739-7.689c0.358-0.476,0.774-1.146,1.251-2.011
	c0.477-0.863,0.818-1.713,1.028-2.549c0.209-0.834,0.148-1.534-0.178-2.101c-0.329-0.566-1.118-0.818-2.37-0.76
	c-1.133,0.12-2.28,0.373-3.442,0.76c-1.162,0.389-2.25,0.849-3.264,1.385c-1.908,1.073-3.681,2.37-5.319,3.89
	c-1.64,1.52-3.234,3.025-4.784,4.515c-2.504,2.504-4.844,5.097-7.019,7.779c-2.177,2.682-4.396,5.364-6.662,8.047
	c-0.775,0.894-1.52,1.804-2.235,2.728c-0.715,0.924-1.431,1.863-2.146,2.815c-0.179,0.239-0.462,0.552-0.849,0.939
	c-0.389,0.388-0.776,0.805-1.163,1.251c-0.388,0.447-0.73,0.881-1.028,1.297c-0.299,0.418-0.447,0.775-0.447,1.072
	c0,0.121-0.209,0.389-0.625,0.805c-0.479,0.418-0.657,0.658-0.537,0.716c0.119,0.06,0.774,0.12,1.967,0.179
	c0.595,0.061,1.103,0.09,1.52,0.09c0.417,0,0.626,0.03,0.626,0.09c0.059,0,0.164,0,0.313,0c0.148,0,0.342-0.029,0.582-0.09
	c0.237-0.059,0.76-0.104,1.564-0.135C87.44,81.59,88.319,81.575,89.273,81.575z"/>
<path fill="#C3EADB" d="M129.598,128.248c-0.715-0.06-1.417-0.179-2.101-0.357c-0.686-0.179-1.267-0.479-1.744-0.895
	c-0.775-0.715-1.296-1.488-1.564-2.324c-0.268-0.834-0.388-1.713-0.358-2.638c0.03-0.924,0.179-1.833,0.448-2.727
	c0.268-0.895,0.581-1.758,0.938-2.594c1.013-2.204,2.16-4.305,3.442-6.303c1.281-1.997,2.607-3.979,3.979-5.946
	c0.774-1.191,1.549-2.383,2.325-3.576c0.774-1.191,1.549-2.384,2.325-3.577c0.357-0.535,0.805-1.131,1.341-1.788
	c0.536-0.655,1.042-1.341,1.52-2.056c0.477-0.716,0.834-1.445,1.072-2.19s0.209-1.445-0.088-2.102
	c-0.299-0.595-0.731-0.895-1.297-0.895c-0.567,0-1.163,0.135-1.789,0.403c-0.625,0.268-1.237,0.611-1.833,1.027
	c-0.597,0.418-1.015,0.715-1.251,0.895c-1.133,0.835-2.177,1.743-3.13,2.727c-0.954,0.984-1.877,1.982-2.771,2.995l-2.95,3.487
	c-2.088,2.385-3.921,4.904-5.499,7.556c-1.58,2.652-3.234,5.319-4.962,8.002c-1.133,1.729-2.266,3.429-3.398,5.097
	c-1.133,1.669-2.295,3.309-3.487,4.917c-0.299,0.479-0.656,0.881-1.073,1.207c-0.417,0.328-0.925,0.522-1.52,0.581
	c-0.596,0.06-1.177,0.074-1.743,0.045c-0.567-0.03-1.148-0.045-1.744-0.045c-1.908,0-3.115-0.014-3.621-0.044
	c-0.507-0.03-0.85-0.104-1.029-0.225c-0.298-0.356-0.433-0.833-0.402-1.43c0.03-0.596,0.282-1.162,0.76-1.698
	c1.907-2.266,3.59-4.695,5.052-7.287c1.459-2.594,2.995-5.142,4.604-7.645c0.953-1.55,1.877-3.07,2.771-4.561
	c0.895-1.489,1.818-2.98,2.772-4.471c0.953-1.371,1.862-2.785,2.727-4.246c0.864-1.461,1.773-2.906,2.727-4.338
	c0.297-0.475,0.595-0.967,0.894-1.475c0.298-0.506,0.537-1.027,0.715-1.564c0.119-0.357,0.208-0.834,0.269-1.431
	c0.058-0.595,0.178-1.162,0.357-1.698c0.179-0.537,0.416-0.984,0.715-1.342c0.297-0.357,0.774-0.447,1.43-0.268
	c0.12,0.059,0.372,0.089,0.76,0.089c0.387,0,0.819-0.03,1.297-0.089c1.251-0.119,2.264-0.209,3.039-0.27
	c0.774-0.059,1.371-0.089,1.789-0.089c0.417,0,0.715,0.045,0.895,0.134c0.179,0.09,0.327,0.194,0.447,0.313
	c1.131,1.252,0.923,3.249-0.626,5.991c-0.179,0.298-0.299,0.521-0.357,0.67c-0.06,0.149-0.121,0.283-0.179,0.402l-0.089,0.179
	c0.179-0.358,0.521-0.7,1.028-1.028c0.506-0.327,0.908-0.641,1.207-0.939c0.477-0.357,0.923-0.699,1.341-1.027
	c0.416-0.327,0.864-0.641,1.341-0.939c1.192-0.773,2.415-1.459,3.666-2.056c1.252-0.595,2.563-1.042,3.934-1.341
	c0.894-0.18,1.847-0.225,2.861-0.135c1.013,0.09,1.953,0.328,2.817,0.715c0.864,0.389,1.594,0.939,2.191,1.654
	c0.595,0.716,0.923,1.641,0.983,2.771c0.119,2.088-0.224,4.055-1.028,5.901c-0.805,1.849-1.774,3.577-2.905,5.186
	c-1.252,1.789-2.519,3.563-3.8,5.32c-1.282,1.759-2.519,3.531-3.71,5.32c-1.73,2.444-3.25,4.947-4.56,7.511
	c-0.12,0.299-0.313,0.656-0.582,1.072c-0.269,0.418-0.492,0.865-0.671,1.341c-0.178,0.479-0.268,0.926-0.268,1.342
	c0,0.418,0.179,0.746,0.536,0.983c0.656,0.417,1.444,0.447,2.369,0.089c0.924-0.357,1.684-0.685,2.28-0.982
	c1.907-1.073,3.59-2.474,5.052-4.203c1.46-1.729,2.875-3.427,4.247-5.097c0.656-0.715,1.252-1.444,1.789-2.19
	c0.536-0.744,1.073-1.534,1.609-2.369c0.536-0.774,1.028-1.564,1.475-2.369c0.447-0.805,0.998-1.534,1.654-2.19
	c0.298-0.298,0.684-0.521,1.162-0.671c0.477-0.148,0.834,0.016,1.073,0.492c0.298,0.656,0.357,1.296,0.178,1.922
	c-0.178,0.626-0.477,1.252-0.894,1.878c-0.418,0.626-0.865,1.223-1.341,1.788c-0.478,0.567-0.894,1.059-1.252,1.476
	c-1.967,2.266-3.919,4.575-5.856,6.929c-1.938,2.355-4.068,4.486-6.393,6.393c-1.669,1.373-3.591,2.563-5.766,3.576
	C133.993,127.919,131.803,128.368,129.598,128.248z"/>
<path fill="#C3EADB" d="M151.235,126.817c-1.015-0.357-1.909-1.072-2.683-2.146c-0.537-0.834-0.894-1.802-1.073-2.906
	c-0.179-1.102-0.238-2.13-0.179-3.085c0.237-1.787,0.729-3.516,1.476-5.186c0.745-1.668,1.534-3.277,2.369-4.828
	c1.431-2.683,2.98-5.26,4.65-7.733c1.667-2.474,3.277-5.021,4.828-7.646c0.656-1.013,1.297-2.041,1.922-3.084
	c0.626-1.042,0.998-2.19,1.118-3.442c0.059-0.417,0.134-0.85,0.223-1.297c0.09-0.446,0.283-0.818,0.582-1.118
	c0.655-0.654,1.654-1.041,2.995-1.162c1.342-0.118,2.428-0.207,3.264-0.268c0.416-0.059,0.893-0.104,1.43-0.135
	c0.536-0.028,1.042,0,1.52,0.09c0.476,0.09,0.894,0.269,1.251,0.537c0.357,0.268,0.566,0.701,0.626,1.296
	c0.059,0.776-0.044,1.564-0.313,2.369s-0.625,1.581-1.073,2.325c-0.447,0.746-0.938,1.49-1.475,2.234
	c-0.536,0.746-0.983,1.418-1.341,2.013c-1.729,2.682-3.429,5.364-5.096,8.047c-1.67,2.683-3.309,5.425-4.918,8.226
	c-0.12,0.238-0.373,0.671-0.76,1.297c-0.389,0.625-0.805,1.341-1.252,2.146c-0.446,0.805-0.879,1.64-1.296,2.504
	c-0.417,0.864-0.701,1.669-0.85,2.413c-0.149,0.747-0.12,1.357,0.089,1.833c0.208,0.479,0.671,0.716,1.386,0.716
	c0.773,0.06,1.534-0.104,2.28-0.491c0.745-0.388,1.46-0.879,2.146-1.476c0.685-0.596,1.326-1.236,1.922-1.923
	c0.595-0.685,1.132-1.297,1.61-1.833c1.549-1.668,2.996-3.397,4.336-5.186s2.606-3.636,3.8-5.543
	c0.179-0.358,0.416-0.895,0.715-1.609c0.297-0.716,0.625-1.415,0.983-2.102c0.357-0.685,0.774-1.236,1.251-1.654
	c0.477-0.416,1.013-0.506,1.61-0.269c0.536,0.239,0.639,0.865,0.313,1.878c-0.328,1.015-0.938,2.235-1.833,3.666
	c-0.895,1.431-1.953,2.981-3.174,4.649c-1.223,1.67-2.43,3.233-3.622,4.694c-1.192,1.461-2.25,2.727-3.174,3.8
	c-0.925,1.073-1.536,1.759-1.833,2.056c-0.715,0.716-1.669,1.581-2.861,2.594c-1.193,1.014-2.459,1.953-3.801,2.816
	c-1.341,0.864-2.726,1.506-4.157,1.922C153.738,127.234,152.426,127.234,151.235,126.817z"/>
<path fill="#C3EADB" d="M162.412,127.085c-0.299-0.119-0.492-0.298-0.581-0.536c-0.09-0.238-0.074-0.626,0.044-1.163
	c0.059-1.072,0.477-2.057,1.251-2.95c0.774-0.894,1.46-1.758,2.057-2.593c2.503-3.576,4.813-7.242,6.929-10.997
	c2.115-3.756,4.306-7.511,6.571-11.266c0.953-1.551,1.952-3.1,2.996-4.65c1.042-1.549,1.802-3.219,2.28-5.006
	c0.179-0.656,0.313-1.342,0.402-2.058s0.492-1.221,1.207-1.521c0.834-0.416,1.713-0.58,2.638-0.49
	c0.923,0.09,1.802,0.074,2.638-0.045c0.656-0.119,1.431-0.209,2.325-0.269c0.894-0.059,1.609,0.21,2.146,0.804
	c0.357,0.479,0.477,1.015,0.357,1.609c-0.12,0.598-0.24,1.134-0.357,1.61c-0.121,0.358-0.269,0.701-0.447,1.028
	c-0.179,0.328-0.21,0.67-0.09,1.027c0-0.058,0.268-0.281,0.805-0.67c0.537-0.387,1.146-0.834,1.833-1.341
	c0.685-0.506,1.341-0.968,1.967-1.386c0.626-0.416,0.997-0.686,1.118-0.805c1.012-0.655,2.086-1.221,3.219-1.699
	c1.131-0.477,2.293-0.744,3.486-0.805c1.729-0.059,3.219,0.389,4.471,1.342s1.937,2.355,2.057,4.201
	c0,0.479-0.016,0.939-0.045,1.387c-0.03,0.447-0.044,0.91-0.044,1.385c0.297-0.236,0.536-0.446,0.715-0.625
	c0.179-0.18,0.342-0.342,0.491-0.492c0.148-0.147,0.253-0.223,0.313-0.223c0.537-0.655,1.133-1.252,1.789-1.789
	c1.132-1.131,2.443-2.114,3.935-2.951c1.072-0.595,2.189-1.072,3.353-1.43c1.162-0.357,2.339-0.596,3.532-0.715
	c1.19-0.119,2.235-0.119,3.128,0c0.895,0.119,1.759,0.596,2.594,1.43c0.237,0.24,0.447,0.434,0.626,0.582
	c0.179,0.149,0.357,0.373,0.536,0.67c0.477,1.193,0.671,2.475,0.581,3.846c-0.089,1.371-0.343,2.652-0.76,3.844
	c-0.836,2.267-1.878,4.426-3.129,6.482c-1.253,2.056-2.534,4.099-3.845,6.124c-0.836,1.372-1.699,2.742-2.594,4.113
	c-0.894,1.372-1.759,2.742-2.593,4.112c-0.179,0.3-0.491,0.776-0.938,1.431c-0.447,0.657-0.85,1.357-1.207,2.102
	c-0.357,0.746-0.611,1.461-0.76,2.146c-0.149,0.687-0.045,1.207,0.313,1.565c0.417,0.418,0.939,0.552,1.565,0.402
	c0.625-0.148,1.146-0.313,1.564-0.492c1.31-0.595,2.503-1.399,3.576-2.414c1.073-1.013,2.115-1.996,3.129-2.95
	c1.847-1.729,3.487-3.636,4.918-5.722c1.431-2.087,2.83-4.172,4.202-6.26c0.237-0.416,0.582-0.894,1.028-1.431
	c0.447-0.536,0.938-0.595,1.476-0.179c0.715,0.479,0.863,1.252,0.447,2.325c-0.418,1.073-1.028,2.19-1.833,3.353
	c-0.805,1.163-1.654,2.266-2.549,3.309c-0.894,1.043-1.49,1.743-1.788,2.101c-1.015,1.372-2.071,2.669-3.174,3.89
	c-1.104,1.223-2.311,2.369-3.621,3.442c-0.656,0.536-1.296,1.059-1.923,1.564c-0.626,0.508-1.267,1.028-1.922,1.564
	c-0.894,0.716-1.953,1.387-3.175,2.012c-1.222,0.626-2.503,1.073-3.845,1.341c-1.341,0.269-2.652,0.328-3.933,0.18
	c-1.283-0.149-2.43-0.671-3.443-1.564c-0.894-0.835-1.416-1.833-1.564-2.996c-0.149-1.162-0.06-2.338,0.269-3.531
	c0.326-1.191,0.774-2.369,1.341-3.531c0.566-1.163,1.087-2.16,1.565-2.996c0.833-1.549,1.653-3.069,2.458-4.56
	c0.805-1.489,1.684-2.919,2.638-4.292c0.834-1.251,1.699-2.473,2.593-3.666c0.895-1.191,1.699-2.442,2.414-3.755
	c0.416-0.715,0.79-1.444,1.118-2.191c0.326-0.744,0.551-1.533,0.671-2.369c0.118-0.535,0.147-1.086,0.089-1.653
	c-0.061-0.565-0.417-0.968-1.073-1.207c-0.656-0.298-1.386-0.224-2.19,0.224s-1.476,0.88-2.012,1.297
	c-2.503,1.848-4.68,4.128-6.527,6.84c-1.848,2.713-3.546,5.379-5.096,8.002c-1.849,3.04-3.637,6.051-5.365,9.03
	c-1.729,2.981-3.546,5.962-5.454,8.941c-0.417,0.597-0.805,1.207-1.162,1.833c-0.357,0.625-0.864,1.117-1.52,1.475
	c-0.536,0.239-1.118,0.387-1.744,0.447c-0.625,0.059-1.267,0.09-1.922,0.09c-0.299,0-0.715,0-1.252,0
	c-0.536,0-1.088-0.031-1.654-0.09c-0.567-0.061-1.088-0.148-1.565-0.269c-0.478-0.118-0.805-0.326-0.983-0.626
	c-0.24-0.297-0.329-0.64-0.269-1.027c0.059-0.388,0.179-0.774,0.358-1.162c0.178-0.388,0.371-0.761,0.581-1.118
	c0.208-0.357,0.402-0.655,0.582-0.895c2.325-3.755,4.604-7.523,6.839-11.311c2.235-3.784,4.484-7.614,6.751-11.489
	c0.118-0.237,0.521-0.952,1.207-2.146c0.684-1.192,1.311-2.443,1.877-3.755c0.566-1.311,0.924-2.473,1.073-3.487
	c0.147-1.013-0.255-1.46-1.207-1.341c-1.67,0.238-3.249,1.027-4.739,2.369c-1.49,1.341-2.802,2.608-3.934,3.799
	c-1.372,1.373-2.623,2.832-3.755,4.383c-1.133,1.55-2.235,3.128-3.308,4.738c-1.848,2.86-3.742,5.678-5.678,8.449
	c-1.938,2.771-3.771,5.648-5.499,8.628c-0.239,0.418-0.448,0.909-0.626,1.476c-0.179,0.566-0.402,1.133-0.671,1.699
	s-0.567,1.072-0.894,1.519c-0.328,0.448-0.76,0.761-1.296,0.939c-0.121,0-0.239,0.031-0.358,0.09c-0.12,0.06-0.239,0.12-0.357,0.178
	c-0.299,0.12-0.88,0.21-1.744,0.269c-0.864,0.06-1.774,0.09-2.727,0.09c-0.955,0-1.849,0-2.683,0
	C163.186,127.264,162.649,127.204,162.412,127.085z"/>
<path fill="#C3EADB" d="M238.054,126.906l-0.179-0.089c-1.073-0.357-1.923-0.938-2.548-1.743c-0.626-0.805-1.089-1.713-1.387-2.728
	c-0.299-1.013-0.462-2.07-0.491-3.174c-0.031-1.103,0.014-2.131,0.134-3.085c0.18-1.43,0.506-2.92,0.983-4.47
	c0.655-1.967,1.521-3.874,2.593-5.723c1.61-2.683,3.338-5.244,5.187-7.689c1.847-2.443,3.963-4.708,6.348-6.795
	c0.655-0.596,1.342-1.162,2.057-1.699c0.716-0.536,1.46-1.072,2.235-1.609c1.132-0.715,2.279-1.399,3.442-2.057
	c1.162-0.654,2.398-1.221,3.71-1.699c1.073-0.416,2.16-0.834,3.264-1.251c1.103-0.416,2.249-0.626,3.442-0.626
	c0.536,0.061,1.087,0.12,1.654,0.18c0.565,0.059,1.117,0.179,1.654,0.357c0.834,0.238,1.415,0.715,1.743,1.43
	c0.327,0.715,0.729,1.401,1.207,2.057c-0.061-0.119,0.074-0.432,0.402-0.939c0.327-0.505,0.551-0.818,0.671-0.938
	c0.357-0.596,0.894-1.043,1.609-1.342c0.894-0.357,1.892-0.506,2.995-0.446c1.102,0.06,2.16,0.06,3.174,0
	c0.477,0,0.953-0.104,1.431-0.313c0.477-0.209,0.952-0.163,1.431,0.135c0.298,0.179,0.477,0.417,0.536,0.715
	c0.059,0.299,0.03,0.582-0.09,0.85c-0.119,0.268-0.268,0.552-0.446,0.85s-0.328,0.536-0.447,0.715
	c-1.849,2.742-3.576,5.529-5.186,8.359c-1.609,2.832-3.249,5.678-4.918,8.539c-0.478,0.835-0.954,1.669-1.431,2.504
	c-0.478,0.835-0.983,1.669-1.52,2.503c-1.072,1.729-2.206,3.518-3.397,5.365c-1.193,1.848-2.027,3.814-2.504,5.9
	c-0.12,0.358-0.179,0.775-0.179,1.252c0,0.478,0.238,0.836,0.715,1.073c0.358,0.179,0.774,0.194,1.253,0.044
	c0.476-0.147,0.952-0.386,1.43-0.715c0.477-0.327,0.924-0.67,1.342-1.028c0.416-0.357,0.744-0.626,0.983-0.805
	c1.311-1.252,2.563-2.503,3.755-3.755c1.191-1.252,2.384-2.563,3.577-3.934c1.013-1.192,1.995-2.384,2.95-3.577
	c0.952-1.191,1.847-2.443,2.682-3.756c0.119-0.178,0.282-0.432,0.492-0.76c0.208-0.326,0.446-0.595,0.715-0.805
	c0.269-0.208,0.537-0.326,0.805-0.356c0.269-0.03,0.521,0.134,0.76,0.49c0.18,0.3,0.225,0.612,0.135,0.939
	c-0.089,0.328-0.239,0.656-0.447,0.983c-0.21,0.328-0.433,0.626-0.67,0.895c-0.239,0.269-0.448,0.491-0.626,0.671
	c-0.597,0.715-1.163,1.461-1.699,2.235s-1.133,1.52-1.788,2.235c-0.418,0.596-0.85,1.161-1.296,1.698
	c-0.448,0.536-0.91,1.073-1.387,1.609c-1.073,1.252-2.161,2.489-3.263,3.711c-1.104,1.222-2.222,2.429-3.354,3.62
	c-0.775,0.836-1.743,1.744-2.906,2.728c-1.162,0.983-2.399,1.788-3.71,2.414c-1.312,0.626-2.624,0.969-3.935,1.028
	c-1.312,0.061-2.503-0.447-3.576-1.521c-1.014-0.952-1.654-2.115-1.922-3.486c-0.269-1.371-0.255-2.712,0.044-4.024
	c0.119-0.297,0.238-0.595,0.358-0.894c0.118-0.298,0.147-0.595,0.09-0.894c-0.3,0.06-0.582,0.254-0.851,0.58
	c-0.268,0.329-0.522,0.612-0.76,0.851c-0.478,0.417-0.909,0.835-1.296,1.251c-0.389,0.418-0.791,0.865-1.207,1.341
	c-1.849,1.968-3.935,3.608-6.259,4.918c-1.193,0.716-2.534,1.268-4.023,1.654C240.854,127.249,239.424,127.264,238.054,126.906z
	 M246.279,120.648c1.61-0.774,3.055-1.773,4.336-2.996c1.282-1.221,2.489-2.518,3.622-3.889c1.907-2.384,3.725-4.813,5.454-7.287
	c1.728-2.473,3.338-5.051,4.828-7.734c0.655-1.191,1.31-2.383,1.967-3.575c0.655-1.192,1.222-2.444,1.698-3.756
	c0.238-0.774,0.433-1.609,0.582-2.504c0.148-0.894-0.045-1.698-0.582-2.414c-0.656-0.834-1.52-1.132-2.592-0.894
	c-1.073,0.238-1.998,0.567-2.771,0.983c-2.146,1.193-4.069,2.832-5.768,4.918c-1.699,2.086-3.264,4.112-4.694,6.08
	c-0.836,1.072-1.609,2.176-2.324,3.308c-0.716,1.133-1.462,2.267-2.235,3.397c-0.775,1.133-1.491,2.295-2.146,3.487
	c-0.657,1.193-1.313,2.414-1.968,3.665c-0.238,0.537-0.522,1.134-0.85,1.789c-0.328,0.656-0.611,1.341-0.85,2.056
	c-0.238,0.716-0.401,1.417-0.491,2.102c-0.089,0.686,0.014,1.327,0.313,1.923c0.476,1.014,1.102,1.595,1.877,1.743
	C244.461,121.2,245.325,121.066,246.279,120.648z"/>
<path fill="#C3EADB" d="M292.648,99.368h17.076v5.186h-17.076V99.368z"/>
<path fill="#C3EADB" d="M317.833,126.817c-0.835-0.237-1.669-0.685-2.503-1.341c-1.431-1.073-2.34-2.398-2.728-3.979
	c-0.387-1.579-0.478-3.233-0.268-4.963c0.208-1.729,0.641-3.427,1.295-5.097c0.656-1.667,1.342-3.129,2.058-4.381
	c2.265-4.231,4.695-8.404,7.287-12.518c2.593-4.113,5.32-8.105,8.182-11.98c0.895-1.073,1.609-2.086,2.146-3.04
	c0.177-0.358,0.371-0.774,0.58-1.251c0.208-0.477,0.521-0.805,0.938-0.984c-0.357-0.298-0.894-0.461-1.609-0.492
	c-0.716-0.029-1.401-0.059-2.056-0.09c-0.657-0.028-1.223-0.162-1.699-0.402c-0.479-0.236-0.657-0.715-0.536-1.43
	c0.117-0.655,0.461-1.103,1.028-1.342c0.564-0.236,1.19-0.371,1.877-0.402c0.685-0.028,1.371,0,2.057,0.09
	c0.684,0.09,1.235,0.105,1.654,0.045c0.833-0.119,1.578-0.416,2.235-0.895c0.655-0.477,1.252-1.057,1.787-1.744
	c0.537-0.684,1.013-1.398,1.433-2.145c0.416-0.745,0.803-1.445,1.161-2.102c0.654-1.191,1.296-2.383,1.922-3.577
	c0.626-1.191,1.207-2.414,1.743-3.666c0.18-0.476,0.358-1.028,0.537-1.654c0.178-0.625,0.371-1.251,0.581-1.877
	c0.208-0.626,0.446-1.222,0.715-1.789c0.269-0.566,0.61-1.028,1.028-1.386c0.477-0.357,1.044-0.595,1.698-0.715
	c0.655-0.119,1.342-0.178,2.058-0.178c0.715,0,1.43,0.031,2.146,0.089c0.716,0.061,1.371,0.031,1.968-0.089
	c0.716-0.119,1.519-0.193,2.412-0.224c0.896-0.029,1.581,0.374,2.058,1.207c0.297,0.597,0.313,1.268,0.044,2.012
	c-0.268,0.746-0.521,1.417-0.76,2.012c-0.478,1.372-1.117,2.682-1.921,3.935c-0.806,1.251-1.597,2.533-2.37,3.844
	c-0.836,1.431-1.818,2.906-2.95,4.426c-1.134,1.521-1.938,3.116-2.414,4.783c0.356,0.121,0.805,0.166,1.34,0.135
	c0.537-0.029,1.089-0.059,1.655-0.09c0.565-0.029,1.102-0.029,1.609,0c0.505,0.031,0.938,0.165,1.297,0.402
	c0.416,0.357,0.476,0.895,0.177,1.609c-0.297,0.715-0.654,1.193-1.07,1.431c-0.836,0.478-1.775,0.642-2.817,0.492
	c-1.044-0.147-2.012-0.192-2.905-0.134c-1.253,0-2.235,0.372-2.951,1.117c-0.716,0.746-1.372,1.625-1.968,2.638
	c-2.803,4.53-5.573,9.03-8.314,13.501c-2.742,4.471-5.632,8.911-8.674,13.322c-0.774,1.133-1.49,2.295-2.145,3.486
	c-0.658,1.193-1.133,2.445-1.431,3.756c-0.299,1.014-0.327,1.878-0.089,2.593c0.235,0.716,0.626,1.252,1.161,1.609
	c0.537,0.357,1.192,0.507,1.968,0.447c0.774-0.059,1.609-0.327,2.503-0.805c1.55-0.834,2.906-1.923,4.068-3.264
	s2.279-2.696,3.354-4.068c1.31-1.609,2.577-3.232,3.8-4.873c1.221-1.638,2.486-3.263,3.799-4.872c0.18-0.18,0.521-0.596,1.027-1.252
	c0.507-0.655,1.06-1.297,1.656-1.922c0.594-0.627,1.176-1.118,1.744-1.477c0.564-0.357,0.996-0.326,1.295,0.09
	c0.297,0.479,0.268,1.148-0.089,2.012c-0.358,0.864-0.819,1.759-1.387,2.683c-0.567,0.925-1.161,1.788-1.787,2.593
	s-1.06,1.356-1.297,1.654c-1.134,1.551-2.34,3.026-3.622,4.426c-1.282,1.4-2.579,2.787-3.889,4.157
	c-1.251,1.312-2.637,2.803-4.157,4.471c-1.521,1.67-3.174,3.174-4.963,4.516c-1.788,1.341-3.665,2.34-5.633,2.994
	C321.945,127.562,319.92,127.533,317.833,126.817z"/>
<path fill="#C3EADB" d="M348.323,127.174c-1.551-0.118-2.983-0.565-4.293-1.341c-1.729-1.013-2.892-2.294-3.486-3.845
	c-0.597-1.549-0.851-3.203-0.76-4.962c0.089-1.758,0.416-3.517,0.983-5.275c0.564-1.758,1.176-3.322,1.832-4.694
	c1.609-3.694,3.622-7.137,6.035-10.327c2.414-3.188,5.32-5.974,8.717-8.359c2.087-1.489,4.366-2.757,6.841-3.8
	c2.473-1.043,4.992-1.713,7.555-2.012c2.803-0.298,4.619,0.328,5.454,1.877c0.896,1.609,1.281,3.175,1.163,4.695
	c-0.121,1.52-0.581,2.95-1.386,4.291s-1.879,2.593-3.219,3.756c-1.341,1.162-2.772,2.234-4.292,3.218
	c-1.519,0.983-3.056,1.833-4.604,2.549c-1.551,0.715-2.922,1.312-4.112,1.788c-1.374,0.536-2.609,1.014-3.711,1.431
	c-1.103,0.417-2.072,0.925-2.906,1.52c-0.835,0.597-1.564,1.356-2.189,2.28c-0.626,0.925-1.15,2.132-1.566,3.621
	c-0.298,0.954-0.432,1.893-0.401,2.816c0.029,0.925,0.237,1.773,0.626,2.548c0.387,0.775,0.938,1.387,1.653,1.833
	c0.716,0.447,1.669,0.671,2.86,0.671c1.133,0,2.235-0.208,3.31-0.626c1.074-0.417,2.087-0.953,3.04-1.609
	c0.953-0.655,1.861-1.386,2.727-2.19c0.863-0.805,1.655-1.624,2.369-2.459c1.728-1.907,3.413-3.874,5.052-5.901
	c1.639-2.025,3.175-4.082,4.604-6.169c0.119-0.18,0.343-0.582,0.672-1.207c0.326-0.626,0.67-1.192,1.027-1.698
	c0.358-0.507,0.716-0.805,1.073-0.895s0.627,0.283,0.805,1.117c0.238,1.015-0.015,2.043-0.76,3.085
	c-0.745,1.043-1.418,1.922-2.012,2.638c-1.551,1.908-3.056,3.875-4.516,5.9c-1.462,2.027-2.996,3.965-4.605,5.812
	c-1.609,1.849-3.382,3.548-5.319,5.097c-1.937,1.552-4.099,2.803-6.482,3.755c-1.252,0.479-2.518,0.82-3.799,1.029
	C351.019,127.338,349.692,127.354,348.323,127.174z M355.832,103.571c0.478-0.119,0.999-0.328,1.566-0.626
	c0.564-0.298,0.908-0.477,1.027-0.537c1.729-1.013,3.353-2.235,4.872-3.666c1.521-1.431,2.876-2.919,4.069-4.47
	c0.716-0.895,1.399-1.908,2.056-3.041c0.656-1.131,1.013-2.293,1.072-3.486c0.059-0.477-0.075-0.938-0.401-1.387
	c-0.329-0.446-0.76-0.609-1.297-0.491c-0.714,0.179-1.43,0.612-2.146,1.297c-0.714,0.687-1.311,1.268-1.787,1.743
	c-0.357,0.418-0.716,0.82-1.073,1.207c-0.358,0.389-0.686,0.761-0.984,1.117c-0.953,1.193-1.877,2.371-2.771,3.532
	c-0.894,1.162-1.758,2.369-2.593,3.622c-0.12,0.178-0.373,0.566-0.76,1.161c-0.389,0.597-0.745,1.223-1.074,1.879
	c-0.327,0.656-0.521,1.206-0.579,1.653C354.968,103.526,355.235,103.691,355.832,103.571z"/>
<path fill="#C3EADB" d="M364.942,40.858c3.722,4.439,11.988,21.326,2.873,25.073c-5.041,2.069-3.139,11.233,1.963,9.139
	c9.871-4.059,11.375-13.723,9.283-24.344c-1.223-6.189-4.498-11.534-8.02-16.367c-6.314-8.675-15.352-11.647-6.438-23.846
	c3.385-4.634-2.402-11.49-5.84-6.791c-5.521,7.561-10.148,15.697-4.615,24.818C357.001,33.235,361.489,36.736,364.942,40.858z"/>
<path fill="#C3EADB" d="M170.077,52.714c3.445,2.979,11.102,14.31,2.66,16.825c-4.668,1.389-2.905,7.537,1.818,6.131
	c9.141-2.723,10.534-9.207,8.597-16.334c-1.133-4.153-4.165-7.739-7.426-10.982c-5.848-5.821-14.217-7.815-5.962-16.001
	c3.135-3.11-2.225-7.71-5.407-4.557c-5.113,5.073-9.398,10.533-4.273,16.654C162.724,47.599,166.88,49.948,170.077,52.714z"/>
</svg>
