<svg xmlns="http://www.w3.org/2000/svg" width="389.576" height="129.075" viewBox="0 0 389.576 129.075"><g fill="#DFF4ED"><path d="M56.434 94.044c.7-1.926.244-4.348-1.394-5.54-.865-3.296-1.805-6.563-2.907-9.77-2.685-7.802-8.042-23.175-18.836-21.992-11.98 1.313-17.055 16.054-20.29 25.745-4.65 13.916-6.444 28.523-9.572 42.803-1.16 5.293 6.916 7.768 8.08 2.45 2.234-10.19 3.833-20.73 6.218-30.89.095-.402.184-.492.295-1.49l30.703.836c3.39 12.097 6.073 22.994 7.185 25.84 1.973 5.054 9.348 1.05 7.393-3.957-3.027-7.754-4.878-15.865-6.874-24.036zM20.18 86.417c2.213-7.943 5.588-17.21 12.044-21.212 4.378-2.713 9.384 8.79 13.715 21.91-8.587-.23-17.175-.463-25.76-.698zM97.56 85.984c-6.72-1.98-13.632 1.596-16.924 7.428-.496.88-.896 1.793-1.23 2.734-.2-1.705-.337-3.43-.347-5.182-.03-5.44-8.47-5.734-8.442-.29.056 10.765 3.183 20.946 8.418 30.303 2 3.576 7.887 2.356 7.918-1.892.05-6.672-2.93-31.896 11.03-23.8 7.836 4.548 10.074 18.33 11.385 26.433.87 5.38 9.076 3.378 8.212-1.964-1.99-12.3-6.41-29.764-20.02-33.77zM128.866 94.083c-.784-5.393-8.99-3.38-8.212 1.963.97 6.678 2.48 13.482 5.68 19.48 2.56 4.8 9.962.732 7.396-4.074-2.84-5.32-4.003-11.45-4.864-17.37zM124.07 83.873c5.452.148 5.73-8.29.292-8.438-5.452-.15-5.728 8.29-.29 8.438zM184.172 87.46c-4.57.847-7.58 3.378-9.548 6.79-2.4-4.98-6.1-8.642-12.037-9.116-8.06-.648-12.403 2.623-14.672 7.59-.218-.98-.433-1.965-.65-2.95-1.166-5.323-9.376-3.352-8.21 1.962 1.84 8.396 3.74 16.562 7.472 24.342 1.735 3.62 8.244 2.308 7.92-1.894-.272-3.49-.53-6.965-.566-10.468-.073-7.24 6.617-15.598 12.444-6.635 4.678 7.198 4.274 18.104 5.545 26.337.72 4.682 8.716 3.906 8.326-.836-.54-6.556-3.287-28.626 7.89-26.53 7.472 1.398 9.336 24.14 13.013 30.17 2.818 4.63 10.236.59 7.395-4.074-6.185-10.146-5.805-38.11-24.323-34.685zM252.175 110.805c-6.51 1.923-11.33-2.756-12.247-8.465.57-2.21.82-4.552.665-6.983-.167-2.604-2.207-4.193-4.26-4.28-.188-.177-.38-.35-.61-.503-6.52-4.367-17.646-6.303-23.915-.23-5.936 5.746-7.033 15.12-1.595 21.536 4.343 5.118 12.856 5.32 18.61 3.065 2.246-.88 4.152-2.12 5.77-3.592 4.023 6.246 11.314 10.092 19.547 7.668 5.2-1.534 3.263-9.755-1.965-8.215zm-20.83-9.858c-1.863 5.117-6.713 8.305-13.062 6.357-4.04-1.238-3.584-6.197-2.12-9.203 2.68-5.506 11.5-2.772 15.144-.33.063.04.122.06.184.097-.13 1.03-.18 2.058-.144 3.08zM277.827 93.422c-5.45-.147-10.897-.296-16.346-.444-5.45-.146-5.743 8.848-.306 8.995 5.45.147 10.896.298 16.346.444 5.45.15 5.743-8.845.307-8.995zM327.262 110.107c-3.958 4.674-6.16 7.07-8.396.36-2.168-6.51-2.594-13.66-3.032-20.45-.332-5.134.298-11.56.254-17.562 3.45.094 6.9.188 10.35.28 5.452.148 5.745-8.847.31-8.994-3.832-.103-7.66-.208-11.49-.312-.295-1.01-.654-2.6-1.146-3.784-2.01-4.84-8.908-1.49-7.557 3.548l-17.307-.47c-5.45-.15-5.744 8.846-.307 8.993 6.044.165 12.09.33 18.132.493-.063 3-.157 5.8-.11 7.536.252 9.136.747 18.318 2.38 27.324 2.615 14.432 12.686 22.22 23.762 9.146 3.477-4.107-2.316-10.267-5.842-6.107zM380.274 103.18c-9.88 6.93-26.207 10.207-29.314-5.474-.072-.368-.06-.72-.075-1.08.65.677 1.563 1.145 2.776 1.188 8.374.297 17.132 1.2 24.403-3.767 2.447-1.67 2.73-4.29 1.013-6.617-5.157-6.98-12.978-10.096-21.496-8.508-7.488 1.396-14.313 8.146-14.984 15.85-.82 9.444 5.357 18.31 13.923 21.82 8.978 3.68 20.45-.84 27.83-6.017 4.403-3.085.387-10.526-4.076-7.396zm-21.906-15.735c3.813-1.306 7.303-.46 10.236 1.537-4.418 1.086-9.186.633-13.822.43 1.117-.856 2.352-1.547 3.586-1.967zM359.44 36.42c3.722 3.99 11.988 19.167 2.873 22.534-5.04 1.86-3.138 10.097 1.963 8.214 9.87-3.647 11.375-12.333 9.283-21.88-1.223-5.562-4.5-10.365-8.02-14.71-6.315-7.796-15.35-10.467-6.437-21.43 3.385-4.166-2.403-10.328-5.84-6.104-5.522 6.795-10.148 14.108-4.615 22.306 2.85 4.22 7.34 7.365 10.792 11.07z"/></g></svg>