<?xml version="1.0" encoding="utf-8"?>
<!-- Generator: Adobe Illustrator 15.0.0, SVG Export Plug-In . SVG Version: 6.00 Build 0)  -->
<!DOCTYPE svg PUBLIC "-//W3C//DTD SVG 1.1//EN" "http://www.w3.org/Graphics/SVG/1.1/DTD/svg11.dtd">
<svg version="1.1" id="Capa_1" xmlns="http://www.w3.org/2000/svg" xmlns:xlink="http://www.w3.org/1999/xlink" x="0px" y="0px"
	 width="16px" height="16px" viewBox="0 0 16 16" enable-background="new 0 0 16 16" xml:space="preserve">
<path d="M14.55,2.509C14,2.286,13,2.2,12,2.225V0.89c0-0.344-2.295-0.305-5.563-0.305C3.379,0.585,0,1.459,0,1.459V14.96
	c0,0,3.392,0.456,6.438,0.456c3.268,0,5.563-0.376,5.563-0.72v-3.672c1,0.071,1.502,0.124,1.97,0.113
	c1.405-0.028,2.132-1.555,2.158-3.875C16.156,4.941,15.455,2.877,14.55,2.509z M14.086,8.958C13.768,9.063,13,8.98,12,8.861V4.092
	c1-0.137,2.607,0.917,2.707,1.952C14.82,7.232,14.768,8.732,14.086,8.958z"/>
</svg>
