<svg xmlns="http://www.w3.org/2000/svg" width="1024" height="77.811" viewBox="0 0 1024 77.811"><path fill="#BC1762" d="M1041-9.427H-1v74.175c0 7.215 11.518 13.063 25.727 13.063 14.208 0 25.727-5.846 25.727-13.062 0 7.216 10.203 13.063 22.79 13.063s22.79-5.846 22.79-13.062c0 7.216 11.52 13.063 25.727 13.063 14.21 0 25.728-5.846 25.728-13.062 0 7.216 10.204 13.063 22.79 13.063 12.59 0 22.792-5.846 22.792-13.062.022 7.205 11.532 13.043 25.727 13.043 14.194 0 25.704-5.837 25.726-13.042 0 7.216 10.205 13.063 22.79 13.063 12.588 0 22.792-5.846 22.792-13.062 0 7.216 11.52 13.063 25.726 13.063 14.21 0 25.728-5.846 25.728-13.062 0 7.215 11.518 13.063 25.726 13.063 14.208 0 25.727-5.846 25.727-13.062 0 7.216 10.205 13.063 22.79 13.063 12.588 0 22.792-5.846 22.792-13.062 0 7.216 11.518 13.063 25.726 13.063s25.727-5.846 25.727-13.062c0 7.216 10.204 13.063 22.79 13.063 12.59 0 22.792-5.846 22.792-13.062.022 7.205 11.53 13.043 25.727 13.043 14.193 0 25.704-5.837 25.726-13.042 0 7.216 10.205 13.063 22.79 13.063 12.588 0 22.792-5.846 22.792-13.062 0 7.216 11.52 13.063 25.727 13.063 14.208 0 25.726-5.846 25.726-13.062 0 7.215 11.518 13.063 25.727 13.063 14.207 0 25.726-5.846 25.726-13.062 0 7.216 10.203 13.063 22.79 13.063s22.79-5.846 22.79-13.062c0 7.216 11.518 13.063 25.726 13.063 14.21 0 25.727-5.846 25.727-13.062 0 7.216 10.204 13.063 22.79 13.063 12.59 0 22.793-5.846 22.793-13.062.022 7.205 11.53 13.043 25.727 13.043 14.192 0 25.703-5.837 25.726-13.042 0 7.216 10.204 13.063 22.79 13.063 12.588 0 22.79-5.846 22.79-13.062 0 7.216 11.52 13.063 25.727 13.063 14.21 0 25.727-5.846 25.727-13.062v-6.675h14.335v-67.5z"/></svg>