<?xml version="1.0" encoding="utf-8"?>
<!-- Generator: Adobe Illustrator 15.0.0, SVG Export Plug-In . SVG Version: 6.00 Build 0)  -->
<!DOCTYPE svg PUBLIC "-//W3C//DTD SVG 1.1//EN" "http://www.w3.org/Graphics/SVG/1.1/DTD/svg11.dtd">
<svg version="1.1" id="Capa_1" xmlns="http://www.w3.org/2000/svg" xmlns:xlink="http://www.w3.org/1999/xlink" x="0px" y="0px"
	 width="1024px" height="77.811px" viewBox="0 0 1024 77.811" enable-background="new 0 0 1024 77.811" xml:space="preserve">
<path fill="#BC1762" d="M1041.001-9.427H-1v61.52v5.98v6.675c0,7.215,11.518,13.063,25.727,13.063
	c14.208,0,25.727-5.847,25.727-13.063c0,7.216,10.203,13.063,22.79,13.063s22.791-5.847,22.791-13.063
	c0,7.216,11.518,13.063,25.726,13.063c14.208,0,25.727-5.847,25.727-13.063c0,7.216,10.204,13.063,22.79,13.063
	c12.589,0,22.792-5.847,22.792-13.063h0.001c0.021,7.205,11.531,13.043,25.726,13.043c14.194,0,25.704-5.838,25.726-13.043h0.001
	c0,7.216,10.204,13.063,22.79,13.063c12.587,0,22.791-5.847,22.791-13.063h0c0,7.216,11.519,13.063,25.726,13.063
	c14.209,0,25.727-5.847,25.727-13.063c0,7.215,11.518,13.063,25.726,13.063c14.208,0,25.727-5.847,25.727-13.063
	c0,7.216,10.204,13.063,22.79,13.063c12.587,0,22.791-5.847,22.791-13.063c0,7.216,11.518,13.063,25.726,13.063
	s25.727-5.847,25.727-13.063c0,7.216,10.204,13.063,22.79,13.063c12.589,0,22.792-5.847,22.792-13.063h0.001
	c0.021,7.205,11.53,13.043,25.726,13.043c14.193,0,25.704-5.838,25.726-13.043h0.001c0,7.216,10.204,13.063,22.79,13.063
	c12.587,0,22.791-5.847,22.791-13.063c0,7.216,11.519,13.063,25.727,13.063c14.209,0,25.727-5.847,25.727-13.063
	c0,7.215,11.518,13.063,25.727,13.063c14.207,0,25.726-5.847,25.726-13.063c0,7.216,10.204,13.063,22.79,13.063
	c12.588,0,22.79-5.847,22.79-13.063c0,7.216,11.519,13.063,25.727,13.063c14.209,0,25.727-5.847,25.727-13.063
	c0,7.216,10.204,13.063,22.79,13.063c12.589,0,22.793-5.847,22.793-13.063h0.001c0.021,7.205,11.53,13.043,25.726,13.043
	c14.192,0,25.703-5.838,25.726-13.043h0.001c0,7.216,10.204,13.063,22.79,13.063c12.588,0,22.79-5.847,22.79-13.063
	c0,7.216,11.52,13.063,25.727,13.063c14.209,0,25.727-5.847,25.727-13.063v-6.675h14.335V-9.427z"/>
</svg>
