<?xml version="1.0" encoding="utf-8"?>
<!DOCTYPE svg PUBLIC "-//W3C//DTD SVG 1.1//EN" "http://www.w3.org/Graphics/SVG/1.1/DTD/svg11.dtd">
<svg version="1.1" id="Capa_1" xmlns="http://www.w3.org/2000/svg" xmlns:xlink="http://www.w3.org/1999/xlink" x="0px" y="0px"
	 width="1024px" height="77.811px" viewBox="0 0 1024 77.811" enable-background="new 0 0 1024 77.811" xml:space="preserve">
<path fill="#BC1762" d="M1024,0H0v52.093v5.98v6.675c0,7.215,11.507,13.063,25.703,13.063c14.194,0,25.702-5.847,25.702-13.063
	c0,7.216,10.193,13.063,22.768,13.063s22.769-5.847,22.769-13.063c0,7.216,11.507,13.063,25.702,13.063
	c14.194,0,25.702-5.847,25.702-13.063c0,7.216,10.194,13.063,22.768,13.063c12.578,0,22.771-5.847,22.771-13.063h0.001
	c0.021,7.205,11.52,13.043,25.701,13.043c14.181,0,25.68-5.838,25.701-13.043h0.001c0,7.216,10.194,13.063,22.769,13.063
	c12.575,0,22.769-5.847,22.769-13.063l0,0c0,7.216,11.508,13.063,25.701,13.063c14.195,0,25.703-5.847,25.703-13.063
	c0,7.215,11.507,13.063,25.701,13.063s25.703-5.847,25.703-13.063c0,7.216,10.194,13.063,22.768,13.063
	c12.575,0,22.769-5.847,22.769-13.063c0,7.216,11.507,13.063,25.702,13.063c14.194,0,25.702-5.847,25.702-13.063
	c0,7.216,10.194,13.063,22.768,13.063c12.577,0,22.771-5.847,22.771-13.063h0.001c0.021,7.205,11.519,13.043,25.7,13.043
	c14.18,0,25.68-5.838,25.702-13.043h0.001c0,7.216,10.194,13.063,22.769,13.063s22.769-5.847,22.769-13.063
	c0,7.216,11.508,13.063,25.702,13.063c14.195,0,25.703-5.847,25.703-13.063c0,7.215,11.506,13.063,25.701,13.063
	c14.193,0,25.702-5.847,25.702-13.063c0,7.216,10.194,13.063,22.769,13.063c12.575,0,22.767-5.847,22.767-13.063
	c0,7.216,11.509,13.063,25.703,13.063c14.195,0,25.702-5.847,25.702-13.063c0,7.216,10.194,13.063,22.768,13.063
	c12.577,0,22.771-5.847,22.771-13.063h0.001c0.021,7.205,11.52,13.043,25.702,13.043c14.178,0,25.678-5.838,25.701-13.043l0,0
	c0,7.216,10.194,13.063,22.769,13.063c12.576,0,22.769-5.847,22.769-13.063c0,7.216,11.509,13.063,25.702,13.063
	c14.195,0,23.015-5.847,23.015-13.063V0z"/>
</svg>
