<?xml version="1.0" encoding="utf-8"?>
<!-- Generator: Adobe Illustrator 15.0.0, SVG Export Plug-In . SVG Version: 6.00 Build 0)  -->
<!DOCTYPE svg PUBLIC "-//W3C//DTD SVG 1.1//EN" "http://www.w3.org/Graphics/SVG/1.1/DTD/svg11.dtd">
<svg version="1.1" id="Capa_1" xmlns="http://www.w3.org/2000/svg" xmlns:xlink="http://www.w3.org/1999/xlink" x="0px" y="0px"
	 width="1024px" height="77.81px" viewBox="0 0 1024 77.81" style="enable-background:new 0 0 1024 77.81;" xml:space="preserve">
<style type="text/css">
<![CDATA[
	.st0{fill:#FC63AC;}
	.st1{fill:none;}
]]>
</style>
<g>
	<path class="st1" d="M1016.105,59.922c-7.022,6.182-15.549,10.614-27.567,13.053c-22.688,4.604-48.724,3.745-72.38,3.24
		c-47.076-1.002-89.462-14.629-116.574-37.027c-10.369,6.65-19.484,14.021-30.902,20.035c-15.237,8.028-34.311,12.594-54.689,13.48
		c-38.258,1.664-73.101-11.461-91.351-30.625c-0.152,0.085-0.314,0.166-0.471,0.25c-9.133,7.96-19.743,15.41-33.311,20.779
		c-17.134,6.782-37.602,9.377-58.015,9.439c-23.775,0.073-46.041-3.449-65.795-11.374c-14.237-5.713-27.076-12.508-40.811-18.611
		c-3.814,4.282-9.125,8.114-15.428,11.376c-3.982,2.417-8.498,4.558-13.186,6.394c-12.231,4.791-26.344,8.384-40.804,10.552
		c-7.429,1.555-15.004,2.592-23.258,2.494c-2.364-0.029-4.668-0.128-6.933-0.29c-39.729-0.563-76.717-15.136-102.878-32.577
		c-1.09-0.425-2.111-0.897-3.048-1.418c-11.888,8.147-19.265,18.632-36.788,23.429c-24.717,6.767-51.034,14.555-78.759,15.231
		c-25.241,0.618-51.507-4.002-71.805-12.96c-8.218-3.628-14.114-8.1-20.495-12.782C7.99,49.904,5,47.051,0,45.03l1024,6.576
		C1022,54.434,1019.133,57.256,1016.105,59.922z"/>
	<path class="st1" d="M0.5,34.227v0.81c0.479,0.116,0.965,0.228,1.431,0.356C1.434,35.012,0.961,34.622,0.5,34.227z"/>
	<path class="st0" d="M10.859,52.01c6.381,4.683,12.151,9.154,20.37,12.782c20.297,8.958,46.626,13.579,71.869,12.963
		c27.725-0.676,54.073-8.464,78.79-15.231c17.522-4.797,24.915-15.282,36.803-23.429c0.937,0.521,1.965,0.993,3.056,1.418
		C247.909,57.954,284.9,72.527,324.63,73.09c2.264,0.161,4.571,0.261,6.935,0.29c8.254,0.099,15.831-0.938,23.259-2.494
		c14.46-2.168,28.573-5.761,40.804-10.552c4.688-1.835,9.202-3.977,13.185-6.394c6.305-3.262,11.614-7.094,15.43-11.376
		c13.733,6.103,26.572,12.898,40.811,18.611c19.754,7.925,42.02,11.447,65.795,11.374c20.413-0.063,40.88-2.657,58.015-9.439
		c13.566-5.37,24.179-12.819,33.312-20.779c0.155-0.084,0.319-0.165,0.473-0.25c18.25,19.164,53.097,32.289,91.354,30.625
		c20.38-0.886,39.46-5.453,54.698-13.48c11.418-6.015,20.549-13.385,30.918-20.035c27.111,22.397,69.528,36.024,116.604,37.027
		c23.657,0.504,49.756,1.364,72.442-3.24c12.02-2.439,20.42-6.871,27.441-13.053c3.027-2.666,5.896-5.488,7.896-8.316V1H0v33.227
		c1,0.395,0.934,0.785,1.431,1.166C0.965,35.264,1,35.153,0,35.037v9.994C5,47.051,7.99,49.904,10.859,52.01z"/>
</g>
</svg>
