<svg xmlns="http://www.w3.org/2000/svg"  viewBox="0 0 4264 324"><path fill="#BC1762" d="M0 0v246l0.006-18c0.277 53.2 43.5 96.2 96.7 96.192c51.311 0 93.28-21.963 96.5-72.46 c3.221 50.5 45.2 72.5 96.5 72.46c51.311 0 93.28-21.963 96.5-72.46c3.221 50.5 45.2 72.5 96.5 72.5 c51.311 0 93.28-21.963 96.5-72.46c3.221 50.5 45.2 72.5 96.5 72.46c51.311 0 93.28-21.963 96.5-72.46 c3.221 50.5 45.2 72.5 96.5 72.46c51.311 0 93.28-21.963 96.5-72.46c3.221 50.5 45.2 72.5 96.5 72.5 c51.311 0 93.28-21.963 96.5-72.46c3.221 50.5 45.2 72.5 96.5 72.46c51.311 0 93.28-21.963 96.5-72.46 c3.221 50.5 45.2 72.5 96.5 72.46c51.311 0 93.28-21.963 96.5-72.46c3.221 50.5 45.2 72.5 96.5 72.5 c51.311 0 93.28-21.963 96.5-72.46c3.221 50.5 45.2 72.5 96.5 72.46c51.311 0 93.28-21.963 96.5-72.46 c3.221 50.5 45.2 72.5 96.5 72.46c51.312 0 93.282-21.965 96.5-72.464c3.218 50.5 45.2 72.5 96.5 72.5 s93.282-21.965 96.5-72.464c3.218 50.5 45.2 72.5 96.5 72.464s93.282-21.965 96.5-72.464 c3.218 50.5 45.2 72.5 96.5 72.464s93.282-21.965 96.5-72.464c3.218 50.5 45.2 72.5 96.5 72.5 s93.282-21.965 96.5-72.464c3.218 50.5 45.2 72.5 96.5 72.464s93.282-21.965 96.5-72.464 c3.218 50.5 45.2 72.5 96.5 72.464s93.282-21.965 96.5-72.464c3.218 50.5 45.2 72.5 96.5 72.5 s93.282-21.965 96.5-72.464c3.218 50.5 45.2 72.5 96.5 72.464s93.282-21.965 96.5-72.464 c3.218 50.5 45.2 72.5 96.5 72.464c51.336 0 93.321-22.003 96.505-72.536c3.328 50.5 47.2 72.5 100.9 72.5 c53.646 0 97.527-21.966 100.893-72.465c3.363 50.5 47.2 72.5 100.9 72.465c55.66 0 100.811-43.021 101.101-96.192l0.007 18 V0H0z"/></svg>
