<svg xmlns="http://www.w3.org/2000/svg" width="1024" height="77.811" viewBox="0 0 1024 77.811"><path fill="#BC1762" d="M1024 0H0v64.748c0 7.215 11.507 13.063 25.703 13.063 14.194 0 25.702-5.847 25.702-13.063 0 7.216 10.193 13.063 22.768 13.063s22.769-5.847 22.769-13.063c0 7.216 11.507 13.063 25.702 13.063 14.194 0 25.702-5.847 25.702-13.063 0 7.216 10.194 13.063 22.768 13.063 12.578 0 22.771-5.847 22.771-13.063h.001c.021 7.205 11.52 13.043 25.701 13.043 14.181 0 25.68-5.838 25.701-13.043h.001c0 7.216 10.194 13.063 22.769 13.063 12.575 0 22.769-5.847 22.769-13.063 0 7.216 11.508 13.063 25.701 13.063 14.195 0 25.703-5.847 25.703-13.063 0 7.215 11.507 13.063 25.701 13.063s25.703-5.847 25.703-13.063c0 7.216 10.194 13.063 22.768 13.063 12.575 0 22.769-5.847 22.769-13.063 0 7.216 11.507 13.063 25.702 13.063 14.194 0 25.702-5.847 25.702-13.063 0 7.216 10.194 13.063 22.768 13.063 12.577 0 22.771-5.847 22.771-13.063h.001c.021 7.205 11.519 13.043 25.7 13.043 14.18 0 25.68-5.838 25.702-13.043h.001c0 7.216 10.194 13.063 22.769 13.063s22.769-5.847 22.769-13.063c0 7.216 11.508 13.063 25.702 13.063 14.195 0 25.703-5.847 25.703-13.063 0 7.215 11.506 13.063 25.701 13.063 14.193 0 25.702-5.847 25.702-13.063 0 7.216 10.194 13.063 22.769 13.063 12.575 0 22.767-5.847 22.767-13.063 0 7.216 11.509 13.063 25.703 13.063 14.195 0 25.702-5.847 25.702-13.063 0 7.216 10.194 13.063 22.768 13.063 12.577 0 22.771-5.847 22.771-13.063h.001c.021 7.205 11.52 13.043 25.702 13.043 14.178 0 25.678-5.838 25.701-13.043 0 7.216 10.194 13.063 22.769 13.063 12.576 0 22.769-5.847 22.769-13.063 0 7.216 11.509 13.063 25.702 13.063 14.195 0 23.015-5.847 23.015-13.063V0z"/></svg>