<?xml version="1.0" encoding="utf-8"?>
<!-- Generator: Adobe Illustrator 15.0.0, SVG Export Plug-In . SVG Version: 6.00 Build 0)  -->
<!DOCTYPE svg PUBLIC "-//W3C//DTD SVG 1.1//EN" "http://www.w3.org/Graphics/SVG/1.1/DTD/svg11.dtd">
<svg version="1.1" id="Capa_1" xmlns="http://www.w3.org/2000/svg" xmlns:xlink="http://www.w3.org/1999/xlink" x="0px" y="0px"
	 width="1024px" height="77.811px" viewBox="0 0 1024 77.811" enable-background="new 0 0 1024 77.811" xml:space="preserve">
<path fill="#BC1762" d="M0,0v38.288l0,0C0,60.118,34.436,77.81,76.913,77.81c42.478,0,76.914-17.689,76.914-39.521l0,0
	c0,21.83,30.506,39.521,68.136,39.521c37.631,0,68.137-17.689,68.137-39.521l0,0c0,21.83,34.435,39.521,76.913,39.521
	s76.914-17.689,76.914-39.521l0,0c0,21.83,30.506,39.521,68.136,39.521c37.634,0,68.139-17.689,68.139-39.521h0.005
	c0.063,21.798,34.473,39.463,76.91,39.463c42.437,0,76.847-17.665,76.911-39.463h0.004c0,21.83,30.505,39.521,68.135,39.521
	c37.631,0,68.137-17.689,68.137-39.521h0.001c0,21.83,34.438,39.521,76.912,39.521c42.479,0,76.914-17.689,76.914-39.521V0H0z"/>
<g>
	<path fill="#DFF4ED" d="M33.338,39.781c0.22-0.606,0.077-1.37-0.439-1.745c-0.273-1.039-0.569-2.069-0.917-3.079
		c-0.846-2.459-2.534-7.306-5.937-6.933c-3.775,0.415-5.375,5.061-6.395,8.115c-1.465,4.386-2.03,8.99-3.016,13.49
		c-0.366,1.668,2.18,2.448,2.547,0.771c0.704-3.211,1.208-6.532,1.959-9.733c0.03-0.128,0.058-0.156,0.093-0.472
		c3.226,0.089,6.451,0.178,9.677,0.265c1.068,3.813,1.914,7.247,2.264,8.144c0.622,1.595,2.946,0.331,2.33-1.246
		C34.55,44.914,33.967,42.358,33.338,39.781z M21.912,37.378c0.698-2.503,1.761-5.424,3.796-6.686
		c1.38-0.854,2.958,2.771,4.323,6.906C27.324,37.525,24.618,37.452,21.912,37.378z"/>
	<path fill="#DFF4ED" d="M46.3,37.241c-2.118-0.623-4.296,0.504-5.334,2.342c-0.156,0.276-0.283,0.564-0.388,0.86
		c-0.063-0.536-0.106-1.079-0.109-1.634c-0.009-1.714-2.669-1.807-2.66-0.091c0.017,3.393,1.003,6.602,2.653,9.551
		c0.63,1.127,2.486,0.742,2.496-0.597c0.016-2.104-0.923-10.052,3.476-7.501c2.47,1.434,3.175,5.777,3.588,8.331
		c0.275,1.695,2.861,1.063,2.588-0.618C51.983,44.009,50.59,38.504,46.3,37.241z"/>
	<path fill="#DFF4ED" d="M56.167,39.794c-0.247-1.699-2.833-1.065-2.588,0.619c0.306,2.104,0.781,4.249,1.79,6.139
		c0.808,1.514,3.14,0.231,2.332-1.283C56.805,43.592,56.438,41.659,56.167,39.794z"/>
	<path fill="#DFF4ED" d="M54.655,36.577c1.718,0.046,1.805-2.614,0.091-2.661C53.028,33.87,52.942,36.53,54.655,36.577z"/>
	<path fill="#DFF4ED" d="M73.597,37.707c-1.439,0.267-2.389,1.063-3.009,2.14c-0.756-1.569-1.923-2.724-3.794-2.873
		c-2.541-0.205-3.909,0.826-4.624,2.394c-0.069-0.31-0.137-0.62-0.205-0.931c-0.368-1.678-2.955-1.057-2.588,0.617
		c0.58,2.646,1.179,5.221,2.355,7.673c0.547,1.143,2.599,0.729,2.496-0.598c-0.085-1.101-0.167-2.194-0.178-3.299
		c-0.023-2.281,2.085-4.916,3.922-2.091c1.474,2.268,1.347,5.704,1.748,8.3c0.228,1.477,2.747,1.23,2.625-0.264
		c-0.171-2.066-1.036-9.022,2.487-8.361c2.355,0.439,2.942,7.607,4.101,9.51c0.889,1.458,3.227,0.185,2.331-1.285
		C79.313,45.442,79.434,36.628,73.597,37.707z"/>
	<path fill="#DFF4ED" d="M95.03,45.065c-2.052,0.606-3.571-0.868-3.86-2.667c0.179-0.696,0.258-1.436,0.209-2.202
		c-0.053-0.82-0.695-1.32-1.343-1.349c-0.059-0.056-0.119-0.109-0.191-0.158c-2.055-1.377-5.562-1.985-7.538-0.072
		c-1.871,1.812-2.217,4.767-0.503,6.787c1.369,1.613,4.052,1.678,5.865,0.967c0.708-0.277,1.309-0.668,1.819-1.133
		c1.267,1.97,3.565,3.182,6.16,2.417C97.289,47.171,96.678,44.579,95.03,45.065z M88.466,41.958
		c-0.588,1.611-2.117,2.617-4.118,2.003c-1.273-0.391-1.129-1.952-0.668-2.899c0.844-1.735,3.625-0.875,4.773-0.104
		c0.02,0.013,0.039,0.02,0.058,0.03C88.47,41.312,88.454,41.636,88.466,41.958z"/>
	<path fill="#DFF4ED" d="M103.115,39.586c-1.717-0.046-3.434-0.094-5.151-0.141c-1.718-0.047-1.811,2.789-0.097,2.834
		c1.717,0.048,3.434,0.095,5.152,0.142C104.736,42.468,104.828,39.634,103.115,39.586z"/>
	<path fill="#DFF4ED" d="M118.696,44.845c-1.248,1.474-1.942,2.229-2.646,0.113c-0.684-2.052-0.817-4.307-0.956-6.445
		c-0.105-1.617,0.094-3.644,0.08-5.535c1.087,0.029,2.174,0.06,3.262,0.088c1.718,0.046,1.81-2.789,0.097-2.834
		c-1.208-0.032-2.414-0.065-3.621-0.099c-0.093-0.318-0.206-0.819-0.361-1.193c-0.634-1.524-2.808-0.47-2.382,1.118
		c-1.819-0.049-3.636-0.099-5.455-0.147c-1.718-0.046-1.811,2.789-0.097,2.835c1.904,0.052,3.81,0.104,5.714,0.154
		c-0.02,0.946-0.049,1.829-0.034,2.376c0.079,2.878,0.235,5.772,0.75,8.611c0.824,4.549,3.999,7.004,7.489,2.883
		C121.632,45.475,119.807,43.533,118.696,44.845z"/>
	<path fill="#DFF4ED" d="M135.403,42.661c-3.114,2.185-8.26,3.218-9.239-1.726c-0.022-0.116-0.019-0.229-0.023-0.341
		c0.205,0.214,0.493,0.36,0.875,0.374c2.639,0.094,5.399,0.379,7.691-1.188c0.771-0.525,0.861-1.352,0.319-2.085
		c-1.625-2.2-4.09-3.183-6.774-2.682c-2.36,0.439-4.511,2.566-4.723,4.994c-0.258,2.977,1.688,5.771,4.388,6.878
		c2.83,1.16,6.445-0.265,8.771-1.896C138.076,44.021,136.81,41.675,135.403,42.661z M128.5,37.702
		c1.201-0.411,2.301-0.146,3.226,0.483c-1.392,0.342-2.895,0.199-4.356,0.136C127.721,38.052,128.11,37.835,128.5,37.702z"/>
	<path fill="#DFF4ED" d="M128.837,21.621c1.173,1.258,3.778,6.041,0.905,7.102c-1.589,0.586-0.989,3.183,0.619,2.589
		c3.111-1.148,3.585-3.887,2.926-6.896c-0.385-1.753-1.417-3.268-2.527-4.636c-1.991-2.457-4.838-3.3-2.029-6.755
		c1.066-1.313-0.758-3.255-1.841-1.923c-1.74,2.142-3.199,4.446-1.455,7.03C126.334,19.462,127.749,20.453,128.837,21.621z"/>
</g>
<path fill="#DFF4ED" d="M321.747,41.744v4.604h-1.632V34.39c1.235-0.055,1.98-0.082,2.236-0.082c3.472,0,5.208,1.163,5.208,3.485
	c0,2.689-1.535,4.032-4.604,4.032C322.77,41.825,322.367,41.798,321.747,41.744z M321.747,35.859v4.416
	c0.691,0.054,1.056,0.082,1.094,0.082c2.024,0,3.037-0.798,3.037-2.392c0-1.459-1.081-2.188-3.241-2.188
	C322.419,35.778,322.122,35.804,321.747,35.859z"/>
<path fill="#DFF4ED" d="M333.28,39.099c-0.337-0.233-0.677-0.351-1.02-0.351c-0.55,0-1.03,0.253-1.441,0.759
	c-0.411,0.506-0.616,1.114-0.616,1.828v5.012h-1.551v-8.742h1.551v1.396c0.566-1.04,1.407-1.559,2.522-1.559
	c0.278,0,0.678,0.049,1.2,0.147L333.28,39.099z"/>
<path fill="#DFF4ED" d="M342.39,42.128h-6.301c0,1.022,0.28,1.809,0.841,2.358c0.495,0.479,1.131,0.719,1.91,0.719
	c0.887,0,1.627-0.259,2.22-0.775l0.653,1.118c-0.24,0.24-0.607,0.445-1.102,0.62c-0.621,0.229-1.311,0.343-2.073,0.343
	c-1.099,0-2.033-0.373-2.8-1.118c-0.854-0.822-1.282-1.927-1.282-3.313c0-1.443,0.438-2.6,1.314-3.47
	c0.784-0.779,1.711-1.167,2.783-1.167c1.246,0,2.223,0.351,2.931,1.053c0.686,0.674,1.028,1.569,1.028,2.686
	C342.512,41.524,342.471,41.84,342.39,42.128z M338.627,38.749c-0.691,0-1.271,0.223-1.739,0.669
	c-0.446,0.424-0.699,0.952-0.759,1.583h4.84c0-0.626-0.196-1.148-0.587-1.567C339.952,38.977,339.367,38.749,338.627,38.749z"/>
<path fill="#DFF4ED" d="M343.573,45.825l0.547-1.469c0.865,0.566,1.562,0.849,2.09,0.849c0.958,0,1.437-0.403,1.437-1.208
	c0-0.576-0.462-1.073-1.388-1.485c-0.713-0.327-1.193-0.574-1.441-0.743c-0.248-0.169-0.462-0.36-0.645-0.575
	c-0.183-0.216-0.318-0.444-0.408-0.686c-0.09-0.242-0.135-0.503-0.135-0.78c0-0.718,0.261-1.279,0.784-1.681
	s1.205-0.604,2.049-0.604c0.637,0,1.439,0.202,2.408,0.604l-0.44,1.437c-0.615-0.49-1.233-0.735-1.853-0.735
	c-0.37,0-0.682,0.087-0.935,0.261c-0.253,0.173-0.379,0.395-0.379,0.661c0,0.56,0.318,0.984,0.955,1.273l1.11,0.506
	c0.68,0.311,1.175,0.665,1.485,1.062c0.311,0.396,0.465,0.896,0.465,1.493c0,0.784-0.274,1.397-0.824,1.842
	c-0.55,0.442-1.312,0.664-2.286,0.664C345.25,46.511,344.384,46.282,343.573,45.825z"/>
<path fill="#DFF4ED" d="M358.274,42.128h-6.301c0,1.022,0.28,1.809,0.841,2.358c0.495,0.479,1.131,0.719,1.91,0.719
	c0.887,0,1.627-0.259,2.22-0.775l0.653,1.118c-0.24,0.24-0.607,0.445-1.102,0.62c-0.621,0.229-1.312,0.343-2.073,0.343
	c-1.099,0-2.033-0.373-2.8-1.118c-0.854-0.822-1.282-1.927-1.282-3.313c0-1.443,0.438-2.6,1.314-3.47
	c0.784-0.779,1.711-1.167,2.783-1.167c1.246,0,2.223,0.351,2.931,1.053c0.686,0.674,1.028,1.569,1.028,2.686
	C358.396,41.524,358.355,41.84,358.274,42.128z M354.511,38.749c-0.691,0-1.271,0.223-1.739,0.669
	c-0.446,0.424-0.699,0.952-0.759,1.583h4.84c0-0.626-0.196-1.148-0.587-1.567C355.836,38.977,355.251,38.749,354.511,38.749z"/>
<path fill="#DFF4ED" d="M365.408,46.348v-5.085c0-0.931-0.14-1.583-0.42-1.956c-0.281-0.372-0.75-0.558-1.408-0.558
	c-0.354,0-0.724,0.106-1.11,0.318c-0.387,0.212-0.683,0.473-0.89,0.784v6.497h-1.551v-8.742h1.061l0.49,1.126
	c0.512-0.859,1.347-1.29,2.506-1.29c1.915,0,2.873,1.165,2.873,3.493v5.412H365.408z"/>
<path fill="#DFF4ED" d="M369.718,38.83h-1.012v-1.225h1.012v-1.828l1.551-0.596v2.424h2.4v1.225h-2.4v4.343
	c0,0.734,0.124,1.257,0.372,1.566c0.248,0.311,0.646,0.466,1.196,0.466c0.397,0,0.808-0.101,1.232-0.302l0.229,1.362
	c-0.642,0.164-1.347,0.245-2.114,0.245c-0.691,0-1.275-0.257-1.751-0.771c-0.477-0.514-0.714-1.163-0.714-1.946V38.83z"/>
<path fill="#DFF4ED" d="M380.729,45.344c-0.62,0.777-1.57,1.167-2.849,1.167c-0.686,0-1.28-0.249-1.784-0.746
	c-0.503-0.499-0.755-1.117-0.755-1.857c0-0.888,0.388-1.636,1.163-2.25c0.775-0.61,1.764-0.917,2.967-0.917
	c0.326,0,0.697,0.071,1.11,0.212c0-1.414-0.631-2.122-1.894-2.122c-0.968,0-1.714,0.261-2.236,0.783l-0.653-1.297
	c0.294-0.24,0.701-0.446,1.22-0.616c0.52-0.173,1.017-0.258,1.49-0.258c1.268,0,2.189,0.288,2.763,0.865s0.861,1.494,0.861,2.751
	v3.134c0,0.768,0.229,1.278,0.686,1.535v0.775c-0.631,0-1.103-0.09-1.417-0.27C381.089,46.054,380.865,45.758,380.729,45.344z
	 M380.582,42.054c-0.49-0.109-0.833-0.163-1.028-0.163c-0.784,0-1.423,0.201-1.918,0.604c-0.495,0.403-0.743,0.879-0.743,1.429
	c0,0.908,0.536,1.362,1.608,1.362c0.784,0,1.478-0.373,2.082-1.118V42.054z"/>
<path fill="#DFF4ED" d="M391.169,38.316l-0.767,1.093c-0.158-0.158-0.437-0.308-0.837-0.449s-0.793-0.212-1.179-0.212
	c-0.844,0-1.513,0.295-2.008,0.885c-0.495,0.591-0.743,1.4-0.743,2.429c0,1.022,0.253,1.803,0.759,2.338
	c0.506,0.536,1.208,0.805,2.106,0.805c0.696,0,1.398-0.27,2.106-0.809l0.612,1.307c-0.833,0.538-1.864,0.808-3.093,0.808
	c-1.192,0-2.177-0.399-2.955-1.2c-0.778-0.8-1.167-1.883-1.167-3.248c0-1.394,0.404-2.511,1.212-3.355s1.914-1.265,3.318-1.265
	c0.452,0,0.942,0.094,1.469,0.286C390.529,37.92,390.919,38.115,391.169,38.316z"/>
<path fill="#DFF4ED" d="M393.602,46.348v-7.436h-1.2v-1.306h2.751v8.742H393.602z M394.45,34.3c0.267,0,0.494,0.093,0.682,0.282
	c0.188,0.187,0.282,0.412,0.282,0.673c0,0.267-0.094,0.493-0.282,0.682c-0.188,0.187-0.415,0.281-0.682,0.281
	c-0.261,0-0.485-0.094-0.673-0.281c-0.188-0.189-0.282-0.415-0.282-0.682s0.093-0.493,0.278-0.678
	C393.958,34.393,394.184,34.3,394.45,34.3z"/>
<path fill="#DFF4ED" d="M397.046,41.956c0-1.351,0.363-2.439,1.09-3.27c0.727-0.829,1.683-1.244,2.869-1.244
	c1.251,0,2.223,0.399,2.914,1.195c0.691,0.798,1.037,1.903,1.037,3.318c0,1.409-0.354,2.521-1.061,3.335
	c-0.708,0.813-1.67,1.22-2.89,1.22c-1.246,0-2.217-0.41-2.914-1.232S397.046,43.349,397.046,41.956z M398.678,41.956
	c0,2.192,0.776,3.29,2.327,3.29c0.724,0,1.291-0.294,1.702-0.882s0.616-1.392,0.616-2.408c0-2.166-0.772-3.249-2.318-3.249
	c-0.708,0-1.272,0.289-1.694,0.865C398.89,40.149,398.678,40.945,398.678,41.956z M402.833,33.141l-1.845,2.718h-1.143l1.379-2.718
	H402.833z"/>
<path fill="#DFF4ED" d="M411.967,46.348v-5.085c0-0.931-0.14-1.583-0.42-1.956c-0.281-0.372-0.75-0.558-1.408-0.558
	c-0.354,0-0.724,0.106-1.11,0.318c-0.386,0.212-0.683,0.473-0.89,0.784v6.497h-1.551v-8.742h1.061l0.49,1.126
	c0.511-0.859,1.347-1.29,2.506-1.29c1.916,0,2.874,1.165,2.874,3.493v5.412H411.967z"/>
<path fill="#DFF4ED" d="M486.134,34.83l-0.548,1.396c-0.522-0.38-1.344-0.571-2.465-0.571c-1.05,0-1.892,0.452-2.526,1.355
	c-0.634,0.902-0.951,2.068-0.951,3.493c0,1.36,0.326,2.464,0.976,3.31c0.649,0.847,1.489,1.27,2.518,1.27
	c1.122,0,1.985-0.397,2.589-1.191l0.898,1.249c-0.947,0.942-2.167,1.412-3.657,1.412c-1.563,0-2.792-0.563-3.689-1.689
	c-0.897-1.127-1.348-2.612-1.348-4.457c0-1.784,0.479-3.267,1.437-4.449c0.958-1.181,2.196-1.771,3.715-1.771
	C484.381,34.186,485.399,34.4,486.134,34.83z"/>
<path fill="#DFF4ED" d="M493.317,45.344c-0.621,0.777-1.571,1.167-2.851,1.167c-0.686,0-1.28-0.249-1.782-0.746
	c-0.503-0.499-0.755-1.117-0.755-1.857c0-0.888,0.387-1.636,1.162-2.25c0.776-0.61,1.765-0.917,2.968-0.917
	c0.327,0,0.696,0.071,1.11,0.212c0-1.414-0.632-2.122-1.894-2.122c-0.969,0-1.714,0.261-2.236,0.783l-0.653-1.297
	c0.294-0.24,0.699-0.446,1.22-0.616c0.521-0.173,1.017-0.258,1.49-0.258c1.268,0,2.188,0.288,2.763,0.865
	c0.574,0.577,0.861,1.494,0.861,2.751v3.134c0,0.768,0.229,1.278,0.686,1.535v0.775c-0.632,0-1.103-0.09-1.417-0.27
	C493.676,46.054,493.452,45.758,493.317,45.344z M493.17,42.054c-0.489-0.109-0.833-0.163-1.028-0.163
	c-0.783,0-1.424,0.201-1.92,0.604c-0.494,0.403-0.741,0.879-0.741,1.429c0,0.908,0.535,1.362,1.606,1.362
	c0.784,0,1.479-0.373,2.083-1.118V42.054z"/>
<path fill="#DFF4ED" d="M497.716,38.83h-1.013v-1.225h1.013v-1.828l1.551-0.596v2.424h2.399v1.225h-2.399v4.343
	c0,0.734,0.123,1.257,0.371,1.566c0.249,0.311,0.646,0.466,1.195,0.466c0.398,0,0.81-0.101,1.234-0.302l0.229,1.362
	c-0.643,0.164-1.349,0.245-2.115,0.245c-0.69,0-1.273-0.257-1.751-0.771c-0.477-0.514-0.714-1.163-0.714-1.946V38.83z"/>
<path fill="#DFF4ED" d="M508.728,45.344c-0.62,0.777-1.569,1.167-2.85,1.167c-0.686,0-1.28-0.249-1.783-0.746
	c-0.502-0.499-0.754-1.117-0.754-1.857c0-0.888,0.387-1.636,1.162-2.25c0.775-0.61,1.765-0.917,2.968-0.917
	c0.326,0,0.697,0.071,1.11,0.212c0-1.414-0.632-2.122-1.894-2.122c-0.968,0-1.715,0.261-2.237,0.783l-0.652-1.297
	c0.294-0.24,0.699-0.446,1.22-0.616c0.52-0.173,1.017-0.258,1.49-0.258c1.269,0,2.188,0.288,2.764,0.865
	c0.573,0.577,0.86,1.494,0.86,2.751v3.134c0,0.768,0.229,1.278,0.686,1.535v0.775c-0.632,0-1.104-0.09-1.416-0.27
	C509.087,46.054,508.863,45.758,508.728,45.344z M508.581,42.054c-0.49-0.109-0.833-0.163-1.028-0.163
	c-0.784,0-1.423,0.201-1.92,0.604c-0.494,0.403-0.741,0.879-0.741,1.429c0,0.908,0.536,1.362,1.606,1.362
	c0.784,0,1.479-0.373,2.083-1.118V42.054z M508.931,33.141l-1.845,2.718h-1.143l1.381-2.718H508.931z"/>
<path fill="#DFF4ED" d="M512.694,43.874v-9.852h1.551v9.591c0,0.468,0.136,0.836,0.404,1.106c0.271,0.269,0.622,0.403,1.056,0.403
	v1.388C513.697,46.511,512.694,45.632,512.694,43.874z"/>
<path fill="#DFF4ED" d="M516.93,41.956c0-1.351,0.364-2.439,1.092-3.27c0.726-0.829,1.682-1.244,2.868-1.244
	c1.253,0,2.223,0.399,2.913,1.195c0.692,0.798,1.038,1.903,1.038,3.318c0,1.409-0.354,2.521-1.062,3.335
	c-0.706,0.813-1.67,1.22-2.89,1.22c-1.245,0-2.218-0.41-2.915-1.232C517.279,44.456,516.93,43.349,516.93,41.956z M518.563,41.956
	c0,2.192,0.776,3.29,2.327,3.29c0.724,0,1.29-0.294,1.703-0.882c0.41-0.588,0.615-1.392,0.615-2.408
	c0-2.166-0.771-3.249-2.318-3.249c-0.706,0-1.273,0.289-1.693,0.865C518.774,40.149,518.563,40.945,518.563,41.956z"/>
<path fill="#DFF4ED" d="M526.153,48.74l0.842-1.24c0.903,0.604,1.735,0.905,2.498,0.905c0.702,0,1.255-0.121,1.66-0.363
	c0.406-0.241,0.609-0.542,0.609-0.901c0-0.708-0.511-1.062-1.535-1.062c-0.175,0-0.489,0.043-0.946,0.131
	c-0.457,0.087-0.814,0.131-1.07,0.131c-1.241,0-1.861-0.468-1.861-1.404c0-0.288,0.146-0.549,0.438-0.783
	c0.289-0.234,0.65-0.402,1.08-0.507c-1.229-0.577-1.846-1.577-1.846-3.004c0-0.914,0.32-1.675,0.957-2.285s1.422-0.914,2.357-0.914
	c0.86,0,1.532,0.176,2.018,0.53l0.774-0.93l1.012,0.955l-0.931,0.702c0.399,0.517,0.598,1.191,0.598,2.024
	c0,0.882-0.275,1.622-0.826,2.221c-0.548,0.598-1.269,0.94-2.162,1.028l-1.282,0.13c-0.151,0.017-0.354,0.075-0.611,0.177
	c-0.257,0.1-0.385,0.231-0.385,0.396c0,0.223,0.269,0.334,0.8,0.334c0.235,0,0.6-0.042,1.094-0.126
	c0.497-0.085,0.863-0.127,1.104-0.127c0.86,0,1.529,0.205,2.013,0.617c0.48,0.41,0.721,0.979,0.721,1.709
	c0,0.805-0.359,1.455-1.08,1.951c-0.723,0.495-1.635,0.743-2.74,0.743c-0.564,0-1.161-0.101-1.786-0.303
	C527.04,49.273,526.536,49.028,526.153,48.74z M529.444,38.692c-0.539,0-0.979,0.191-1.317,0.571
	c-0.341,0.38-0.511,0.844-0.511,1.388c0,0.608,0.163,1.114,0.494,1.514c0.329,0.4,0.774,0.601,1.334,0.601
	c0.55,0,0.979-0.195,1.289-0.585c0.311-0.388,0.465-0.897,0.465-1.529c0-0.544-0.166-1.008-0.502-1.388
	C530.363,38.883,529.945,38.692,529.444,38.692z"/>
<path fill="#DFF4ED" d="M534.293,41.956c0-1.351,0.363-2.439,1.089-3.27c0.728-0.829,1.684-1.244,2.868-1.244
	c1.253,0,2.226,0.399,2.916,1.195c0.689,0.798,1.035,1.903,1.035,3.318c0,1.409-0.353,2.521-1.062,3.335
	c-0.706,0.813-1.67,1.22-2.89,1.22c-1.245,0-2.215-0.41-2.912-1.232S534.293,43.349,534.293,41.956z M535.925,41.956
	c0,2.192,0.774,3.29,2.325,3.29c0.726,0,1.292-0.294,1.703-0.882c0.41-0.588,0.615-1.392,0.615-2.408
	c0-2.166-0.771-3.249-2.318-3.249c-0.706,0-1.271,0.289-1.692,0.865C536.135,40.149,535.925,40.945,535.925,41.956z"/>
<path fill="#DFF4ED" d="M629.987,34.83l-0.548,1.396c-0.522-0.38-1.344-0.571-2.465-0.571c-1.05,0-1.892,0.452-2.526,1.355
	c-0.634,0.902-0.951,2.068-0.951,3.493c0,1.36,0.326,2.464,0.978,3.31c0.648,0.847,1.487,1.27,2.516,1.27
	c1.122,0,1.985-0.397,2.589-1.191l0.898,1.249c-0.947,0.942-2.167,1.412-3.657,1.412c-1.563,0-2.791-0.563-3.689-1.689
	c-0.897-1.127-1.348-2.612-1.348-4.457c0-1.784,0.48-3.267,1.437-4.449c0.958-1.181,2.196-1.771,3.715-1.771
	C628.236,34.186,629.253,34.4,629.987,34.83z"/>
<path fill="#DFF4ED" d="M631.66,41.956c0-1.351,0.363-2.439,1.091-3.27c0.726-0.829,1.682-1.244,2.868-1.244
	c1.253,0,2.223,0.399,2.913,1.195c0.693,0.798,1.038,1.903,1.038,3.318c0,1.409-0.354,2.521-1.062,3.335
	c-0.706,0.813-1.669,1.22-2.89,1.22c-1.245,0-2.218-0.41-2.915-1.232C632.01,44.456,631.66,43.349,631.66,41.956z M633.292,41.956
	c0,2.192,0.776,3.29,2.327,3.29c0.724,0,1.29-0.294,1.703-0.882c0.41-0.588,0.615-1.392,0.615-2.408
	c0-2.166-0.771-3.249-2.318-3.249c-0.706,0-1.272,0.289-1.692,0.865C633.504,40.149,633.292,40.945,633.292,41.956z"/>
<path fill="#DFF4ED" d="M646.581,46.348v-5.085c0-0.931-0.141-1.583-0.42-1.956c-0.28-0.372-0.749-0.558-1.409-0.558
	c-0.352,0-0.723,0.106-1.109,0.318c-0.385,0.212-0.682,0.473-0.889,0.784v6.497h-1.551v-8.742h1.061l0.49,1.126
	c0.511-0.859,1.346-1.29,2.505-1.29c1.917,0,2.873,1.165,2.873,3.493v5.412H646.581z"/>
<path fill="#DFF4ED" d="M650.891,38.83h-1.012v-1.225h1.012v-1.828l1.551-0.596v2.424h2.399v1.225h-2.399v4.343
	c0,0.734,0.124,1.257,0.373,1.566c0.247,0.311,0.646,0.466,1.194,0.466c0.398,0,0.81-0.101,1.233-0.302l0.229,1.362
	c-0.642,0.164-1.348,0.245-2.115,0.245c-0.69,0-1.273-0.257-1.749-0.771c-0.478-0.514-0.716-1.163-0.716-1.946V38.83z"/>
<path fill="#DFF4ED" d="M661.903,45.344c-0.621,0.777-1.57,1.167-2.851,1.167c-0.686,0-1.28-0.249-1.781-0.746
	c-0.504-0.499-0.756-1.117-0.756-1.857c0-0.888,0.387-1.636,1.164-2.25c0.774-0.61,1.763-0.917,2.966-0.917
	c0.327,0,0.698,0.071,1.11,0.212c0-1.414-0.632-2.122-1.894-2.122c-0.968,0-1.714,0.261-2.236,0.783l-0.653-1.297
	c0.294-0.24,0.7-0.446,1.22-0.616c0.521-0.173,1.017-0.258,1.49-0.258c1.269,0,2.188,0.288,2.764,0.865
	c0.574,0.577,0.86,1.494,0.86,2.751v3.134c0,0.768,0.229,1.278,0.686,1.535v0.775c-0.632,0-1.103-0.09-1.415-0.27
	C662.262,46.054,662.038,45.758,661.903,45.344z M661.756,42.054c-0.489-0.109-0.832-0.163-1.028-0.163
	c-0.783,0-1.423,0.201-1.919,0.604c-0.495,0.403-0.742,0.879-0.742,1.429c0,0.908,0.536,1.362,1.607,1.362
	c0.783,0,1.479-0.373,2.082-1.118V42.054z"/>
<path fill="#DFF4ED" d="M672.342,38.316l-0.768,1.093c-0.156-0.158-0.436-0.308-0.835-0.449c-0.401-0.141-0.793-0.212-1.18-0.212
	c-0.845,0-1.514,0.295-2.008,0.885c-0.495,0.591-0.744,1.4-0.744,2.429c0,1.022,0.254,1.803,0.76,2.338
	c0.507,0.536,1.208,0.805,2.106,0.805c0.697,0,1.399-0.27,2.105-0.809l0.611,1.307c-0.833,0.538-1.863,0.808-3.093,0.808
	c-1.191,0-2.176-0.399-2.954-1.2c-0.779-0.8-1.169-1.883-1.169-3.248c0-1.394,0.406-2.511,1.213-3.355
	c0.81-0.844,1.915-1.265,3.318-1.265c0.453,0,0.942,0.094,1.47,0.286S672.092,38.115,672.342,38.316z"/>
<path fill="#DFF4ED" d="M674.578,38.83h-1.012v-1.225h1.012v-1.828l1.551-0.596v2.424h2.4v1.225h-2.4v4.343
	c0,0.734,0.124,1.257,0.371,1.566c0.249,0.311,0.646,0.466,1.196,0.466c0.396,0,0.81-0.101,1.233-0.302l0.229,1.362
	c-0.644,0.164-1.348,0.245-2.115,0.245c-0.69,0-1.273-0.257-1.751-0.771c-0.476-0.514-0.714-1.163-0.714-1.946V38.83z"/>
<path fill="#DFF4ED" d="M680.08,41.956c0-1.351,0.363-2.439,1.089-3.27c0.728-0.829,1.684-1.244,2.871-1.244
	c1.25,0,2.222,0.399,2.912,1.195c0.69,0.798,1.038,1.903,1.038,3.318c0,1.409-0.354,2.521-1.061,3.335
	c-0.709,0.813-1.673,1.22-2.89,1.22c-1.248,0-2.218-0.41-2.915-1.232C680.427,44.456,680.08,43.349,680.08,41.956z M681.712,41.956
	c0,2.192,0.777,3.29,2.328,3.29c0.723,0,1.289-0.294,1.7-0.882c0.412-0.588,0.617-1.392,0.617-2.408
	c0-2.166-0.773-3.249-2.317-3.249c-0.709,0-1.273,0.289-1.696,0.865C681.925,40.149,681.712,40.945,681.712,41.956z"/>
</svg>
