<?xml version="1.0" encoding="utf-8"?>
<!-- Generator: Adobe Illustrator 15.0.0, SVG Export Plug-In . SVG Version: 6.00 Build 0)  -->
<!DOCTYPE svg PUBLIC "-//W3C//DTD SVG 1.1//EN" "http://www.w3.org/Graphics/SVG/1.1/DTD/svg11.dtd">
<svg version="1.1" id="Capa_1" xmlns="http://www.w3.org/2000/svg" xmlns:xlink="http://www.w3.org/1999/xlink" x="0px" y="0px"
	 width="1024px" height="77.811px" viewBox="0 0 1024 77.811" enable-background="new 0 0 1024 77.811" xml:space="preserve">
<path fill="#FC63AC" d="M0,0v38.288l0,0C0,60.118,34.436,77.81,76.913,77.81c42.478,0,76.914-17.692,76.914-39.522l0,0
	c0,21.83,30.506,39.522,68.136,39.522c37.631,0,68.137-17.692,68.137-39.522l0,0c0,21.83,34.435,39.522,76.913,39.522
	c42.478,0,76.914-17.692,76.914-39.522h0c0,21.83,30.506,39.522,68.136,39.522c37.631,0,68.136-17.692,68.136-39.522h0.005
	c0.064,21.798,34.473,39.463,76.91,39.463c42.438,0,76.847-17.665,76.911-39.463h0.004c0,21.83,30.505,39.522,68.135,39.522
	c37.631,0,68.137-17.692,68.137-39.522h0.001c0,21.83,34.435,39.522,76.912,39.522c42.479,0,76.914-17.692,76.914-39.522V0H0z"/>
</svg>
